<?xml version="1.0" encoding="UTF-8"?><svg id="Layer_2" xmlns="http://www.w3.org/2000/svg" viewBox="0 0 600 153.01"><defs><style>.cls-1{fill:#ea2427;}.cls-2{isolation:isolate;}</style></defs><g id="Layer_1-2"><g><g id="Group_31"><g id="Path_162"><path class="cls-1" d="M45.88,30.94c0,11.87-8.59,19.04-22.78,19.04H9.58v16.55H1.76V11.9H23.07c14.21,0,22.78,7.18,22.78,19.04m-7.82,0c0-7.82-5.23-12.24-15.22-12.24H9.55v24.51h13.26c9.99,0,15.22-4.45,15.22-12.24"/></g><g id="Path_163"><path class="cls-1" d="M75.28,24.78v7.25c-.57-.06-1.14-.09-1.72-.08-8.04,0-13.04,4.92-13.04,13.97v20.61h-7.48V25.17h7.18v6.95c2.66-4.84,7.82-7.34,15.07-7.34"/></g><g id="Path_164"><path class="cls-1" d="M77.49,45.86c-.2-11.88,9.28-21.67,21.15-21.86,11.88-.2,21.67,9.28,21.86,21.15,.2,11.88-9.28,21.67-21.15,21.86-.1,0-.21,0-.31,0-11.36,.53-21-8.24-21.53-19.6-.02-.52-.03-1.04-.01-1.56m35.44,0c0-7.7-6.23-13.95-13.93-13.95-7.7,0-13.95,6.23-13.95,13.93v.02c0,7.7,6.23,13.95,13.93,13.95,7.7,0,13.95-6.23,13.95-13.93v-.02"/></g><g id="Path_165"><path class="cls-1" d="M171.14,45.86c.59,11.09-7.92,20.55-19,21.15-.64,.03-1.28,.04-1.92,.01-5.61,.18-10.97-2.31-14.44-6.71v21.39h-7.48V25.17h7.18v6.56c3.49-4.59,9-7.18,14.75-6.95,11.08-.48,20.45,8.12,20.93,19.2,.03,.63,.02,1.26,0,1.88m-7.57,0c0-7.7-6.24-13.94-13.94-13.94s-13.94,6.24-13.94,13.94,6.24,13.94,13.94,13.94,13.94-6.24,13.94-13.94"/></g><g id="Path_166"><path class="cls-1" d="M216.96,48.35h-33.57c.99,7.37,7.57,12.69,14.99,12.1,4.52,.16,8.89-1.66,11.94-4.99l4.14,4.84c-4.17,4.55-10.15,7.01-16.32,6.71-13.35,0-22.25-8.82-22.25-21.16-.46-11.18,8.24-20.61,19.42-21.07,.45-.02,.9-.02,1.35-.01,11.94,0,20.45,8.59,20.45,21.31,0,.63-.08,1.56-.16,2.26m-33.57-5.39h26.54c-.83-7.33-7.45-12.6-14.78-11.77-6.18,.7-11.07,5.58-11.77,11.77"/></g><g id="Path_167"><path class="cls-1" d="M246.98,24.78v7.25c-.57-.06-1.14-.09-1.72-.08-8.04,0-13.04,4.92-13.04,13.97v20.61h-7.48V25.17h7.18v6.95c2.66-4.84,7.82-7.34,15.07-7.34"/></g><g id="Path_168"><path class="cls-1" d="M279.62,64.13c-2.59,1.98-5.79,3-9.05,2.89-8.35,0-13.11-4.61-13.11-12.96V31.34h-7.03v-6.17h7.02v-9.05h7.48v9.05h11.87v6.17h-11.87v22.4c-.48,3.33,1.84,6.42,5.17,6.9,.43,.06,.87,.08,1.31,.05,2.12,.02,4.18-.66,5.86-1.95l2.36,5.39Z"/></g><g id="Path_169"><path class="cls-1" d="M324.52,25.17l-20.06,45.51c-3.67,8.74-8.43,11.48-14.75,11.48-3.89,.1-7.68-1.27-10.61-3.83l3.2-5.62c1.97,1.95,4.64,3.05,7.42,3.06,3.59,0,5.86-1.64,7.88-6.4l1.33-2.89-18.27-41.3h7.82l14.42,33.09,14.28-33.1h7.34Z"/></g><g id="Path_170"><path class="cls-1" d="M30.21,90.2v43.48h-13.89v-43.48H0v-11.24H46.68v11.24H30.21Z"/></g><g id="Path_171"><path class="cls-1" d="M102.86,110.73c0,14.44-9.6,23.58-24.9,23.58s-25.22-9.13-25.22-23.58v-31.69h13.9v31.69c-.52,6.06,3.97,11.39,10.03,11.91,.46,.04,.91,.05,1.37,.03,6.56,0,11.01-4.53,11.01-11.94v-31.69h13.82v31.69Z"/></g><g id="Path_172"><path class="cls-1" d="M133.8,118.31h-10.93v15.38h-13.9v-54.65h24.43c14.44,0,22.72,6.87,22.72,19.04,.54,7.32-3.37,14.24-9.91,17.57l11.48,18.02h-15.77l-8.12-15.36Zm-.39-10.93c6.01,0,9.52-3.06,9.52-8.82s-3.51-8.59-9.52-8.59h-10.54v17.41h10.54Z"/></g><g id="Path_173"><path class="cls-1" d="M184.84,112.21l-7.26,8.04v13.43h-13.89v-54.64h13.9v23.66l20.92-23.66h16.08l-20.3,22.64,21.63,32.01h-16.63l-14.45-21.47Z"/></g><g id="Path_174"><path class="cls-1" d="M233.48,89.97v10.85h26.08v10.93h-26.08v11.01h29.74v10.93h-43.64v-54.64h42.78v10.93h-28.88Z"/></g><g id="Path_175"><path class="cls-1" d="M299.12,133.68h-13.82v-17.25l-20.22-37.4h13.9l13.19,23.8,12.88-23.8h13.9l-19.83,37v17.65Z"/></g></g><g class="cls-2"><path class="cls-1" d="M394.11,55.64c.76,0,1.38-1,2.33-9.1l1.62-13.76c-2.57-.19-3.24-.62-3.43-1.48l-.1-.43,3.77-.14c.66-5.1,3.52-8.67,7.14-8.67,2,0,3.57,1.05,3.57,2.43,0,.47-.29,1.24-.57,1.76h-.05c-1.76-1.24-3.48-2.05-4.62-2.05-1.24,0-1.76,1.1-2.28,6.52h4.33l-.52,2.14h-4l-1.38,11.24c-.86,6.86-2,9.81-3.38,11.43-1.33,1.67-2.67,2.1-4.05,2.1-2.48,0-4.34-.9-4.34-2.1,0-.76,.48-1.62,1.29-2.05,1,1.05,3.24,2.15,4.67,2.15Z"/></g><g class="cls-2"><path class="cls-1" d="M415.07,30.35c3.71,0,6.24,2.62,6.24,7.15,0,7.38-4.9,12.19-9.43,12.19-3.71,0-6.24-2.62-6.24-7.15,0-7.38,4.9-12.19,9.43-12.19Zm2.67,8.1c0-4.19-1.62-5.95-3.57-5.95-2.76,0-4.95,3.28-4.95,9.09,0,4.19,1.62,5.95,3.57,5.95,2.76,0,4.95-3.28,4.95-9.09Z"/></g><g class="cls-2"><path class="cls-1" d="M425.87,40.73c.34-2.19,.67-4.67,.67-6,0-.62-.1-1.29-.24-1.52-.38-.29-1.19-.48-2.76-.48l-.38-1.1c1.24-.66,3.43-1.29,4.52-1.29s1.86,1.05,1.86,6h.05c1.48-3.57,4.14-6,5.53-6,1.05,0,1.76,1.38,1.81,3.67-4.67,.29-7.1,2.19-8.05,7.62-.43,2.62-.47,4.29-.47,7.67l-3.86,.38,1.33-8.96Z"/></g><g class="cls-2"><path class="cls-1" d="M451.57,22.06c.67,.34,1.05,.72,1.33,1.38l-2.38,15.72c-.47,3-.76,4.67-.76,5.9,0,1.1,.38,1.67,1,1.91,.67,0,1.91-.33,2.52-.62l.39,1.1c-1.19,1.09-3,2-4.48,2.24-1.48-.43-2.57-1.91-2.57-3.67,0-1.33,.67-5.43,1.33-9.67,.67-4.14,1.33-8.33,1.33-10.14,0-1.1-.57-1.43-1.43-1.43-.76,0-1.57,.14-2.05,.33l-.57-1.14c2-1.19,4.29-1.91,6.34-1.91Z"/></g><g class="cls-2"><path class="cls-1" d="M459.66,30.35c1.1,0,2.1,1.19,2.1,3.43,0,1.14-.29,3.09-.71,5.24-.57,2.62-1,4.81-1,6.05,0,1.1,.38,1.67,1,1.91,.67,0,1.91-.33,2.52-.62l.38,1.1c-1.19,1.09-3,2-4.48,2.24-1.48-.43-2.57-1.91-2.57-3.67,0-1.33,.38-3.14,.76-5.09,.38-1.96,.86-4.62,.86-6.19,0-.62-.14-1.29-.29-1.52-.38-.29-1.19-.48-2.76-.52l-.38-1.05c1.29-.66,3.48-1.29,4.57-1.29Zm1.81-7.1c.81,0,1.62,.67,1.62,1.81,0,1.24-.67,2.48-2.29,2.48-.81,0-1.62-.57-1.62-1.81s.81-2.48,2.28-2.48Z"/></g><g class="cls-2"><path class="cls-1" d="M465.33,55.64c.76,0,1.38-1,2.33-9.1l1.62-13.76c-2.57-.19-3.24-.62-3.43-1.48l-.1-.43,3.77-.14c.66-5.1,3.52-8.67,7.14-8.67,2,0,3.57,1.05,3.57,2.43,0,.47-.29,1.24-.57,1.76h-.05c-1.76-1.24-3.48-2.05-4.62-2.05-1.24,0-1.76,1.1-2.28,6.52h4.33l-.52,2.14h-4l-1.38,11.24c-.86,6.86-2,9.81-3.38,11.43-1.33,1.67-2.67,2.1-4.05,2.1-2.48,0-4.34-.9-4.34-2.1,0-.76,.48-1.62,1.29-2.05,1,1.05,3.24,2.15,4.67,2.15Z"/></g><g class="cls-2"><path class="cls-1" d="M488.9,47.02c-2.1,1.71-4.86,2.67-6.62,2.67-3.24,0-5.76-2.29-5.76-6.29,0-6.52,4.72-13.05,9.95-13.05,2.24,0,3.76,1.38,3.76,3.48,0,3.62-4,6.15-10.24,7.24-.05,.24-.05,.38-.05,1.05,0,3.38,1.43,4.62,4.19,4.62,1.24,0,3.05-.29,4.38-.86l.38,1.15Zm-2.1-12.62c0-1.38-.71-1.9-1.71-1.9-2,0-4.57,3.05-4.95,6.95,4.72-1,6.67-2.72,6.67-5.05Z"/></g><g class="cls-2"><path class="cls-1" d="M493.56,42.64c.33,2.76,2.38,4.67,4.9,4.67,1.67,0,2.62-.86,2.62-1.96,0-1-.67-1.86-3.81-4.33-2.67-2.14-3.09-3.29-3.09-4.76,0-2.43,3.48-5.91,6.38-5.91,2.29,0,3.67,1.38,3.67,2.72,0,.71-.57,1.47-1.29,1.86-1-1.29-2.33-2-3.76-2s-2.62,.95-2.62,1.81,.57,1.57,3.29,3.67c3.14,2.48,3.86,3.67,3.86,5.14,0,3-3.05,6.15-6.95,6.15-3.19,0-5.29-1.86-5.29-3.95,0-1.38,.72-2.48,2.05-3.14l.05,.05Z"/></g><g class="cls-2"><path class="cls-1" d="M513.7,25.58l-.71,5.14h4.24l-.52,2.14h-4c-1.38,8.91-1.57,10.91-1.57,12.24,0,1.24,.48,1.81,1.48,1.81,1.1,0,2.48-.38,3.76-1.05l.38,1.15c-1.57,1.43-3.95,2.67-5.76,2.67-1.91,0-3.24-1.24-3.24-3.53,0-1.19,.19-2.62,.47-4.52l1.24-8.86c-2.24-.19-2.81-.62-2.95-1.48l-.1-.43,3.29-.1,.62-3.86,3.38-1.33Z"/></g><g class="cls-2"><path class="cls-1" d="M518.69,31.63c1.24-.66,3.43-1.29,4.53-1.29s2.15,.76,2.15,6.05c0,1.95-.19,3.86-.19,6.14,0,2.86,.48,4.19,1.38,4.19,.95,0,2.24-1.24,3.14-3.33,1.05-2.43,2.71-7.43,3.33-10.14-.34-.19-1.48-.43-2.48-.52l-.38-1.1c1-.52,1.95-.95,2.81-1.14,.43-.09,.86-.14,1.24-.14,1.19,0,1.91,.91,1.91,2.43,0,1.29-.47,3.09-2.71,8.81-5.05,12.67-8,16.05-12.43,16.05-2.1,0-4.14-.81-4.14-2.1,0-.81,.52-1.67,1.29-2.05,1.29,1.24,3.62,2,5.29,2,1.1,0,3-2.72,5-7.96l-.14-.05c-1,.86-2.05,1.52-3.19,1.52-1.76,0-2.95-1.57-2.95-5.86,0-1.24,.05-2.48,.05-6.1,0-1.48-.19-3.14-.48-3.86-.38-.29-1.05-.48-2.62-.48l-.38-1.1Z"/></g><g class="cls-2"><path class="cls-1" d="M543.4,22.06c.67,.34,1.05,.72,1.33,1.38l-2.38,15.72c-.48,3-.76,4.67-.76,5.9,0,1.1,.38,1.67,1,1.91,.67,0,1.91-.33,2.52-.62l.38,1.1c-1.19,1.09-3,2-4.48,2.24-1.48-.43-2.57-1.91-2.57-3.67,0-1.33,.67-5.43,1.33-9.67,.67-4.14,1.33-8.33,1.33-10.14,0-1.1-.57-1.43-1.43-1.43-.76,0-1.57,.14-2.05,.33l-.57-1.14c2-1.19,4.29-1.91,6.34-1.91Z"/></g><g class="cls-2"><path class="cls-1" d="M560.11,47.02c-2.1,1.71-4.86,2.67-6.62,2.67-3.24,0-5.76-2.29-5.76-6.29,0-6.52,4.72-13.05,9.95-13.05,2.24,0,3.77,1.38,3.77,3.48,0,3.62-4,6.15-10.24,7.24-.05,.24-.05,.38-.05,1.05,0,3.38,1.43,4.62,4.19,4.62,1.24,0,3.05-.29,4.38-.86l.38,1.15Zm-2.1-12.62c0-1.38-.71-1.9-1.72-1.9-2,0-4.57,3.05-4.95,6.95,4.72-1,6.67-2.72,6.67-5.05Z"/></g><g class="cls-2"><path class="cls-1" d="M413.26,71.43c0,1.86-1.43,4.14-8.81,7.86l-5.48,2.76c1.15,4.33,4.14,6.38,7.72,6.38,4.67,0,7.96-3.52,8.72-8.76-.57-.43-1.62-.76-2.48-.76-1.19,0-1.81,.62-2.33,2.15l-.81-.57c.57-2.91,2-4.1,3.86-4.1,1.15,0,2.15,.47,3.05,.86,1.1,.48,1.86,.71,2.67,.71,1.52,0,2.19-.9,2.19-2.48l.95,.34c.34,2.95-1.24,4.86-3.38,4.86-.81,0-1.62-.19-2.24-.48-1.1,6.15-5.1,10.38-11.62,10.38-6.15,0-10-3.76-10-9.67s3.62-9.77,8-9.77c2.53,0,3.81,1.38,3.81,3.1,0,.76-.24,1.67-.91,2.47,3.29-2.24,4.57-4.05,5.34-7.57,1,.19,1.81,1.14,1.76,2.28Zm-12.57,8.38c2.28-1.14,3.48-3,3.48-4.91,0-1.38-.67-2.14-1.71-2.14-1.91,0-3.91,2.33-3.91,6.29,0,.62,.05,1.33,.14,1.76l2-1Z"/></g><g class="cls-2"><path class="cls-1" d="M435.67,71.15c1.1,0,2.1,1.19,2.1,3.43,0,1.14-.29,3.09-.72,5.24-.57,2.62-1,4.81-1,6.05,0,1.1,.38,1.67,1,1.91,.67,0,1.91-.33,2.52-.62l.38,1.1c-1.19,1.09-3,2-4.48,2.24-1.48-.43-2.57-1.91-2.57-3.67,0-1.33,.38-3.14,.76-5.09,.38-1.96,.86-4.62,.86-6.19,0-.62-.14-1.29-.29-1.52-.38-.29-1.19-.48-2.76-.52l-.38-1.05c1.29-.66,3.48-1.29,4.57-1.29Zm1.81-7.1c.81,0,1.62,.67,1.62,1.81,0,1.24-.67,2.48-2.29,2.48-.81,0-1.62-.57-1.62-1.81s.81-2.48,2.29-2.48Z"/></g><g class="cls-2"><path class="cls-1" d="M444.1,81.53c.52-3.52,.66-4.67,.66-6,0-.62-.09-1.29-.24-1.52-.38-.29-1.19-.48-2.76-.48l-.38-1.1c1.24-.66,3.43-1.29,4.52-1.29s1.86,1.05,1.86,6h.09c2.52-4.05,4.86-6,6.95-6,1.91,0,3.38,1.57,3.38,4.19,0,1.24-.38,3.43-.76,5.19-.39,2-.86,4.09-.86,5.33,0,1.1,.38,1.67,1,1.91,.67,0,1.91-.33,2.52-.62l.39,1.1c-1.19,1.09-3,2-4.48,2.24-1.48-.43-2.57-1.91-2.57-3.67,0-1.33,.34-3,.76-5.09,.38-1.96,.67-4,.67-5.43,0-1.19-.29-2.14-.71-2.43-2.1,.19-6.34,4.38-7.05,8.57-.43,2.62-.47,4.29-.47,7.67l-3.86,.38,1.33-8.96Z"/></g><g class="cls-2"><path class="cls-1" d="M460.8,72.43c1.24-.66,3.43-1.29,4.53-1.29s2.14,.76,2.14,6.05c0,1.95-.19,3.86-.19,6.14,0,4,.43,4.86,1.19,4.86,2.15,0,6-6.19,6.29-14.15-.33-.19-1.09-.38-2.1-.52l-.38-1.1c1.47-.81,2.9-1.29,4.04-1.29,1.33,0,1.91,.91,1.91,2.43,0,7-6.05,16.91-10.86,16.91-2.24,0-3.14-1.15-3.14-6.52,0-1.24,.05-2.48,.05-6.1,0-1.48-.19-3.14-.48-3.86-.38-.29-1.05-.48-2.62-.48l-.39-1.1Z"/></g><g class="cls-2"><path class="cls-1" d="M491.99,87.82c-2.09,1.71-4.85,2.67-6.62,2.67-3.24,0-5.76-2.29-5.76-6.29,0-6.52,4.72-13.05,9.95-13.05,2.24,0,3.76,1.38,3.76,3.48,0,3.62-4,6.15-10.24,7.24-.05,.24-.05,.38-.05,1.05,0,3.38,1.43,4.62,4.19,4.62,1.24,0,3.05-.29,4.38-.86l.38,1.15Zm-2.09-12.62c0-1.38-.72-1.9-1.72-1.9-2,0-4.57,3.05-4.95,6.95,4.72-1,6.67-2.72,6.67-5.05Z"/></g><g class="cls-2"><path class="cls-1" d="M496.65,83.44c.33,2.76,2.38,4.67,4.9,4.67,1.67,0,2.62-.86,2.62-1.96,0-1-.66-1.86-3.81-4.33-2.66-2.14-3.09-3.29-3.09-4.76,0-2.43,3.48-5.91,6.38-5.91,2.29,0,3.67,1.38,3.67,2.72,0,.71-.57,1.47-1.29,1.86-1-1.29-2.34-2-3.77-2s-2.62,.95-2.62,1.81,.57,1.57,3.28,3.67c3.14,2.48,3.86,3.67,3.86,5.14,0,3-3.05,6.15-6.95,6.15-3.19,0-5.29-1.86-5.29-3.95,0-1.38,.72-2.48,2.05-3.14l.05,.05Z"/></g><g class="cls-2"><path class="cls-1" d="M516.79,66.39l-.71,5.14h4.24l-.52,2.14h-4c-1.38,8.91-1.57,10.91-1.57,12.24,0,1.24,.48,1.81,1.48,1.81,1.1,0,2.48-.38,3.76-1.05l.38,1.15c-1.57,1.43-3.95,2.67-5.76,2.67-1.91,0-3.24-1.24-3.24-3.53,0-1.19,.19-2.62,.47-4.52l1.24-8.86c-2.24-.19-2.81-.62-2.95-1.48l-.1-.43,3.29-.1,.62-3.86,3.38-1.33Z"/></g><g class="cls-2"><path class="cls-1" d="M524.78,81.53c.62-4.05,.67-4.67,.67-6,0-.62-.1-1.29-.24-1.52-.39-.29-1.2-.48-2.76-.48l-.39-1.1c1.24-.66,3.43-1.29,4.53-1.29s1.85,1.05,1.85,6h.1c2.43-4.24,4.95-6,6.81-6,2.43,0,3.15,2.05,3.15,4.53,0,.47-.05,.95-.1,1.47h.1c2.33-4.19,4.72-6,6.33-6,2.1,0,3.57,1.57,3.57,4.19,0,1.24-.38,3.43-.76,5.19-.43,2-.86,4.09-.86,5.33,0,1.1,.38,1.67,1,1.91,.67,0,1.91-.33,2.52-.62l.39,1.1c-1.2,1.09-3,2-4.48,2.24-1.48-.43-2.57-1.91-2.57-3.67,0-1.33,.34-3,.76-5.09,.38-1.96,.66-4,.66-5.43,0-1.19-.29-2.14-.71-2.43-1.57,.14-5.86,4.38-6.57,8.57-.43,2.62-.48,4.29-.48,7.67l-3.86,.38,1.33-8.96c.29-1.86,.67-4.33,.67-5.24,0-1.19-.29-2.14-.72-2.43-1.81,.19-6.24,4.38-6.95,8.57-.43,2.62-.48,4.29-.43,7.67l-3.91,.38,1.33-8.96Z"/></g><g class="cls-2"><path class="cls-1" d="M565.2,87.82c-2.1,1.71-4.86,2.67-6.62,2.67-3.24,0-5.76-2.29-5.76-6.29,0-6.52,4.72-13.05,9.95-13.05,2.24,0,3.77,1.38,3.77,3.48,0,3.62-4,6.15-10.24,7.24-.05,.24-.05,.38-.05,1.05,0,3.38,1.43,4.62,4.19,4.62,1.24,0,3.05-.29,4.38-.86l.38,1.15Zm-2.1-12.62c0-1.38-.71-1.9-1.72-1.9-2,0-4.57,3.05-4.95,6.95,4.72-1,6.67-2.72,6.67-5.05Z"/></g><g class="cls-2"><path class="cls-1" d="M571.1,81.53c.52-3.52,.67-4.67,.67-6,0-.62-.1-1.29-.24-1.52-.38-.29-1.19-.48-2.76-.48l-.38-1.1c1.24-.66,3.43-1.29,4.53-1.29s1.86,1.05,1.86,6h.1c2.52-4.05,4.86-6,6.95-6,1.91,0,3.38,1.57,3.38,4.19,0,1.24-.38,3.43-.76,5.19-.38,2-.86,4.09-.86,5.33,0,1.1,.38,1.67,1,1.91,.67,0,1.91-.33,2.52-.62l.38,1.1c-1.19,1.09-3,2-4.48,2.24-1.48-.43-2.57-1.91-2.57-3.67,0-1.33,.34-3,.76-5.09,.38-1.96,.67-4,.67-5.43,0-1.19-.29-2.14-.71-2.43-2.1,.19-6.34,4.38-7.05,8.57-.43,2.62-.48,4.29-.48,7.67l-3.86,.38,1.33-8.96Z"/></g><g class="cls-2"><path class="cls-1" d="M596.48,66.39l-.71,5.14h4.24l-.52,2.14h-4c-1.38,8.91-1.57,10.91-1.57,12.24,0,1.24,.48,1.81,1.48,1.81,1.1,0,2.48-.38,3.76-1.05l.38,1.15c-1.57,1.43-3.95,2.67-5.76,2.67-1.91,0-3.24-1.24-3.24-3.53,0-1.19,.19-2.62,.47-4.52l1.24-8.86c-2.24-.19-2.81-.62-2.95-1.48l-.1-.43,3.29-.1,.62-3.86,3.38-1.33Z"/></g><g class="cls-2"><path class="cls-1" d="M395.74,124.24c.33,2.76,2.38,4.67,4.9,4.67,1.67,0,2.62-.86,2.62-1.96,0-1-.66-1.86-3.81-4.33-2.67-2.14-3.09-3.29-3.09-4.76,0-2.43,3.48-5.91,6.38-5.91,2.28,0,3.67,1.38,3.67,2.72,0,.71-.57,1.47-1.29,1.86-1-1.29-2.33-2-3.76-2s-2.62,.95-2.62,1.81,.57,1.57,3.28,3.67c3.14,2.48,3.86,3.67,3.86,5.14,0,3-3.05,6.15-6.95,6.15-3.19,0-5.29-1.86-5.29-3.95,0-1.38,.71-2.48,2.05-3.14l.05,.05Z"/><path class="cls-1" d="M412.87,111.95c1.1,0,2.1,1.19,2.1,3.43,0,1.14-.29,3.09-.72,5.24-.57,2.62-1,4.81-1,6.05,0,1.1,.38,1.67,1,1.91,.67,0,1.91-.33,2.53-.62l.38,1.1c-1.19,1.09-3,2-4.48,2.24-1.48-.43-2.57-1.91-2.57-3.67,0-1.33,.38-3.14,.76-5.09,.38-1.96,.86-4.62,.86-6.19,0-.62-.14-1.29-.29-1.52-.38-.29-1.19-.48-2.76-.52l-.38-1.05c1.29-.66,3.48-1.29,4.57-1.29Zm1.81-7.1c.81,0,1.62,.67,1.62,1.81,0,1.24-.67,2.48-2.28,2.48-.81,0-1.62-.57-1.62-1.81s.81-2.48,2.29-2.48Z"/><path class="cls-1" d="M421.87,122.33c.52-3.52,.66-4.67,.66-6,0-.62-.09-1.29-.24-1.52-.38-.29-1.19-.48-2.76-.48l-.38-1.1c1.24-.66,3.43-1.29,4.53-1.29s1.86,1.05,1.86,6h.1c2.52-4.05,4.86-6,6.95-6,1.91,0,3.38,1.57,3.38,4.19,0,1.24-.38,3.43-.76,5.19-.38,2-.86,4.09-.86,5.33,0,1.1,.38,1.67,1,1.91,.67,0,1.91-.33,2.52-.62l.38,1.1c-1.19,1.09-3,2-4.48,2.24-1.47-.43-2.57-1.91-2.57-3.67,0-1.33,.33-3,.76-5.09,.38-1.96,.67-4,.67-5.43,0-1.19-.29-2.14-.71-2.43-2.1,.19-6.34,4.38-7.05,8.57-.43,2.62-.47,4.29-.47,7.67l-3.86,.38,1.33-8.96Z"/><path class="cls-1" d="M453.24,128.62c-2.1,1.71-4.86,2.67-6.62,2.67-3.24,0-5.76-2.29-5.76-6.29,0-7.34,5.14-13.05,9.86-13.05,2.19,0,3.29,1.1,3.29,2.24,0,.91-.48,1.76-1.38,2.33-1.33-1.52-2.38-2.14-3.48-2.14-1.19,0-2.29,.52-3,1.71-.95,1.52-1.86,4.29-1.86,7.38,0,3.77,1.67,4.86,4.19,4.86,1.24,0,3.05-.29,4.38-.86l.38,1.15Z"/><path class="cls-1" d="M468,128.62c-2.1,1.71-4.86,2.67-6.62,2.67-3.24,0-5.76-2.29-5.76-6.29,0-6.52,4.72-13.05,9.95-13.05,2.24,0,3.76,1.38,3.76,3.48,0,3.62-4,6.15-10.24,7.24-.05,.24-.05,.38-.05,1.05,0,3.38,1.43,4.62,4.19,4.62,1.24,0,3.05-.29,4.38-.86l.38,1.15Zm-2.1-12.62c0-1.38-.71-1.9-1.71-1.9-2,0-4.57,3.05-4.95,6.95,4.72-1,6.67-2.72,6.67-5.05Z"/><path class="cls-1" d="M480.9,113.76c0-1.95,3.14-4.81,7.38-4.81,3.86,0,6.43,2.24,6.43,5.9,0,3.33-2.81,7.62-9.91,12.29,1.67,.67,3.95,1.14,5.81,1.14s3.19-.81,4.24-2.05l.19,.05c-.62,3.81-2.1,5.24-4.43,5.24-2.95,0-5.14-1.76-7.34-1.76-1.33,0-2.76,.76-3.95,1.62l-.95-1.33c9.76-7.19,12.86-10.95,12.95-14.91,.05-2.81-1.38-4.29-2.81-4.29-1.81,0-4.33,2.29-5.76,5.19,0,0-1.86-1-1.86-2.29Z"/><path class="cls-1" d="M499.08,122.38c0-7.05,4.57-13.43,10.72-13.43,4.53,0,7.57,3.43,7.57,9.29,0,6.86-4.14,13.14-10.62,13.14-4.81,0-7.67-3.52-7.67-9Zm14.48-4.33c0-4.86-1.62-6.95-4.14-6.95-4.09,0-6.52,5.76-6.52,11.24,0,4.95,1.91,6.91,4.33,6.91,4.1,0,6.34-5.48,6.34-11.19Z"/><path class="cls-1" d="M521.4,122.38c0-7.05,4.57-13.43,10.72-13.43,4.52,0,7.57,3.43,7.57,9.29,0,6.86-4.14,13.14-10.62,13.14-4.81,0-7.67-3.52-7.67-9Zm14.48-4.33c0-4.86-1.62-6.95-4.14-6.95-4.1,0-6.52,5.76-6.52,11.24,0,4.95,1.9,6.91,4.33,6.91,4.1,0,6.34-5.48,6.34-11.19Z"/><path class="cls-1" d="M544.3,129.62c3.29-.43,4.14-1.19,4.48-3.24l2.05-13.38-6.81,4.48-1-1.48,10.67-7.05,.95,.38-2.81,19.43,4.05,.86-.33,1.29h-11.58l.34-1.29Z"/></g><rect class="cls-1" x="353.62" width="3.4" height="153.01"/></g></g></svg>