<?xml version="1.0" encoding="UTF-8"?><svg id="Layer_2" xmlns="http://www.w3.org/2000/svg" viewBox="0 0 500 316.66"><defs><style>.cls-1{fill:#ea2427;}</style></defs><g id="Layer_1-2"><g><path class="cls-1" d="M14.76,58.7h20.81c21.89,0,35.12-11.07,35.12-29.35S57.45,0,35.56,0H2.73V84.2H14.76v-25.5Zm0-48.23h20.45c15.4,0,23.45,6.86,23.45,18.88s-8.06,18.88-23.45,18.88H14.76V10.46Z"/><path class="cls-1" d="M93.26,52.44c0-13.95,7.7-21.53,20.09-21.53,.84,0,1.68,0,2.65,.12v-11.19c-11.19,0-19.12,3.85-23.21,11.31v-10.7h-11.07v63.75h11.55v-31.75Z"/><path class="cls-1" d="M152.59,84.92c19.12,0,33.08-13.59,33.08-32.6s-13.95-32.48-33.08-32.48-33.2,13.47-33.2,32.48,14.07,32.6,33.2,32.6Zm0-54.97c12.27,0,21.41,8.78,21.41,22.37s-9.14,22.49-21.41,22.49-21.53-8.9-21.53-22.49,9.26-22.37,21.53-22.37Z"/><path class="cls-1" d="M305.3,84.92c10.58,0,19.36-3.61,25.14-10.34l-6.37-7.46c-4.69,5.17-10.95,7.7-18.4,7.7-12.63,0-21.65-7.46-23.09-18.64h51.72c.12-1.08,.24-2.53,.24-3.49,0-19.61-13.11-32.84-31.51-32.84s-31.99,13.59-31.99,32.48,13.71,32.6,34.28,32.6Zm-2.29-55.33c11.19,0,19.24,7.58,20.45,18.28h-40.89c1.2-10.83,9.38-18.28,20.45-18.28Z"/><path class="cls-1" d="M357.8,52.44c0-13.95,7.7-21.53,20.09-21.53,.84,0,1.68,0,2.65,.12v-11.19c-11.19,0-19.12,3.85-23.21,11.31v-10.7h-11.07v63.75h11.55v-31.75Z"/><path class="cls-1" d="M396.66,64.95c0,12.87,7.34,19.97,20.21,19.97,5.17,0,10.46-1.44,13.95-4.45l-3.61-8.3c-2.41,1.92-5.65,3.01-9.02,3.01-6.37,0-9.98-3.85-9.98-10.7V29.95h18.28v-9.5h-18.28V6.49h-11.55v13.95h-10.83v9.5h10.83v35Z"/><path class="cls-1" d="M458.5,88.53c-3.13,7.34-6.62,9.86-12.15,9.86-4.33,0-8.3-1.68-11.43-4.69l-4.93,8.66c3.97,3.85,10.22,5.89,16.36,5.89,9.74,0,17.08-4.21,22.73-17.68l30.91-70.12h-11.31l-22.01,51-22.25-51h-12.03l28.15,63.63-2.04,4.45Z"/><polygon class="cls-1" points="0 120.64 25.14 120.64 25.14 187.64 46.55 187.64 46.55 120.64 71.93 120.64 71.93 103.32 0 103.32 0 120.64"/><path class="cls-1" d="M120.1,188.6c23.57,0,38.37-14.07,38.37-36.32v-48.83h-21.29v48.83c0,11.43-6.86,18.4-16.96,18.4s-17.56-6.98-17.56-18.4v-48.83h-21.41v48.83c0,22.25,15.16,36.32,38.85,36.32Z"/><path class="cls-1" d="M167.91,103.44v84.2h21.41v-23.69h16.84l12.51,23.69h24.3l-17.68-27.78c9.86-4.93,15.28-14.19,15.28-27.06,0-17.71-11.37-28.13-31.36-29.24v-28.97c5.29,6.86,13.23,10.34,22.25,10.34,18.64,0,32.23-12.99,32.23-32.6s-13.59-32.48-32.23-32.48c-9.38,0-17.56,3.61-22.73,10.7v-10.1h-11.07V103.44h-29.74Zm52.32,30.07c0,8.9-5.41,13.59-14.67,13.59h-16.24v-26.82h16.24c9.26,0,14.67,4.45,14.67,13.23Zm10.25-103.56c12.27,0,21.53,8.9,21.53,22.37s-9.26,22.49-21.53,22.49-21.41-8.9-21.41-22.49,9.26-22.37,21.41-22.37Z"/><polygon class="cls-1" points="307.05 187.64 332.67 187.64 299.35 138.32 330.62 103.44 305.84 103.44 273.61 139.88 273.61 103.44 252.2 103.44 252.2 187.64 273.61 187.64 273.61 166.95 284.79 154.56 307.05 187.64"/><polygon class="cls-1" points="405.55 170.8 359.73 170.8 359.73 153.84 399.9 153.84 399.9 137 359.73 137 359.73 120.28 404.23 120.28 404.23 103.44 338.32 103.44 338.32 187.64 405.55 187.64 405.55 170.8"/><polygon class="cls-1" points="450.16 140.13 429.84 103.44 408.43 103.44 439.58 161.05 439.58 187.64 460.87 187.64 460.87 160.45 491.42 103.44 470.01 103.44 450.16 140.13"/><path class="cls-1" d="M28.3,244.03c.56-6.16,1.18-7.5,2.52-7.5s3.36,1.23,5.38,2.97h.11c.56-.78,1.06-1.9,1.06-2.52,0-1.74-1.9-3.08-4.59-3.08-4.48,0-8.01,3.86-8.96,10.14l-4.42,.17,.11,.56c.22,1.06,1.12,1.74,3.98,1.9l-2.02,17.14c-.95,8.23-1.62,9.35-2.46,9.35-1.68,0-4.14-1.34-5.43-2.8-1.18,.62-1.85,1.68-1.85,2.69,0,1.57,2.24,2.69,5.15,2.69,1.96,0,3.86-.73,5.49-2.8,1.74-2.13,3.08-5.49,3.98-12.49l1.74-13.66h4.59l.67-2.74h-5.04Z"/><path class="cls-1" d="M44.49,243.58c-5.66,0-11.48,5.71-11.48,14.28,0,5.26,3.14,8.51,7.67,8.51,5.66,0,11.48-5.71,11.48-14.28,0-5.26-3.19-8.51-7.67-8.51Zm-2.63,20.05c-2.13,0-3.86-2.07-3.86-6.83,0-6.78,2.3-10.47,5.26-10.47,2.18,0,3.92,2.07,3.92,6.83,0,6.83-2.35,10.47-5.32,10.47Z"/><path class="cls-1" d="M68.3,243.58c-1.74,0-4.7,2.69-6.33,7.11h-.06c0-5.6-1.01-7.11-2.58-7.11-1.34,0-3.75,.73-5.38,1.57l.5,1.4c1.85,0,2.74,.22,3.14,.56,.11,.17,.22,1.01,.22,1.79,0,1.46-.28,4.09-.73,7l-1.62,10.47,5.38-.45c-.06-4.76,.06-7.06,.62-9.8,1.12-5.43,3.92-7.5,9.24-7.84-.06-2.91-1.01-4.7-2.41-4.7Z"/><path class="cls-1" d="M87.23,263.02c-.62-.34-.95-.95-.95-2.13,0-1.29,.28-3.14,.78-6.22l2.97-19.04c-.39-.78-.95-1.34-1.85-1.74-2.69,0-5.43,.84-7.78,2.3l.78,1.57c.62-.28,1.57-.45,2.35-.45,.84,0,1.4,.34,1.4,1.51,0,2.13-.73,7-1.57,11.87-.78,4.87-1.57,9.58-1.57,11.2,0,2.24,1.34,4.03,3.36,4.48,2.02-.28,4.26-1.4,5.71-2.74l-.56-1.51c-.78,.39-2.24,.84-3.08,.9Z"/><path class="cls-1" d="M96.96,238.1c0,1.51,1.01,2.41,2.24,2.41,2.02,0,2.91-1.51,2.91-3.14,0-1.46-1.01-2.41-2.18-2.41-1.74,0-2.97,1.51-2.97,3.14Z"/><path class="cls-1" d="M103.29,263.63l-.56-1.57c-.84,.45-2.24,.9-3.08,.95-.62-.34-.95-.95-.95-2.13,0-1.34,.45-3.75,1.12-6.83,.5-2.52,.84-4.82,.84-6.27,0-2.74-1.29-4.2-2.97-4.2-1.4,0-4.03,.78-5.54,1.62l.45,1.34c1.74,0,2.74,.22,3.25,.5,.11,.28,.28,1.06,.28,1.74,0,1.85-.56,4.98-1.01,7.22-.5,2.41-.9,4.48-.9,5.88,0,2.24,1.4,3.98,3.3,4.48,2.07-.28,4.31-1.4,5.77-2.74Z"/><path class="cls-1" d="M118.84,244.03h-5.04c.56-6.16,1.18-7.5,2.52-7.5s3.36,1.23,5.38,2.97h.11c.56-.78,1.06-1.9,1.06-2.52,0-1.74-1.9-3.08-4.59-3.08-4.48,0-8.01,3.86-8.96,10.14l-4.42,.17,.11,.56c.22,1.06,1.12,1.74,3.98,1.9l-2.02,17.14c-.95,8.23-1.62,9.35-2.46,9.35-1.68,0-4.14-1.34-5.43-2.8-1.18,.62-1.85,1.68-1.85,2.69,0,1.57,2.24,2.69,5.15,2.69,1.96,0,3.86-.73,5.49-2.8,1.74-2.13,3.08-5.49,3.98-12.49l1.74-13.66h4.59l.67-2.74Z"/><path class="cls-1" d="M135.19,248.01c0-2.69-2.02-4.42-4.87-4.42-6.44,0-12.15,7.67-12.15,15.18,0,4.82,3.08,7.62,7.17,7.62,2.3,0,5.6-1.06,8.18-3.08l-.62-1.57c-1.46,.62-3.58,1.01-5.15,1.01-3.08,0-4.76-1.46-4.76-5.21,0-.67,0-.73,.06-1.01,7.84-1.18,12.15-4.54,12.15-8.51Zm-6.55-1.74c1.12,0,1.9,.67,1.9,2.3,0,2.74-2.13,4.87-7.34,5.99,.45-4.87,3.19-8.29,5.43-8.29Z"/><path class="cls-1" d="M147.08,252.94c-3.3-2.41-4.03-3.25-4.03-4.26,0-.95,1.23-1.96,2.8-1.96,1.68,0,3.36,1.01,4.54,2.74,1.18-.5,1.9-1.51,1.9-2.58,0-1.68-1.9-3.3-4.76-3.3-3.81,0-7.9,4.03-7.9,7.06,0,1.85,.62,3.25,3.86,5.77,3.75,2.86,4.59,3.81,4.59,4.93,0,1.23-1.06,2.18-2.91,2.18-3.02,0-5.49-2.35-5.88-5.71l-.11-.06c-1.68,.84-2.69,2.24-2.69,3.92,0,2.46,2.52,4.76,6.61,4.76,4.87,0,8.62-3.58,8.62-7.28,0-1.85-.9-3.36-4.65-6.22Z"/><path class="cls-1" d="M167.7,246.78l.67-2.74h-5.04l.9-6.22-4.87,1.9-.67,4.42-3.98,.11,.11,.56c.17,.95,.84,1.62,3.53,1.85l-1.4,9.91c-.39,2.35-.56,4.09-.56,5.43,0,2.8,1.62,4.37,4.26,4.37,2.24,0,5.15-1.46,7.06-3.14l-.56-1.57c-1.46,.73-3.14,1.18-4.37,1.18-1.12,0-1.68-.62-1.68-2.13s.28-3.81,1.85-13.94h4.76Z"/><path class="cls-1" d="M187.44,257.92c2.91-6.89,3.64-9.58,3.64-11.31s-.78-2.8-2.13-2.91c-.45-.06-1.01-.06-1.51,.06-1.34,.17-2.74,.73-4.03,1.46l.45,1.34c1.06,.11,2.41,.34,2.91,.56-.67,3.36-2.35,8.57-3.64,11.59-1.06,2.63-2.52,4.03-3.58,4.03-.95,0-1.46-1.34-1.46-4.65,0-2.58,.22-4.93,.22-7.45,0-5.82-1.34-7.06-3.02-7.06-1.4,0-4.09,.78-5.49,1.62l.45,1.34c1.74,0,2.63,.22,3.08,.5,.39,1.01,.56,2.8,.56,4.48,0,3.7-.11,5.6-.11,7.17,0,5.04,1.57,6.94,3.75,6.94,1.4,0,2.69-.78,3.81-1.79l.22,.06c-2.24,5.71-4.54,9.13-5.77,9.13-1.96,0-4.82-1.12-6.44-2.69-.95,.5-1.68,1.62-1.68,2.69,0,1.57,2.41,2.69,4.98,2.69,5.26,0,8.96-3.64,14.78-17.81Z"/><path class="cls-1" d="M193.43,261.9c0,2.24,1.34,4.03,3.36,4.48,2.02-.28,4.26-1.4,5.71-2.74l-.56-1.51c-.78,.39-2.24,.84-3.08,.9-.62-.34-.95-.95-.95-2.13,0-1.29,.28-3.14,.78-6.22l2.97-19.04c-.39-.78-.95-1.34-1.85-1.74-2.69,0-5.43,.84-7.78,2.3l.78,1.57c.62-.28,1.57-.45,2.35-.45,.84,0,1.4,.34,1.4,1.51,0,2.13-.73,7-1.57,11.87-.78,4.87-1.57,9.58-1.57,11.2Z"/><path class="cls-1" d="M220.15,263.3l-.62-1.57c-1.46,.62-3.58,1.01-5.15,1.01-3.08,0-4.76-1.46-4.76-5.21,0-.67,0-.73,.06-1.01,7.84-1.18,12.15-4.54,12.15-8.51,0-2.69-2.02-4.42-4.87-4.42-6.44,0-12.15,7.67-12.15,15.18,0,4.82,3.08,7.62,7.17,7.62,2.3,0,5.6-1.06,8.18-3.08Zm-4.87-17.02c1.12,0,1.9,.67,1.9,2.3,0,2.74-2.13,4.87-7.34,5.99,.45-4.87,3.19-8.29,5.43-8.29Z"/><path class="cls-1" d="M259.18,254.5c.84,.39,1.85,.67,2.8,.67,2.41,0,4.26-2.3,3.92-5.82l-1.23-.45c-.06,1.79-.73,2.8-2.41,2.8-.9,0-1.74-.28-3.08-.84-1.12-.5-2.24-1.01-3.53-1.01-2.24,0-3.98,1.4-4.65,5.04l1.12,.67c.56-1.79,1.29-2.46,2.63-2.46,1.01,0,2.13,.34,2.69,.78-.95,5.88-4.59,9.69-9.8,9.69-4.26,0-7.5-2.35-8.85-7.22l6.5-3.19c8.29-4.14,9.97-6.89,9.97-9.18,.06-1.46-1.12-2.52-2.24-2.69-.84,4.03-2.41,6.44-5.99,8.9,.73-.9,1.01-1.96,1.01-2.86,0-2.18-1.57-3.75-4.65-3.75-5.26,0-9.58,4.87-9.58,11.54s4.54,11.37,11.76,11.37,12.15-4.59,13.61-11.98Zm-20.89-1.79c0-4.37,2.13-7,4.2-7,1.12,0,1.9,.84,1.9,2.52,0,2.18-1.29,4.31-3.98,5.66l-1.96,1.01c-.11-.5-.17-1.34-.17-2.18Z"/><path class="cls-1" d="M277.89,261.9c0,2.24,1.4,3.98,3.3,4.48,2.07-.28,4.31-1.4,5.77-2.74l-.56-1.57c-.84,.45-2.24,.9-3.08,.95-.62-.34-.95-.95-.95-2.13,0-1.34,.45-3.75,1.12-6.83,.5-2.52,.84-4.82,.84-6.27,0-2.74-1.29-4.2-2.97-4.2-1.4,0-4.03,.78-5.54,1.62l.45,1.34c1.74,0,2.74,.22,3.25,.5,.11,.28,.28,1.06,.28,1.74,0,1.85-.56,4.98-1.01,7.22-.5,2.41-.9,4.48-.9,5.88Z"/><path class="cls-1" d="M280.63,238.1c0,1.51,1.01,2.41,2.24,2.41,2.02,0,2.91-1.51,2.91-3.14,0-1.46-1.01-2.41-2.18-2.41-1.74,0-2.97,1.51-2.97,3.14Z"/><path class="cls-1" d="M311.6,263.63l-.56-1.51c-.78,.39-2.13,.84-2.97,.9-.67-.34-1.06-.95-1.06-2.13,0-1.4,.5-3.7,1.01-6.22,.45-2.18,.84-4.48,.84-5.88,0-3.19-1.9-5.21-4.31-5.21-2.63,0-5.43,2.41-8.18,7.11h-.11c0-5.6-1.01-7.11-2.58-7.11-1.4,0-4.03,.78-5.43,1.62l.45,1.34c1.85,0,2.86,.22,3.3,.56,.11,.22,.22,1.06,.22,1.79,0,1.46-.17,3.02-.84,7.11l-1.57,10.36,5.32-.45c0-4.65,.11-6.83,.84-9.86,.9-4.37,5.15-8.51,7.56-8.79,.45,.39,.73,1.34,.73,2.63,0,1.46-.39,3.86-.84,6.1-.5,2.52-.9,4.42-.9,5.94,0,2.18,1.4,3.86,3.36,4.42,2.02-.28,4.31-1.4,5.71-2.74Z"/><path class="cls-1" d="M319.72,266.38c5.94,0,13.27-11.7,13.27-19.77,0-1.96-.9-3.02-2.52-3.02s-3.42,.62-5.15,1.62l.45,1.34c.9,.17,2.13,.39,2.41,.56-.28,9.24-4.65,16.35-6.89,16.35-.84,0-1.29-.95-1.29-5.38,0-2.58,.22-4.93,.22-7.45,0-5.82-1.34-7.06-3.02-7.06-1.4,0-4.09,.78-5.49,1.62l.45,1.34c1.74,0,2.63,.22,3.08,.5,.39,1.01,.56,2.8,.56,4.48,0,3.7-.11,5.6-.11,7.17,0,6.27,1.23,7.67,4.03,7.67Z"/><path class="cls-1" d="M351.44,248.01c0-2.69-2.02-4.42-4.87-4.42-6.44,0-12.15,7.67-12.15,15.18,0,4.82,3.08,7.62,7.17,7.62,2.3,0,5.6-1.06,8.18-3.08l-.62-1.57c-1.46,.62-3.58,1.01-5.15,1.01-3.08,0-4.76-1.46-4.76-5.21,0-.67,0-.73,.06-1.01,7.84-1.18,12.15-4.54,12.15-8.51Zm-6.55-1.74c1.12,0,1.9,.67,1.9,2.3,0,2.74-2.13,4.87-7.34,5.99,.45-4.87,3.19-8.29,5.43-8.29Z"/><path class="cls-1" d="M362.1,246.72c1.68,0,3.36,1.01,4.54,2.74,1.18-.5,1.9-1.51,1.9-2.58,0-1.68-1.9-3.3-4.76-3.3-3.81,0-7.9,4.03-7.9,7.06,0,1.85,.62,3.25,3.86,5.77,3.75,2.86,4.59,3.81,4.59,4.93,0,1.23-1.06,2.18-2.91,2.18-3.02,0-5.49-2.35-5.88-5.71l-.11-.06c-1.68,.84-2.69,2.24-2.69,3.92,0,2.46,2.52,4.76,6.61,4.76,4.87,0,8.62-3.58,8.62-7.28,0-1.85-.9-3.36-4.65-6.22-3.3-2.41-4.03-3.25-4.03-4.26,0-.95,1.23-1.96,2.8-1.96Z"/><path class="cls-1" d="M380.48,237.82l-4.87,1.9-.67,4.42-3.98,.11,.11,.56c.17,.95,.84,1.62,3.53,1.85l-1.4,9.91c-.39,2.35-.56,4.09-.56,5.43,0,2.8,1.62,4.37,4.26,4.37,2.24,0,5.15-1.46,7.06-3.14l-.56-1.57c-1.46,.73-3.14,1.18-4.37,1.18-1.12,0-1.68-.62-1.68-2.13s.28-3.81,1.85-13.94h4.76l.67-2.74h-5.04l.9-6.22Z"/><path class="cls-1" d="M417.54,263.02c-.62-.34-1.01-.95-1.01-2.13,0-1.4,.45-3.7,1.01-6.22,.45-2.18,.84-4.48,.84-5.88,0-3.19-1.9-5.21-4.42-5.21-2.13,0-4.98,2.24-7.56,7.11h-.11c.06-.62,.11-1.29,.11-1.9,0-2.86-1.06-5.21-3.81-5.21-2.35,0-5.32,2.18-8.01,7.11h-.11c0-5.6-1.01-7.11-2.58-7.11-1.4,0-4.03,.78-5.43,1.62l.45,1.34c1.85,0,2.86,.22,3.3,.56,.11,.22,.22,1.01,.22,1.79,0,1.46-.11,2.46-.78,7l-1.62,10.47,5.38-.45c-.06-4.65,.06-6.83,.78-9.86,.9-4.31,5.38-8.51,7.45-8.79,.45,.39,.67,1.34,.67,2.63,0,1.12-.39,3.81-.73,5.94l-1.68,10.53,5.32-.45c0-4.65,.11-6.83,.78-9.86,.9-4.31,5.26-8.57,7.11-8.79,.45,.39,.67,1.34,.67,2.63,0,1.51-.28,3.7-.78,6.05-.56,2.41-.95,4.48-.95,5.99,0,2.18,1.4,3.86,3.3,4.42,2.07-.28,4.31-1.4,5.77-2.74l-.56-1.51c-.84,.39-2.18,.84-3.02,.9Z"/><path class="cls-1" d="M440.36,248.01c0-2.69-2.02-4.42-4.87-4.42-6.44,0-12.15,7.67-12.15,15.18,0,4.82,3.08,7.62,7.17,7.62,2.3,0,5.6-1.06,8.18-3.08l-.62-1.57c-1.46,.62-3.58,1.01-5.15,1.01-3.08,0-4.76-1.46-4.76-5.21,0-.67,0-.73,.06-1.01,7.84-1.18,12.15-4.54,12.15-8.51Zm-6.55-1.74c1.12,0,1.9,.67,1.9,2.3,0,2.74-2.13,4.87-7.34,5.99,.45-4.87,3.19-8.29,5.43-8.29Z"/><path class="cls-1" d="M462.24,263.02c-.67-.34-1.06-.95-1.06-2.13,0-1.4,.5-3.7,1.01-6.22,.45-2.18,.84-4.48,.84-5.88,0-3.19-1.9-5.21-4.31-5.21-2.63,0-5.43,2.41-8.18,7.11h-.11c0-5.6-1.01-7.11-2.58-7.11-1.4,0-4.03,.78-5.43,1.62l.45,1.34c1.85,0,2.86,.22,3.3,.56,.11,.22,.22,1.06,.22,1.79,0,1.46-.17,3.02-.84,7.11l-1.57,10.36,5.32-.45c0-4.65,.11-6.83,.84-9.86,.9-4.37,5.15-8.51,7.56-8.79,.45,.39,.73,1.34,.73,2.63,0,1.46-.39,3.86-.84,6.1-.5,2.52-.9,4.42-.9,5.94,0,2.18,1.4,3.86,3.36,4.42,2.02-.28,4.31-1.4,5.71-2.74l-.56-1.51c-.78,.39-2.13,.84-2.97,.9Z"/><path class="cls-1" d="M476.91,237.82l-4.87,1.9-.67,4.42-3.98,.11,.11,.56c.17,.95,.84,1.62,3.53,1.85l-1.4,9.91c-.39,2.35-.56,4.09-.56,5.43,0,2.8,1.62,4.37,4.26,4.37,2.24,0,5.15-1.46,7.06-3.14l-.56-1.57c-1.46,.73-3.14,1.18-4.37,1.18-1.12,0-1.68-.62-1.68-2.13s.28-3.81,1.85-13.94h4.76l.67-2.74h-5.04l.9-6.22Z"/><path class="cls-1" d="M161.02,296.72c1.68,0,3.36,1.01,4.54,2.74,1.18-.5,1.9-1.51,1.9-2.58,0-1.68-1.9-3.3-4.76-3.3-3.81,0-7.9,4.03-7.9,7.06,0,1.85,.62,3.25,3.86,5.77,3.75,2.86,4.59,3.81,4.59,4.93,0,1.23-1.06,2.18-2.91,2.18-3.02,0-5.49-2.35-5.88-5.71l-.11-.06c-1.68,.84-2.69,2.24-2.69,3.92,0,2.46,2.52,4.76,6.61,4.76,4.87,0,8.62-3.58,8.62-7.28,0-1.85-.9-3.36-4.65-6.22-3.3-2.41-4.03-3.25-4.03-4.26,0-.95,1.23-1.96,2.8-1.96Z"/><path class="cls-1" d="M174.64,288.1c0,1.51,1.01,2.41,2.24,2.41,2.02,0,2.91-1.51,2.91-3.14,0-1.46-1.01-2.41-2.18-2.41-1.74,0-2.97,1.51-2.97,3.14Z"/><path class="cls-1" d="M177.32,313.02c-.62-.34-.95-.95-.95-2.13,0-1.34,.45-3.75,1.12-6.83,.5-2.52,.84-4.82,.84-6.27,0-2.74-1.29-4.2-2.97-4.2-1.4,0-4.03,.78-5.54,1.62l.45,1.34c1.74,0,2.74,.22,3.25,.5,.11,.28,.28,1.06,.28,1.74,0,1.85-.56,4.98-1.01,7.22-.5,2.41-.9,4.48-.9,5.88,0,2.24,1.4,3.98,3.3,4.48,2.07-.28,4.31-1.4,5.77-2.74l-.56-1.57c-.84,.45-2.24,.9-3.08,.95Z"/><path class="cls-1" d="M202.08,313.02c-.67-.34-1.06-.95-1.06-2.13,0-1.4,.5-3.7,1.01-6.22,.45-2.18,.84-4.48,.84-5.88,0-3.19-1.9-5.21-4.31-5.21-2.63,0-5.43,2.41-8.18,7.11h-.11c0-5.6-1.01-7.11-2.58-7.11-1.4,0-4.03,.78-5.43,1.62l.45,1.34c1.85,0,2.86,.22,3.3,.56,.11,.22,.22,1.06,.22,1.79,0,1.46-.17,3.02-.84,7.11l-1.57,10.36,5.32-.45c0-4.65,.11-6.83,.84-9.86,.9-4.37,5.15-8.51,7.56-8.79,.45,.39,.73,1.34,.73,2.63,0,1.46-.39,3.86-.84,6.1-.5,2.52-.9,4.42-.9,5.94,0,2.18,1.4,3.86,3.36,4.42,2.02-.28,4.31-1.4,5.71-2.74l-.56-1.51c-.78,.39-2.13,.84-2.97,.9Z"/><path class="cls-1" d="M219.73,293.58c-5.66,0-11.82,6.78-11.82,15.18,0,4.82,3.14,7.62,7.06,7.62,2.3,0,5.6-1.06,8.18-3.08l-.56-1.57c-1.51,.62-3.64,1.01-5.21,1.01-2.8,0-4.65-1.34-4.65-5.77,0-3.47,.95-6.61,2.02-8.34,.78-1.4,1.96-1.96,3.25-1.96s2.52,.95,3.98,2.91c1.4-.73,2.13-1.9,2.13-3.02,0-1.51-1.51-2.97-4.37-2.97Z"/><path class="cls-1" d="M242.75,298.01c0-2.69-2.02-4.42-4.87-4.42-6.44,0-12.15,7.67-12.15,15.18,0,4.82,3.08,7.62,7.17,7.62,2.3,0,5.6-1.06,8.18-3.08l-.62-1.57c-1.46,.62-3.58,1.01-5.15,1.01-3.08,0-4.76-1.46-4.76-5.21,0-.67,0-.73,.06-1.01,7.84-1.18,12.15-4.54,12.15-8.51Zm-6.55-1.74c1.12,0,1.9,.67,1.9,2.3,0,2.74-2.13,4.87-7.34,5.99,.45-4.87,3.19-8.29,5.43-8.29Z"/><path class="cls-1" d="M267.9,312.29c-2.13,0-4.54-.5-6.5-1.29,8.34-4.98,11.76-9.91,11.76-13.89,0-4.26-3.08-7-8.01-7s-9.18,3.3-9.18,5.82c0,1.62,2.3,2.97,3.02,3.08,1.51-3.7,4.26-6.44,6.33-6.44,1.62,0,3.14,1.68,3.14,4.82-.11,4.59-3.53,8.85-15.34,17.36l1.18,1.74c1.57-1.06,3.25-1.9,4.76-1.9,2.74,0,5.21,2.07,8.85,2.07,3.02,0,4.93-1.96,5.66-6.83l-.28-.06c-1.34,1.57-3.19,2.52-5.38,2.52Z"/><path class="cls-1" d="M290.96,290.11c-7.5,0-13.05,7.5-13.05,15.74,0,6.55,3.7,10.64,9.46,10.64,7.84,0,12.88-7.39,12.88-15.46,0-6.89-3.7-10.92-9.3-10.92Zm-3.02,23.74c-2.69,0-4.76-2.3-4.76-8.01,0-6.78,2.97-13.1,7.34-13.1,2.74,0,4.54,2.46,4.54,8.06,0,7.06-2.74,13.05-7.11,13.05Z"/><path class="cls-1" d="M317.83,290.11c-7.5,0-13.05,7.5-13.05,15.74,0,6.55,3.7,10.64,9.46,10.64,7.84,0,12.88-7.39,12.88-15.46,0-6.89-3.7-10.92-9.3-10.92Zm-3.02,23.74c-2.69,0-4.76-2.3-4.76-8.01,0-6.78,2.97-13.1,7.34-13.1,2.74,0,4.54,2.46,4.54,8.06,0,7.06-2.74,13.05-7.11,13.05Z"/><path class="cls-1" d="M345.2,290.56l-1.51-.45-12.88,8.46,1.23,1.9,7.84-5.04-2.24,14.9c-.39,2.52-1.46,3.47-5.32,3.98l-.39,1.62h14.34l.45-1.62-4.7-1.01,3.19-22.74Z"/></g></g></svg>