<?xml version="1.0" encoding="utf-8"?>
<!-- Generator: Adobe Illustrator 24.1.0, SVG Export Plug-In . SVG Version: 6.00 Build 0)  -->
<svg version="1.1" id="Layer_1" xmlns="http://www.w3.org/2000/svg" xmlns:xlink="http://www.w3.org/1999/xlink" x="0px" y="0px"
	 viewBox="0 0 407.1 66.1" style="enable-background:new 0 0 407.1 66.1;" xml:space="preserve">
<style type="text/css">
	.st0{fill:#FA8907;}
	.st1{fill:#FFFFFF;}
	.st2{fill:#92BD37;}
	.st3{fill:#898989;}
	.st4{fill:#373737;}
	.st5{fill:#141414;}
	.st6{fill:#313131;}
	.st7{fill:#323232;}
	.st8{fill:#AAAAAA;}
	.st9{enable-background:new    ;}
</style>
<g id="Group_32" transform="translate(-369.876 -31)">
	<g id="Group_31" transform="translate(-92 0.358)">
		<g id="Group_23" transform="translate(242.8 -136.935)">
			<ellipse id="Ellipse_1" class="st0" cx="243.2" cy="200.7" rx="24.2" ry="24.4"/>
			<path id="Path_127" class="st1" d="M243.2,178.3v-0.2c-5.9,0-11.6,2.4-15.8,6.6c-8.7,8.8-8.7,23.1,0,31.9
				c8.6,8.7,22.6,8.8,31.3,0.2c0.1-0.1,0.2-0.2,0.2-0.2c8.7-8.8,8.7-23.1,0-31.9c-4.2-4.2-9.8-6.6-15.8-6.6v0.4
				c5.8,0,11.4,2.3,15.5,6.5c8.6,8.7,8.6,22.7,0,31.4c-8.4,8.6-22.2,8.7-30.8,0.2c-0.1-0.1-0.2-0.2-0.2-0.2
				c-8.6-8.7-8.6-22.7,0-31.4c4.1-4.2,9.7-6.5,15.5-6.5L243.2,178.3z"/>
			<path id="Path_128" class="st1" d="M251.6,200.4c1.8-0.8,3.1-2.5,3.3-4.5c0.5-3-1.4-5.9-4.4-6.6l-2.5-0.5l0.7-3.9l-2.7-0.5
				l-0.7,3.9l-2.6-0.5l0.7-3.9l-2.7-0.5l-0.7,3.9l-5.4-1l-0.6,3.4l2.8,0.5l-0.1,0.6l-2.9,17.2l-2.3-0.4l-1,3.8l5.2,1l-0.7,4.1
				l2.7,0.5l0.7-4.1l2.6,0.5l-0.7,4.1l2.7,0.5l0.7-4.1l4,0.8h0c3.8,0.7,7.3-2,8-6.1C256.5,205.2,254.8,201.8,251.6,200.4z
				 M242.2,190.3l4.9,0.9c2,0.5,3.2,2.4,2.8,4.4c-0.2,2-2,3.3-4,3.1c0,0-0.1,0-0.1,0l-4.9-0.9L242.2,190.3z M249.3,207.2
				c-0.2,2-2,3.3-4,3.1c0,0-0.1,0-0.1,0l-6.1-1.2l1.4-8.1l6.1,1.2c2,0.5,3.2,2.4,2.8,4.4L249.3,207.2z"/>
		</g>
		<g id="Group_30" transform="matrix(0.875, -0.485, 0.485, 0.875, 351.1, 6.145)">
			
				<ellipse id="Ellipse_1-2" transform="matrix(-1 2.547688e-06 -2.547688e-06 -1 486.4705 401.3034)" class="st2" cx="243.2" cy="200.7" rx="24.2" ry="24.4"/>
			<path id="Path_127-2" class="st1" d="M243.2,178.3v-0.2c-5.9,0-11.6,2.4-15.8,6.6c-8.7,8.8-8.7,23.1,0,31.9
				c8.6,8.7,22.6,8.8,31.3,0.2c0.1-0.1,0.2-0.2,0.2-0.2c8.7-8.8,8.7-23.1,0-31.9c-4.2-4.2-9.8-6.6-15.8-6.6v0.4
				c5.8,0,11.4,2.3,15.5,6.5c8.6,8.7,8.6,22.7,0,31.4c-8.4,8.6-22.2,8.7-30.8,0.2c-0.1-0.1-0.2-0.2-0.2-0.2
				c-8.6-8.7-8.6-22.7,0-31.4c4.1-4.2,9.7-6.5,15.5-6.5L243.2,178.3z"/>
			<path id="Path_128-2" class="st1" d="M251.6,200.4c1.8-0.8,3.1-2.5,3.3-4.5c0.5-3-1.4-5.9-4.4-6.6l-2.5-0.5l0.7-3.9l-2.7-0.5
				l-0.7,3.9l-2.6-0.5l0.7-3.9l-2.7-0.5l-0.7,3.9l-5.4-1l-0.6,3.4l2.8,0.5l-0.1,0.6l-2.9,17.2l-2.3-0.4l-1,3.8l5.2,1l-0.7,4.1
				l2.7,0.5l0.7-4.1l2.6,0.5l-0.7,4.1l2.7,0.5l0.7-4.1l4,0.8h0c3.8,0.7,7.3-2,8-6.1C256.5,205.2,254.8,201.8,251.6,200.4z
				 M242.2,190.3l4.9,0.9c2,0.5,3.2,2.4,2.8,4.4c-0.2,2-2,3.3-4,3.1c0,0-0.1,0-0.1,0l-4.9-0.9L242.2,190.3z M249.3,207.2
				c-0.2,2-2,3.3-4,3.1c0,0-0.1,0-0.1,0l-6.1-1.2l1.4-8.1l6.1,1.2c2,0.5,3.2,2.4,2.8,4.4L249.3,207.2z"/>
		</g>
		<g id="Group_28" transform="translate(256.793 -558.712)">
			<g id="Group_26" transform="translate(270.207 598.004)">
				<path id="Path_129" class="st3" d="M14.3,0L0,26.3c0,0,13.7-7.1,14.3-7.4V0z"/>
				<path id="Path_130" class="st4" d="M0,26.3l14.3,8.6v-16C13.7,19.2,0,26.3,0,26.3z"/>
				<path id="Path_131" class="st5" d="M14.3,18.9v16l14.3-8.6C28.6,26.3,15,19.2,14.3,18.9z"/>
				<path id="Path_132" class="st6" d="M28.6,26.3L14.3,0v18.9C15,19.2,28.6,26.3,28.6,26.3z"/>
			</g>
			<g id="Group_27" transform="translate(270.207 625.768)">
				<path id="Path_133" class="st3" d="M14.3,8.5L0,0l14.3,21.1V8.5z"/>
				<path id="Path_134" class="st7" d="M14.3,8.5L28.6,0L14.3,21.1V8.5z"/>
			</g>
		</g>
		<g id="Group_29" transform="translate(-1411.076 -558.508)">
			<ellipse id="Ellipse_2" class="st8" cx="2007.4" cy="622.2" rx="23.8" ry="24.4"/>
			<path id="Path_135" class="st1" d="M2005,632.5l2.4-8.3l4-1.2l1-3.4l-4.1,1.3l4.3-14.7c0-0.1,0-0.2-0.1-0.2c0,0,0,0-0.1,0h-6.3
				c-0.1,0-0.1,0.1-0.2,0.1l-5,17.1l-4.4,1.4l-0.9,3l4.4-1.3l-3.5,11.9h20.7c0.2,0,0.3-0.1,0.3-0.3l1.4-5.1c0.1-0.2-0.1-0.4-0.2-0.4
				c0,0-0.1,0-0.1,0L2005,632.5z"/>
		</g>
	</g>
	<g class="st9">
		<path class="st8" d="M614,66.9l-2,6.1h-2.3l6.2-17.2h2.9l5.9,17.2h-2.3l-2-6.1H614z M619.8,65.2l-2.5-7.7l-2.7,7.7H619.8z"/>
		<path class="st8" d="M637.5,64.2h-2.2c-0.5-2.1-1.6-3.1-3.4-3.1c-2.1,0-3.8,1.6-3.8,5.2c0,3.8,1.7,5.4,3.7,5.4c1.7,0,3-1,3.4-2.9
			h2.2c-0.6,3.1-2.8,4.6-5.8,4.6c-3.3,0-5.9-2.1-5.9-6.9c0-4.5,2.9-7,6.2-7C635.1,59.4,637.1,61.3,637.5,64.2z"/>
		<path class="st8" d="M650.8,64.2h-2.2c-0.5-2.1-1.6-3.1-3.4-3.1c-2.1,0-3.8,1.6-3.8,5.2c0,3.8,1.7,5.4,3.7,5.4c1.7,0,3-1,3.4-2.9
			h2.2c-0.6,3.1-2.8,4.6-5.8,4.6c-3.3,0-5.9-2.1-5.9-6.9c0-4.5,2.9-7,6.2-7C648.3,59.4,650.4,61.3,650.8,64.2z"/>
		<path class="st8" d="M664.1,67h-9.6c0.2,3.5,1.8,4.7,3.8,4.7c1.7,0,3.1-1.1,3.4-3h2.3c-0.5,3.2-3,4.6-5.8,4.6c-3.4,0-6-2.2-6-6.9
			c0-4.3,2.7-7,6.3-7c3.6,0,5.7,2.7,5.7,6.6C664.1,66.2,664.1,66.6,664.1,67z M654.5,65.4h7.4c-0.2-2.7-1.4-4.3-3.5-4.3
			C656.3,61.1,654.8,62.6,654.5,65.4z"/>
		<path class="st8" d="M679.7,66.2c0,4.9-3,7.2-6.5,7.2c-1.1,0-2.5-0.3-3.2-0.9l-0.9-1.3v6.7H667V59.8h2.1v2.1l1-1.4
			c0.7-0.6,2.1-1,3.5-1C677.5,59.4,679.7,62.3,679.7,66.2z M677.3,66.4c0-3-1.3-5.4-4-5.4c-2.2,0-4.2,1.4-4.2,5.2V67
			c0,3.4,2.1,4.7,4,4.7C675.5,71.7,677.3,69.9,677.3,66.4z"/>
		<path class="st8" d="M684.8,69.1c0,0.5,0,0.7,0,1c0.1,1.3,0.6,1.5,2.3,1.3v1.6c-0.6,0.1-1.2,0.1-1.8,0.1c-1.7,0-2.5-0.7-2.6-2.3
			c0-0.4,0-0.9,0-1.7v-7.7h-1.8v-1.6h1.8v-3.1h2.2v3.1h2.5v1.6h-2.5V69.1z"/>
		<path class="st8" d="M700.6,67H691c0.2,3.5,1.8,4.7,3.8,4.7c1.7,0,3.1-1.1,3.4-3h2.3c-0.5,3.2-3,4.6-5.8,4.6c-3.4,0-6-2.2-6-6.9
			c0-4.3,2.7-7,6.3-7c3.6,0,5.7,2.7,5.7,6.6C700.6,66.2,700.6,66.6,700.6,67z M691,65.4h7.4c-0.2-2.7-1.4-4.3-3.5-4.3
			C692.8,61.1,691.3,62.6,691,65.4z"/>
		<path class="st8" d="M715.1,73h-2.2v-2.1l-1,1.4c-0.8,0.6-2.1,1-3.5,1c-3.9,0-6-2.9-6-6.8c0-4.9,3-7.2,6.5-7.2
			c1.1,0,2.5,0.3,3.2,0.9l0.9,1.3v-6.9h2.2V73z M712.9,66.5v-0.7c0-3.4-2.1-4.7-4-4.7c-2.3,0-4.1,1.8-4.1,5.3c0,3,1.3,5.4,4,5.4
			C710.9,71.7,712.9,70.3,712.9,66.5z"/>
		<path class="st8" d="M738.7,73h-2.2v-7.5h-9.5V73h-2.1V55.8h2.1v7.9h9.5v-7.9h2.2V73z"/>
		<path class="st8" d="M753.3,67h-9.6c0.2,3.5,1.8,4.7,3.8,4.7c1.7,0,3.1-1.1,3.4-3h2.2c-0.5,3.2-3,4.6-5.8,4.6c-3.4,0-6-2.2-6-6.9
			c0-4.3,2.7-7,6.3-7c3.6,0,5.7,2.7,5.7,6.6C753.4,66.2,753.4,66.6,753.3,67z M743.8,65.4h7.4c-0.2-2.7-1.4-4.3-3.5-4.3
			C745.6,61.1,744,62.6,743.8,65.4z"/>
		<path class="st8" d="M762.3,59.6v1.6c-2.3-0.2-3.9,1.2-3.9,4.2V73h-2.1V59.8h2.1v2.1l1.2-1.8c0.6-0.4,1.2-0.6,1.8-0.6
			C761.8,59.5,762.1,59.5,762.3,59.6z"/>
		<path class="st8" d="M775,67h-9.6c0.2,3.5,1.8,4.7,3.8,4.7c1.7,0,3.1-1.1,3.4-3h2.3c-0.5,3.2-3,4.6-5.8,4.6c-3.4,0-6-2.2-6-6.9
			c0-4.3,2.7-7,6.3-7c3.6,0,5.7,2.7,5.7,6.6C775.1,66.2,775.1,66.6,775,67z M765.4,65.4h7.4c-0.2-2.7-1.4-4.3-3.5-4.3
			C767.2,61.1,765.7,62.6,765.4,65.4z"/>
	</g>
</g>
</svg>
