<svg xmlns="http://www.w3.org/2000/svg" width="22.512" height="24.913" viewBox="0 0 22.512 24.913">
    <defs>
        <style>
            .cls-1{fill:#463d2b}
        </style>
    </defs>
    <path id="Path_302" d="M21.76 19.609a3.642 3.642 0 0 0-2.451.963l-8.917-5.19a4.094 4.094 0 0 0 .113-.875 4.094 4.094 0 0 0-.113-.875l8.817-5.14a3.744 3.744 0 1 0-1.2-2.739 4.094 4.094 0 0 0 .113.875L9.3 11.768a3.752 3.752 0 1 0 0 5.478l8.9 5.2a3.528 3.528 0 0 0-.1.813 3.652 3.652 0 1 0 3.652-3.652z" class="cls-1" data-name="Path 302" transform="translate(-3 -2)"/>
</svg>
