<?xml version="1.0" encoding="UTF-8"?><svg id="Layer_2" xmlns="http://www.w3.org/2000/svg" viewBox="0 0 307.95 214.68"><defs><style>.cls-1{fill:#f9f4eb;}.cls-2{fill:#c82021;}</style></defs><g id="Layer_1-2"><g><path d="M304.95,176.1h-2.78c-.13-.01-.25-.04-.37-.04-.3,0-.57,.03-.86,.04h-7.53c-2.65-5.15-11.16-19.55-23.59-19.55h-114.26v-15.5h25.75c1.66,0,3-1.34,3-3s-1.34-3-3-3h-15.11v-20.89c0-1.66-1.34-3-3-3h-4.67l6.69-9.13c.99-1.33,.7-3.21-.64-4.19-1.34-.98-3.21-.69-4.19,.64l-9.3,12.68h-9.18c-1.65,0-3,1.34-3,3v20.89h-13.07v-54.48c20.3,.76,37.19,7.25,42.1,9.32,.85,.36,1.81,.31,2.61-.13,8.51-4.68,17.22-8.22,25.86-10.53,13.1-3.51,25.63-4,33.84-3.8,1.26,.06,2.36-.69,2.84-1.83,.48-1.13,.22-2.44-.66-3.31-14.39-14.19-34.95-31.29-66.8-38.48-4.23-10.98-19.74-20.5-36.8-22.36,0-.15,.01-.3,.01-.45,0-4.97-2.68-9-6-9s-6,4.03-6,9c0,.17,.01,.34,.02,.51-8.05,1.03-16.32,4.03-23.4,8.6-6.27,4.03-10.82,8.81-13.04,13.48-31.55,6.88-51.63,23.37-67.12,38.67-.87,.85-1.13,2.15-.67,3.27,.47,1.13,1.56,1.86,2.78,1.86h.13c10.75,0,21.07,1.28,30.65,3.84,8.83,2.36,17.74,6.02,26.48,10.86,.45,.25,.95,.38,1.46,.38,.4,0,.81-.08,1.2-.25,5.06-2.21,22.85-9.25,44.51-9.7v76.39c-9.49,1.1-15.85,4.6-20.06,8.45-.76-10.22-5.71-21.27-13.87-29.43-6.74-6.75-14.72-12.49-23.28-17.47,2.55-2.51,3.28-6.32,2.6-8.83-1.11-4.13-4.42-6.77-7.51-8.82-5.06-3.35-10.53-6.09-16.24-8.15-3.73-1.34-8.15-2.57-12.66-1.52-3.88,.89-7.81,3.95-8.82,8.2l-2.5-2.51c-1.17-1.17-3.07-1.17-4.24,0-1.18,1.17-1.18,3.07,0,4.25l34.85,34.85c-10.16,14.09-25.7,35.46-29.46,40.17H3c-1.66,0-3,1.34-3,3s1.34,3,3,3H19.25c.26,.07,.51,.11,.74,.11s.47-.04,.69-.11h.58c11.1,.39,16.68,8.08,22.57,16.23,5.8,8.04,11.8,16.35,23.18,16.35,9.41,0,16.69-1.89,23.12-3.55,4.79-1.24,8.93-2.31,12.95-2.31,5.43,0,10.78,1.33,16.45,2.74,6.18,1.53,12.57,3.12,19.61,3.12,7.97,0,15.16-1.82,21.51-3.43,4.93-1.25,9.58-2.43,13.54-2.43,5.37,0,10.35,1.33,15.63,2.75,5.71,1.53,11.62,3.11,18.42,3.11,8.77,0,13.2-1.72,17.11-3.23,3.63-1.41,6.78-2.62,13.37-2.63,3.81,3.46,8.36,5.86,14.46,5.86,12.82,0,19.56-8.74,26.07-17.2,5.95-7.71,11.58-14.99,21.71-15.38h3.99c1.65,0,3-1.34,3-3s-1.35-3-3-3Zm-160.04-58.94h15.29v17.89h-15.29v-17.89Zm4.65,23.89v15.5h-23.41c-.11,0-.2,.01-.31,.01v-15.51h23.72Zm15.09-101s.09-.03,.14-.05c.12-.04,.23-.09,.34-.15,.04-.02,.09-.04,.13-.07,.14-.08,.27-.17,.4-.27h.01c.12-.11,.23-.23,.34-.35,.03-.03,.06-.07,.09-.11,.08-.09,.14-.19,.21-.29,.02-.04,.05-.09,.07-.13,.08-.14,.14-.28,.2-.42,0,0,0-.02,.01-.03,25.4,6.21,42.74,18.74,56.29,31.27-.81,.03-1.63,.06-2.48,.1-.83,.04-1.67,.09-2.52,.15-.47,.03-.94,.07-1.42,.1-1.35,.11-2.74,.24-4.16,.4-1.14,.13-2.3,.27-3.48,.44-.44,.06-.88,.12-1.33,.19-.36,.05-.73,.1-1.1,.17-.36,.06-.73,.12-1.1,.18-.12,.01-.24,.03-.36,.06-.42,.07-.84,.14-1.26,.22-.42,.07-.84,.15-1.27,.24-.61,.11-1.22,.24-1.84,.37-1.14,.23-2.28,.5-3.44,.78-.75,.18-1.5,.38-2.26,.58-7.92,2.12-15.87,5.22-23.68,9.22-.24-.8-.55-1.72-.92-2.76-.07-.2-.15-.41-.23-.63-.15-.43-.32-.88-.51-1.34-.08-.21-.16-.42-.25-.64-.22-.54-.45-1.11-.71-1.69-.25-.58-.52-1.17-.8-1.79-.18-.41-.38-.83-.59-1.25-.19-.38-.38-.76-.57-1.15-.66-1.32-1.41-2.7-2.24-4.12-.15-.26-.3-.52-.46-.78-.15-.27-.31-.53-.48-.79-.15-.27-.32-.53-.49-.8-.2-.32-.41-.65-.62-.97-.28-.43-.57-.87-.87-1.31-.18-.27-.37-.54-.57-.82-.26-.39-.53-.77-.82-1.16-.32-.44-.65-.89-.99-1.34-.24-.32-.49-.66-.75-.98-.43-.56-.87-1.11-1.33-1.66-.31-.39-.63-.77-.96-1.16-.26-.3-.53-.6-.8-.91-.26-.29-.52-.59-.79-.88-.44-.48-.89-.97-1.35-1.45-.46-.48-.93-.97-1.42-1.45-1.87-1.86-3.91-3.71-6.13-5.49,3.26-1.41,6.54-2.56,9.77-3.42,2.79-.75,5.77-1.34,8.85-1.75,.17-.02,.34-.06,.5-.11ZM122.85,15.12c16.89,0,34.44,9.48,37.46,19.56-.88,.15-1.74,.33-2.6,.5-.24,.05-.49,.09-.74,.15-1.09,.24-2.17,.5-3.23,.78-1.07,.29-2.15,.61-3.23,.95-3.23,1.03-6.48,2.31-9.7,3.81-4.58-.88-9.12-1.44-13.56-1.67-1.48-.07-2.95-.11-4.4-.11-5.82,0-11.86,.6-17.97,1.78-4.3-2.01-8.65-3.61-12.93-4.76-1.03-.27-2.07-.53-3.14-.76-.31-.07-.64-.12-.95-.19-.76-.16-1.52-.31-2.29-.45,3.41-8.35,19.69-19.59,37.28-19.59Zm-50.88,67.8c-.5-.26-1-.51-1.5-.76-.51-.25-1.01-.5-1.51-.74-.98-.48-1.96-.94-2.94-1.38-.45-.21-.89-.41-1.34-.6-.51-.23-1.01-.45-1.52-.66-.78-.33-1.56-.65-2.33-.96-2.34-.94-4.68-1.8-7.02-2.57-.51-.17-1.01-.33-1.52-.49-.69-.22-1.38-.43-2.06-.63-.33-.09-.65-.18-.97-.28-.51-.15-1.01-.29-1.52-.42-7.94-2.12-16.34-3.41-25.06-3.86,.56-.52,1.12-1.04,1.69-1.55,.17-.15,.34-.31,.51-.46,.52-.47,1.05-.94,1.58-1.41,1.55-1.37,3.15-2.73,4.81-4.07,.61-.5,1.23-.99,1.85-1.48,.82-.65,1.67-1.3,2.52-1.94,.86-.64,1.72-1.28,2.61-1.9,.88-.63,1.78-1.26,2.69-1.87,.46-.32,.92-.63,1.38-.92,.93-.61,1.87-1.21,2.83-1.8,.96-.6,1.93-1.19,2.92-1.75,.99-.57,2-1.14,3.03-1.69,.51-.29,1.03-.56,1.55-.82,.52-.28,1.04-.55,1.57-.8,.53-.27,1.06-.53,1.6-.79,.54-.27,1.08-.52,1.63-.77,.55-.25,1.1-.5,1.66-.75,2.22-.99,4.52-1.93,6.9-2.79,.6-.22,1.2-.44,1.8-.64,1.52-.53,3.06-1.04,4.63-1.52,1.45-.43,2.93-.86,4.43-1.25,.72-.19,1.45-.37,2.18-.55,.01,.02,.02,.03,.02,.05,.02,.04,.03,.08,.05,.11,.04,.13,.09,.24,.15,.36,.03,.04,.05,.09,.08,.13,.06,.11,.13,.21,.21,.31,.03,.04,.05,.07,.08,.1,.1,.13,.22,.25,.34,.36,.03,.02,.06,.03,.08,.05,.11,.09,.22,.16,.33,.23,.05,.03,.1,.06,.15,.08,.1,.06,.22,.11,.33,.15,.05,.02,.1,.04,.15,.05,.16,.06,.33,.1,.51,.12,3.11,.42,6.09,1.01,8.86,1.76,2.7,.72,5.42,1.65,8.14,2.76-17.78,13.95-24.5,31.39-26.56,38.25Zm6.46-.39c.07-.2,.14-.4,.22-.61,.07-.21,.14-.42,.23-.63,.24-.66,.52-1.36,.82-2.09,.12-.28,.24-.56,.36-.85,.13-.31,.27-.63,.42-.96,.29-.65,.6-1.32,.93-2.01,.48-1,1.01-2.05,1.6-3.14,.23-.41,.46-.83,.7-1.25,.4-.71,.82-1.43,1.28-2.16,.18-.31,.38-.62,.57-.93,.21-.34,.43-.67,.66-1.02,.21-.32,.43-.65,.66-.98,.16-.25,.33-.49,.51-.74,.17-.25,.35-.5,.53-.75,.22-.31,.45-.63,.68-.94s.47-.63,.71-.94c.41-.55,.85-1.1,1.3-1.66,.26-.33,.54-.67,.83-1.01,.85-1.02,1.75-2.03,2.7-3.04,.31-.34,.63-.67,.97-1.01,.32-.34,.66-.68,1-1.01,.34-.33,.68-.67,1.03-1,.41-.39,.82-.77,1.24-1.14,.26-.25,.53-.49,.8-.72,.4-.36,.81-.71,1.23-1.06,.73-.62,1.48-1.22,2.25-1.82,.4-.31,.81-.62,1.23-.93,.59-.44,1.19-.87,1.8-1.3,5.85-1.15,11.62-1.74,17.16-1.74,4.52,0,9.19,.4,13.93,1.17,.09,.07,.17,.16,.27,.23,17.26,11.8,24.79,27.78,27.63,35.72-1.07-.38-2.26-.79-3.54-1.2-.32-.11-.65-.21-.98-.32-1.66-.53-3.48-1.07-5.42-1.59-.62-.17-1.25-.34-1.89-.51-.32-.08-.63-.16-.95-.24-.27-.07-.54-.13-.82-.2-.41-.1-.83-.2-1.26-.3-.67-.16-1.35-.31-2.05-.46-.35-.07-.7-.15-1.05-.22-1.76-.38-3.59-.72-5.48-1.03-.43-.07-.86-.14-1.3-.21-.86-.14-1.74-.26-2.62-.38-.47-.07-.96-.12-1.44-.18-.68-.09-1.36-.16-2.04-.23-.68-.08-1.38-.14-2.07-.2-.94-.08-1.89-.15-2.84-.21-1.97-.13-3.97-.2-6-.22-.03,0-.06-.01-.09-.01-.02,0-.04,.01-.07,.01-.25,0-.5-.01-.75-.01-18.64,0-34.81,4.79-43.59,8.03Zm-48.26,14.46c3.01-.7,6.38,.28,9.28,1.32,5.26,1.89,10.3,4.41,14.96,7.5,2.15,1.43,4.44,3.18,5.03,5.38,.16,.62-.16,2.34-1.17,3.16-.26,.22-1.05,.87-3.11-.16-.27-.14-.55-.21-.84-.26-9.34-4.77-19.11-8.77-28.57-12.3-.1-2.15,2.19-4.13,4.42-4.64Zm.39,12.9c1.28,.5,2.56,1.02,3.84,1.54,.09,.04,.17,.07,.26,.11,1.24,.51,2.48,1.03,3.73,1.57,.17,.07,.34,.15,.52,.23,.99,.42,1.99,.86,2.98,1.31,.16,.07,.32,.14,.49,.22,.34,.15,.68,.3,1.02,.46h.01c.75,.34,1.49,.68,2.24,1.04,.23,.1,.46,.21,.69,.33,.19,.08,.38,.17,.57,.27,12.93,6.16,25.22,13.66,34.76,23.2,.42,.42,.84,.86,1.24,1.3,.18,.19,.35,.39,.52,.59,.61,.69,1.19,1.4,1.75,2.12,.26,.34,.52,.68,.77,1.03,.1,.14,.2,.28,.3,.42,.39,.55,.77,1.12,1.13,1.69s.71,1.14,1.05,1.73c.39,.68,.76,1.36,1.1,2.06,.26,.49,.5,.99,.73,1.5,.16,.36,.32,.72,.47,1.08,.49,1.14,.92,2.29,1.3,3.45,.1,.3,.19,.6,.28,.9,.05,.16,.1,.33,.15,.49,.09,.31,.17,.61,.25,.92,.2,.77,.38,1.54,.53,2.31,.03,.18,.07,.36,.1,.54,.1,.53,.18,1.05,.24,1.57,.09,.64,.15,1.28,.2,1.91,.02,.26,.03,.52,.05,.79,.03,.58,.05,1.17,.05,1.74,0,.29,0,.58-.02,.86,0,.14-.01,.28-.02,.43-.01,.31-.03,.62-.06,.92-.07,.78-.17,1.54-.31,2.28L30.56,109.89Zm-4.36,66.21c.4-.52,.81-1.07,1.25-1.66,2.62-3.51,6.24-8.43,10.74-14.62,5.86-8.03,11.72-16.15,14.21-19.6l35.88,35.88H26.2Zm40.81,32.58c-8.31,0-12.95-6.42-18.32-13.86-3.18-4.42-6.58-9.12-11.05-12.72h61.3c-4.16,3.36-7.49,7.67-10.61,11.72-6.15,7.97-11.45,14.86-21.32,14.86Zm52.83-3.23c-5.41-1.34-11-2.63-16.76-2.63-4.78,0-9.48,1.21-14.46,2.5-.86,.23-1.75,.45-2.65,.68,2.56-2.63,4.85-5.59,7.11-8.52,5.95-7.71,11.58-14.99,21.71-15.38h5.05v23.35Zm29.72,2.19c-3.34,.62-6.79,1.04-10.42,1.04-4.57,0-8.99-.79-13.3-1.78v-24.8h23.72v25.54Zm73.62-1.78c-3.75,1.45-7.29,2.82-14.94,2.82-6.01,0-11.53-1.48-16.86-2.91-5.43-1.45-11.03-2.95-17.19-2.95-4.71,0-9.71,1.27-15.02,2.61-1.19,.3-2.4,.6-3.61,.9v-24.23h51.87c11.1,.39,16.69,8.08,22.57,16.23,1.16,1.6,2.32,3.21,3.53,4.76-4.53,.51-7.48,1.65-10.35,2.77Zm51.32-12.04c-6.14,7.97-11.45,14.86-21.32,14.86-8.31,0-12.95-6.42-18.31-13.86-3.19-4.42-6.59-9.12-11.05-12.72h61.29c-4.16,3.36-7.49,7.67-10.61,11.72Zm-66.44-17.72c-.49-.02-.99-.04-1.49-.04-.13,0-.25,.03-.37,.04H115.99c-.12-.01-.24-.04-.36-.04-.3,0-.57,.03-.86,.04h-15.85c.22-.45,.47-.93,.77-1.43,.1-.17,.21-.35,.32-.52,.21-.34,.44-.68,.7-1.03,.04-.08,.1-.15,.17-.23,.22-.3,.46-.61,.72-.93,.15-.18,.31-.36,.48-.55,.15-.18,.32-.36,.49-.54,.09-.09,.19-.19,.29-.29,.1-.11,.2-.21,.3-.3,.16-.16,.33-.32,.51-.48,.35-.32,.71-.63,1.1-.94,4.22-3.39,10.9-6.31,21.38-6.31h143.67c3.9,0,7.54,2.37,10.61,5.48,.06,.05,.11,.1,.16,.16,.01,.01,.02,.02,.03,.03,.12,.12,.26,.26,.37,.39,0,0,.01,0,.01,.01,.25,.26,.48,.51,.71,.78,.33,.37,.65,.75,.96,1.13,.21,.25,.41,.5,.61,.76,.35,.44,.68,.88,.98,1.32,.29,.4,.57,.8,.84,1.2,.28,.4,.54,.8,.78,1.19,.1,.15,.19,.3,.28,.44,.14,.22,.27,.44,.4,.66h-78.5Z"/><rect class="cls-1" x="144.91" y="117.16" width="15.29" height="4.51"/><path class="cls-1" d="M280.43,168.03l-175.66,.83c4.22-3.39,10.9-6.31,21.38-6.31h143.67c3.9,0,7.54,2.37,10.61,5.48Z"/><path class="cls-1" d="M58.27,114.35c-.26,.22-1.05,.87-3.11-.16-.27-.14-.55-.21-.84-.26-9.34-4.77-19.11-8.77-28.57-12.3-.1-2.15,2.19-4.13,4.42-4.64,3.01-.7,6.38,.28,9.28,1.32,5.26,1.89,10.3,4.41,14.96,7.5,2.15,1.43,4.44,3.18,5.03,5.38,.16,.62-.16,2.34-1.17,3.16Z"/><path class="cls-1" d="M93.77,170.52c.19-2.21,.1-4.54-.24-6.92l-46.62-46.63c12.93,6.16,25.22,13.66,34.76,23.2,8.38,8.38,12.98,20.53,12.1,30.35Z"/><path class="cls-1" d="M160.31,34.68c-.88,.15-1.74,.33-2.6,.5-.24,.05-.49,.09-.74,.15-1.09,.24-2.17,.5-3.23,.78-1.07,.29-2.15,.61-3.23,.95-3.23,1.03-6.48,2.31-9.7,3.81-4.58-.88-9.12-1.44-13.56-1.67-1.48-.07-2.95-.11-4.4-.11-5.82,0-11.86,.6-17.97,1.78-4.3-2.01-8.65-3.61-12.93-4.76-1.03-.27-2.07-.53-3.14-.76-.31-.07-.64-.12-.95-.19-.76-.16-1.52-.31-2.29-.45,3.41-8.35,19.69-19.59,37.28-19.59s34.44,9.48,37.46,19.56Z"/><rect class="cls-2" x="144.91" y="121.67" width="15.29" height="13.38"/><path class="cls-2" d="M93.77,170.52c-.07,.78-.17,1.54-.31,2.28L30.56,109.89c1.28,.5,2.56,1.02,3.84,1.54,.09,.04,.17,.07,.26,.11,1.24,.51,2.48,1.03,3.73,1.57,.17,.07,.34,.15,.52,.23,.99,.42,1.99,.86,2.98,1.31,.16,.07,.32,.14,.49,.22,.34,.15,.68,.3,1.02,.46h.01c.75,.34,1.5,.69,2.24,1.04,.23,.1,.46,.21,.69,.33,.18,.08,.37,.16,.55,.25l.02,.02,46.62,46.63c.34,2.38,.43,4.71,.24,6.92Z"/><path class="cls-2" d="M286.56,176.1h-78.5c-.49-.02-.99-.04-1.49-.04-.13,0-.25,.03-.37,.04H115.99c-.12-.01-.24-.04-.36-.04-.3,0-.57,.03-.86,.04h-15.85c.22-.45,.47-.93,.77-1.43,.1-.17,.21-.35,.32-.52,.21-.34,.44-.68,.7-1.03,.05-.08,.11-.16,.17-.23,.22-.3,.46-.61,.72-.93,.15-.18,.31-.36,.48-.55,.15-.18,.32-.36,.49-.54,.09-.09,.19-.19,.29-.29,.1-.11,.2-.21,.3-.3,.16-.16,.33-.32,.51-.48,.35-.32,.71-.63,1.1-.94l175.66-.83h.01c.05,.05,.1,.1,.15,.16,.01,.01,.02,.02,.03,.03,.13,.13,.25,.26,.37,.39,0,0,.01,0,.01,.01,.25,.26,.48,.51,.71,.78,.33,.37,.65,.75,.96,1.13,.21,.25,.41,.5,.61,.76,.35,.44,.68,.88,.98,1.32,.29,.4,.57,.8,.84,1.2,.28,.4,.54,.8,.78,1.19,.1,.15,.19,.3,.28,.44,.14,.22,.27,.44,.4,.66Z"/><path class="cls-1" d="M131.73,53.45c.1,.08,.2,.19,.32,.27,9.94,6.8,15.93,15.97,19.86,24.63,5.1,1.27,9.46,2.67,12.78,3.85-2.84-7.94-10.37-23.92-27.63-35.72-.1-.07-.18-.16-.27-.23-4.74-.77-9.41-1.17-13.93-1.17-5.54,0-11.31,.59-17.16,1.74-3.18,2.21-6.02,4.56-8.55,6.97,6.24-1.13,12.39-1.71,18.31-1.71,5.28,0,10.74,.47,16.28,1.37Z"/><path class="cls-2" d="M78.43,82.53c8.78-3.24,24.95-8.03,43.59-8.03,.25,0,.5,.01,.75,.01,.03,0,.05-.01,.07-.01,.03,0,.06,.01,.09,.01,10.82,.09,20.84,1.82,28.97,3.85-3.92-8.66-9.91-17.83-19.86-24.63-.12-.08-.21-.19-.32-.27-5.54-.9-11-1.37-16.28-1.37-5.92,0-12.07,.58-18.31,1.71-11.2,10.63-16.5,22.43-18.71,28.73Z"/><path class="cls-1" d="M168.03,46.25c19.83,4.85,33,14.15,44.27,23.95,3.77-.42,7.34-.65,10.58-.75-13.55-12.53-30.89-25.06-56.29-31.27-.01,.01-.01,.02-.01,.03-.06,.14-.12,.28-.2,.42-.02,.04-.05,.09-.07,.13-.07,.1-.13,.2-.21,.29-.03,.04-.06,.08-.09,.11-.11,.12-.22,.24-.34,.34h-.01c-.13,.11-.26,.2-.4,.28-.04,.03-.09,.05-.13,.07-.11,.06-.22,.11-.34,.15-.05,.02-.09,.04-.14,.05-.16,.05-.33,.09-.5,.11-3.08,.41-6.06,1-8.85,1.75-3.23,.86-6.51,2.01-9.77,3.42,2.22,1.79,4.25,3.63,6.13,5.5,1.22-.4,2.43-.78,3.64-1.1,2.79-.75,12.72-3.47,12.73-3.48Z"/><path class="cls-2" d="M194.86,73.43c6.05-1.62,11.97-2.62,17.44-3.23-11.27-9.81-24.44-19.11-44.27-23.95-.01,.01-9.94,2.73-12.73,3.48-1.21,.32-2.42,.7-3.64,1.1,12.45,12.38,17.68,25.8,19.52,31.82,7.81-4,15.76-7.1,23.68-9.22Z"/><path class="cls-1" d="M90.39,41.91c-2.77-.75-5.75-1.34-8.86-1.76-.18-.02-.35-.06-.51-.12-.05-.01-.1-.03-.15-.05-.11-.04-.23-.09-.33-.15-.05-.02-.1-.05-.15-.08-.11-.07-.22-.14-.33-.23-.02-.02-.05-.03-.08-.05-.12-.11-.24-.23-.34-.36-.03-.03-.05-.06-.08-.1-.08-.1-.15-.2-.21-.31-.03-.04-.05-.09-.08-.13-.06-.12-.11-.23-.15-.36-.02-.03-.03-.07-.05-.11,0-.02-.01-.03-.02-.05-3.94,.95-7.67,2.08-11.24,3.32,.02,.04,.03,.09,.05,.13,.03,.04,.05,.09,.08,.13,.06,.11,.13,.21,.21,.31,.03,.04,.05,.07,.08,.1,.1,.13,.22,.25,.34,.36,.03,.02,.06,.03,.08,.05,.11,.09,.22,.16,.33,.23,.05,.03,.1,.06,.15,.08,.1,.06,.22,.11,.33,.15,.05,.02,.1,.04,.15,.05,.16,.06,.33,.1,.51,.12,3.11,.42,6.09,1.01,8.86,1.76,2.7,.72,5.42,1.65,8.14,2.76-13.25,10.4-20.36,22.73-23.97,31.18,2.95,1.25,5.89,2.63,8.81,4.14,2.06-6.86,8.78-24.3,26.56-38.25-2.72-1.11-5.44-2.04-8.14-2.76Z"/><path class="cls-2" d="M87.13,47.6c-2.72-1.11-5.44-2.04-8.14-2.76-2.77-.75-5.75-1.34-8.86-1.76-.18-.02-.35-.06-.51-.12-.05-.01-.1-.03-.15-.05-.11-.04-.23-.09-.33-.15-.05-.02-.1-.05-.15-.08-.11-.07-.22-.14-.33-.23-.02-.02-.05-.03-.08-.05-.12-.11-.24-.23-.34-.36-.03-.03-.05-.06-.08-.1-.08-.1-.15-.2-.21-.31-.03-.04-.05-.09-.08-.13-.02-.04-.04-.09-.05-.13-19.35,6.75-33.58,17.46-45.13,28.2,8.72,.45,17.12,1.74,25.06,3.86,5.14,1.38,10.29,3.17,15.42,5.35,3.61-8.45,10.72-20.78,23.97-31.18Z"/><path class="cls-2" d="M92.71,33.2c4.18,1.12,8.39,2.65,12.56,4.54,5.98-1.1,11.89-1.65,17.58-1.65,1.42,0,2.95,.04,4.54,.11,3.25,.17,6.55,.51,9.88,1.01-.73-3.02-2.2-6.9-4.34-10.5-3.24-5.46-6.91-8.6-10.09-8.6-7.47,0-15.44,2.22-22.46,6.26-4.26,2.45-7.84,5.41-10.07,8.23,.71,.16,1.48,.36,2.39,.6Z"/></g></g></svg>