<?xml version="1.0" encoding="UTF-8"?><svg id="Layer_2" xmlns="http://www.w3.org/2000/svg" viewBox="0 0 376.82 166.61"><defs><style>.cls-1{fill:#f9f4eb;}.cls-2{fill:#c82021;}</style></defs><g id="Layer_1-2"><g><g><rect x="106.2" y="126.78" width="20" height="8" rx="2.67" ry="2.67"/><path d="M95.41,129.45v2.66c0,1.47-1.19,2.67-2.67,2.67h-14.66c-1.47,0-2.67-1.2-2.67-2.67v-2.66c0-1.48,1.2-2.67,2.67-2.67h14.66c1.48,0,2.67,1.19,2.67,2.67Z"/><rect x="136.99" y="126.78" width="20" height="8" rx="2.67" ry="2.67"/><path d="M218.57,129.45v2.66c0,1.47-1.19,2.67-2.67,2.67h-14.66c-1.47,0-2.67-1.2-2.67-2.67v-2.66c0-1.48,1.2-2.67,2.67-2.67h14.66c1.48,0,2.67,1.19,2.67,2.67Z"/><path d="M187.78,129.45v2.66c0,1.47-1.19,2.67-2.67,2.67h-14.66c-1.47,0-2.67-1.2-2.67-2.67v-2.66c0-1.48,1.2-2.67,2.67-2.67h14.66c1.48,0,2.67,1.19,2.67,2.67Z"/><path d="M374,160.98s-.05,.01-.08,.01h-29.61c.66-6.58-.58-20.14-13.14-32.24-14.34-13.82-21.06-21.85-35.67-21.85-.53,0-2.15-.07-2.15-.07l-13.2-22.77,25.35,1.83c1.03-.01,1.98-.46,2.52-1.33,.53-.86,.55-1.95,.06-2.84l-10.55-18.94c-.45-.79-1.25-1.33-2.16-1.42l-29.79-4.36-26.3-30.09c-.53-.61-1.29-.95-2.1-.95h-3.95V15.82h0c0-.06,.02-.12,.02-.18,0-1.32-1.07-2.39-2.39-2.39s-2.39,1.07-2.39,2.39c0,.06,.01,.12,.02,.18v10.14h-2.99V2.36h-.02c0-1.3-1.06-2.36-2.37-2.36s-2.37,1.07-2.37,2.38c0,.04,.01,.08,.01,.12V25.96h-3.95c-1.05,0-2.02,.6-2.5,1.54s-.39,2.07,.23,2.93l16.03,21.68-35.36-4.04c-.81-.1-1.66,.19-2.26,.78l-9.41,8.35-43.77,14.24s-.03,.01-.04,.01l-85.42,28.86c-35.74-.93-50.52-1.57-51.4-1.6-1.26-.18-2.22,.66-2.67,1.73-.45,1.06-.19,2.29,.64,3.1l57.43,57.45H13.55s-.06-.01-.09-.01c-1.55,0-2.81,1.26-2.81,2.82s1.26,2.81,2.81,2.81H374.01c1.55,0,2.81-1.26,2.81-2.81s-1.26-2.82-2.82-2.82Zm-87.24-54.3c-1.85-.04-3.67-.09-5.49-.14-.9-.02-1.81-.04-2.71-.07-.5-.01-.99-.03-1.48-.04-.8-.02-1.6-.04-2.4-.07-1.45-.04-2.9-.09-4.36-.13-1.31-.04-2.62-.09-3.94-.13-.48-.02-.97-.03-1.45-.05-18.78-.61-39.65-1.41-73.28-2.27-.26-.26-.56-1.54-.56-3.14,0-2.3,.62-5.26,2.92-6.88,3.28-2.32,9.62-4.01,19.87-4.01s23.89,.57,36.07,1.22c1.85,.1,3.67,.2,5.44,.31,.38,.02,.75,.04,1.12,.06,.17,.01,.33,.02,.5,.03,.58,.03,1.16,.07,1.73,.1,1.47,.09,2.89,.17,4.26,.26,.53,.04,1.05,.07,1.56,.1,.82,.05,1.61,.1,2.38,.15,1.14,.07,2.23,.14,3.26,.21,1.97,.13,3.73,.25,5.22,.36,.09,0,.18,.01,.27,.02,1.2,.08,2.22,.15,3.01,.21l8.06,13.9ZM222.32,31.58h13.6l21.35,24.53-10.04-1.32-9.18-1.21-15.73-22Zm-37.87,31.27c.16-.05,8.6,.65,18.63,1.51h.01c.34,.03,.69,.06,1.03,.09,.35,.03,.69,.06,1.04,.09,4.61,.39,9.44,.81,13.9,1.2,.37,.03,.74,.06,1.1,.1,.72,.06,1.44,.12,2.13,.18,.35,.03,.69,.06,1.03,.09,1.4,.12,2.74,.24,3.98,.35,.27,.02,.54,.04,.8,.07,.05,0,.1,0,.14,.01,.34,.03,.68,.06,1.01,.09,.68,.05,1.32,.11,1.92,.16,.2,.02,.39,.04,.58,.05,.35,.03,.69,.06,1.01,.09,.37,.03,.71,.06,1.03,.09,.2,.02,.39,.03,.57,.05,.12,.01,.23,.02,.33,.03,.37,.03,.69,.06,.96,.08,.13,.01,.24,.02,.34,.03,.05,0,.1,.01,.14,.01,.05,0,.09,0,.12,0,.04,0,.07,.01,.1,.01,.08,0,.15,.02,.23,.02,1.32,0,2.39-1.07,2.39-2.39,0-1.21-.89-2.19-2.05-2.36v-.03l-29.74-2.72-16.69-1.52,5.73-5.6,13.39,1.81,83.66,11.34,5.33,10.23h0l2.1,4.04-144.53-8.06,28.27-9.15Zm-57.35,18.77l13.9-4.67,31.74,1.32h.01l17.24,.71c-11.66,2.95-21.05,5.06-29.32,5.86-8.47,.81-43.65,.16-43.65,.16l10.08-3.38Zm-41.43,14.02h.01l18.34-6.2h54.34c3.14,0,7.15-.45,11.56-1.16,1.37-.22,2.77-.47,4.2-.74,.7-.12,1.4-.26,2.11-.4,.57-.11,1.14-.22,1.71-.34,1.14-.23,2.29-.48,3.44-.73,.86-.18,1.73-.37,2.58-.57,.57-.12,1.14-.25,1.71-.39,2.85-.65,5.63-1.33,8.24-1.99,.52-.13,1.04-.26,1.54-.39,.55-.14,1.08-.28,1.6-.41,.58-.15,1.14-.3,1.69-.45,.35-.08,.7-.18,1.04-.27,.45-.12,.9-.23,1.33-.35,.98-.26,1.9-.51,2.76-.75,.27-.07,.54-.14,.79-.21,.54-.15,1.04-.29,1.51-.42l67.31,3.89,2.95,5.1c-11.59-.81-42.79-2.86-62.55-2.86-11.6,0-19.71,1.9-24.1,5.04-4.06,2.9-5.67,7.33-5.44,10.54,.01,.1,.02,.2,.03,.3,.01,.17,.04,.34,.07,.5,0,.02,0,.05,.02,.08,.03,.21,.08,.42,.14,.61,.07,.2,.14,.4,.22,.59h-.01c-39.29-.99-80.26-2.05-114.21-2.92l15.07-5.1Zm252.99,65.36H66.37s-18.13-18.16-18.13-18.16L9.95,104.52c41.81,1.09,283.69,8.29,285.48,8.29,11.94,0,17.93,6.9,32.17,20.29,6.55,6.16,9.44,12.92,10.57,18.49,.06,.3,.12,.59,.17,.89,.06,.33,.11,.66,.16,.99,.08,.52,.14,1.03,.18,1.52,.03,.27,.05,.53,.07,.79,.02,.24,.03,.47,.05,.7,.08,1.81,0,3.35-.14,4.52Z"/><polygon class="cls-1" points="247.23 54.79 238.05 53.58 222.32 31.58 229.35 31.58 247.23 54.79"/><polygon class="cls-1" points="209.61 54.45 207.18 59.76 190.49 58.24 196.22 52.64 209.61 54.45"/><path class="cls-1" d="M300.71,80.06l-144.53-8.06,28.27-9.15c.16-.05,8.6,.65,18.63,1.51l-9.95,4.82,105.47,6.84h0l2.1,4.04Z"/><path class="cls-1" d="M172.74,78.27c-4.28,1.4-10.11,3.06-14.89,3.54-6.2,.62-22.13,.13-30.75-.19l13.9-4.67,31.74,1.32Z"/><path class="cls-1" d="M264.93,106.05c-18.78-.61-39.65-1.41-73.28-2.27-.26-.26-.56-1.54-.56-3.14,0-2.3,.62-5.26,2.92-6.88,3.28-2.32,9.62-4.01,19.87-4.01s23.89,.57,36.07,1.22c5.39,1.92,13.58,6.25,14.98,15.08Z"/><path class="cls-1" d="M169.92,88.28c-5.09,3.37-8.8,4.71-14.24,7.43-4.81,2.41-50.92,.73-70-.07l18.34-6.2h54.34c3.14,0,7.15-.45,11.56-1.16Z"/><path class="cls-1" d="M327.6,133.1c-14.24-13.39-20.23-20.29-32.17-20.29-1.79,0-243.67-7.2-285.48-8.29l38.29,38.32H304.67s20.35,1.05,33.5,8.75c-1.13-5.57-4.02-12.33-10.57-18.49Zm-232.19-.99c0,1.47-1.19,2.67-2.67,2.67h-14.66c-1.47,0-2.67-1.2-2.67-2.67v-2.66c0-1.48,1.2-2.67,2.67-2.67h14.66c1.48,0,2.67,1.19,2.67,2.67v2.66Zm30.79,0c0,1.47-1.19,2.67-2.67,2.67h-14.66c-1.47,0-2.67-1.2-2.67-2.67v-2.66c0-1.48,1.2-2.67,2.67-2.67h14.66c1.48,0,2.67,1.19,2.67,2.67v2.66Zm30.79,0c0,1.47-1.19,2.67-2.67,2.67h-14.66c-1.47,0-2.67-1.2-2.67-2.67v-2.66c0-1.48,1.2-2.67,2.67-2.67h14.66c1.48,0,2.67,1.19,2.67,2.67v2.66Zm30.79,0c0,1.47-1.19,2.67-2.67,2.67h-14.66c-1.47,0-2.67-1.2-2.67-2.67v-2.66c0-1.48,1.2-2.67,2.67-2.67h14.66c1.48,0,2.67,1.19,2.67,2.67v2.66Zm30.79,0c0,1.47-1.19,2.67-2.67,2.67h-14.66c-1.47,0-2.67-1.2-2.67-2.67v-2.66c0-1.48,1.2-2.67,2.67-2.67h14.66c1.48,0,2.67,1.19,2.67,2.67v2.66Z"/></g><g><path class="cls-2" d="M276.43,88.86c-11.59-.81-42.79-2.86-62.55-2.86-11.6,0-19.71,1.9-24.1,5.04-4.06,2.9-5.67,7.33-5.44,10.54,.01,.1,.02,.2,.03,.3,.01,.17,.04,.34,.07,.5,0,.02,0,.05,.02,.08,.03,.21,.08,.42,.14,.61,.06,.21,.13,.41,.21,.59-39.29-.99-80.26-2.05-114.21-2.92l15.07-5.1h.01c19.08,.8,65.19,2.48,70,.07,5.44-2.72,9.15-4.06,14.24-7.43,1.37-.22,2.77-.47,4.2-.74,.7-.12,1.4-.26,2.11-.4,.57-.11,1.14-.22,1.71-.34,1.14-.23,2.29-.48,3.44-.73,.86-.18,1.73-.37,2.58-.57,.57-.12,1.14-.25,1.71-.39,2.85-.65,5.63-1.33,8.24-1.99,.52-.13,1.04-.26,1.54-.39,.55-.14,1.08-.28,1.6-.41,.58-.15,1.14-.3,1.69-.45,.35-.08,.7-.18,1.04-.27,.45-.12,.9-.23,1.33-.35,.98-.26,1.9-.51,2.76-.75,.27-.07,.54-.14,.79-.21,.54-.15,1.04-.29,1.51-.42l67.31,3.89,2.95,5.1Z"/><path class="cls-2" d="M298.61,76.02h0l-105.47-6.84,9.95-4.82h.01c.34,.03,.69,.06,1.03,.09,.35,.03,.69,.06,1.04,.09,4.61,.39,9.44,.81,13.9,1.2,.37,.03,.74,.06,1.1,.1,.72,.06,1.44,.12,2.13,.18,.35,.03,.69,.06,1.03,.09,1.4,.12,2.74,.24,3.98,.35,.27,.02,.54,.04,.8,.07,.05,0,.1,0,.14,.01,.34,.03,.68,.06,1.01,.09,.68,.05,1.32,.11,1.92,.16,.2,.02,.39,.04,.58,.05,.35,.03,.69,.06,1.01,.09,.37,.03,.71,.06,1.03,.09,.2,.02,.39,.03,.57,.05,.12,.01,.23,.02,.33,.03,.37,.03,.69,.06,.96,.08,.13,.01,.24,.02,.34,.03,.05,0,.1,.01,.14,.01,.05,0,.09,0,.12,0,.04,0,.07,.01,.1,.01,.08,0,.15,.02,.23,.02,1.32,0,2.39-1.07,2.39-2.39,0-1.21-.89-2.19-2.05-2.36v-.03l-29.74-2.72,2.43-5.31,83.66,11.34,5.34,10.23Z"/><path class="cls-2" d="M338.66,161H66.37s-18.13-18.16-18.13-18.16H304.67s20.35,1.05,33.5,8.75c.06,.3,.12,.59,.17,.89,.06,.33,.11,.66,.16,.99,.07,.52,.14,1.03,.18,1.52,.03,.27,.05,.53,.07,.79,.02,.24,.03,.47,.05,.7,.08,1.81,0,3.35-.14,4.52Z"/><path class="cls-2" d="M286.76,106.68c-1.85-.04-3.67-.09-5.49-.14-.9-.02-1.81-.04-2.71-.07-.5-.01-.99-.03-1.48-.04-.8-.02-1.6-.04-2.4-.07-1.45-.04-2.9-.09-4.36-.13-1.31-.04-2.62-.09-3.94-.13-.48-.02-.97-.03-1.45-.05-1.4-8.83-9.59-13.16-14.98-15.08,1.85,.1,3.67,.2,5.44,.31,.38,.02,.75,.04,1.12,.06,.17,.01,.33,.02,.5,.03,.58,.03,1.16,.07,1.73,.1,1.47,.09,2.89,.17,4.26,.26,.53,.04,1.05,.07,1.56,.1,.82,.05,1.61,.1,2.38,.15,1.14,.07,2.23,.14,3.26,.21,1.97,.13,3.73,.25,5.22,.36,.09,0,.18,.01,.27,.02,1.2,.08,2.22,.15,3.01,.21l8.06,13.9Z"/><path class="cls-2" d="M189.99,78.98c-11.66,2.95-21.05,5.06-29.32,5.86-8.47,.81-43.65,.16-43.65,.16l10.08-3.38c8.62,.32,24.55,.81,30.75,.19,4.78-.48,10.61-2.14,14.89-3.54h.01s.01-.01,.02-.01l17.22,.72Z"/><polygon class="cls-2" points="257.27 56.11 247.23 54.79 229.35 31.58 235.92 31.58 257.27 56.11"/></g></g></g></svg>