<?xml version="1.0" encoding="UTF-8"?><svg id="Layer_2" xmlns="http://www.w3.org/2000/svg" viewBox="0 0 272 270.61"><defs><style>.cls-1,.cls-2{fill:#c82021;}.cls-3{fill:#f9f4eb;}.cls-3,.cls-2,.cls-4{fill-rule:evenodd;}</style></defs><g id="Layer_1-2"><g><path class="cls-4" d="M244.27,27.73C226.26,9.88,202.52,0,177.18,0s-49.24,9.88-67.09,27.73c-18.01,17.85-27.89,41.76-27.89,67.1,0,19.66,5.95,38.37,17.04,54.18l-20.07,20.08-1.92-1.91c-3.02-3.19-8.44-3.19-11.63,0l-11.93,11.93s-.02,.01-.02,.01t-.01,.02L14.48,218.32s-.01,.01-.02,.01c0,.01,0,.01,0,.02l-11.94,11.94c-3.35,3.18-3.35,8.44,0,11.63l26.14,26.3c1.59,1.43,3.5,2.39,5.73,2.39,1.12,0,2.2-.24,3.19-.66,1-.42,1.92-1.02,2.71-1.73l63.11-63.27c1.59-1.6,2.55-3.67,2.55-5.9,0-2.07-.96-4.14-2.55-5.74l-1.84-1.84,19.79-19.92c16.1,11.73,35.51,18.1,55.84,18.1,25.33,0,49.08-9.88,67.09-27.73,17.85-18.01,27.73-41.76,27.73-67.09s-9.88-49.25-27.73-67.1ZM23.47,218.41l30.02-30.01,2.49-2.5,16.5,16.49-34.75,34.75-16.49-16.5,2.23-2.23Zm75.46-17.93l-63.11,63.12c-.8,.79-2.07,.79-2.71,0l-26.14-26.14c-.79-.64-.79-1.91,0-2.55l9.81-9.8,18.72,18.72c.64,.64,1.43,.96,2.23,.96h.01c.95,0,1.75-.32,2.23-.96l39.2-39.05c1.28-1.27,1.28-3.34,0-4.62l-18.72-18.72,9.79-9.8c.32-.32,.8-.48,1.28-.48s.96,.16,1.27,.48l4.13,4.12s.01,.01,.01,.02c.01,0,.02,0,.03,.02l17.81,17.81s.01,.01,.01,.02c.01,.01,.02,.01,.02,.02l4.13,4.12c.32,.32,.64,.8,.64,1.28,0,.64-.32,.96-.64,1.43Zm-1.92-13.54l-6.72-6.73-6.66-6.66,19.45-19.45c.37,.46,.74,.91,1.12,1.36,.27,.32,.54,.64,.82,.96,.87,1.02,1.77,2.02,2.69,3.01,.52,.58,1.06,1.15,1.64,1.72,.23,.26,.48,.51,.74,.77,2,2,4.09,3.9,6.24,5.7l-19.32,19.32Zm142.64-29.65c-16.73,16.74-38.89,25.98-62.47,25.98s-45.9-9.24-62.63-25.98c-16.74-16.57-25.98-38.88-25.98-62.47s9.24-45.9,25.98-62.63c16.73-16.73,38.88-25.82,62.63-25.82s45.74,9.09,62.47,25.82c16.73,16.73,25.98,39.05,25.98,62.63s-9.25,45.9-25.98,62.47Z"/><path class="cls-3" d="M116.33,167.62l-19.32,19.32-6.72-6.73,19.06-19.06c.23,.26,.48,.51,.74,.77,2,2,4.09,3.9,6.24,5.7Z"/><path class="cls-3" d="M239.65,32.19c-16.73-16.73-38.89-25.82-62.47-25.82s-45.9,9.09-62.63,25.82c-16.74,16.73-25.98,39.05-25.98,62.63s9.24,45.9,25.98,62.47c16.73,16.74,38.88,25.98,62.63,25.98s45.74-9.24,62.47-25.98c16.73-16.57,25.98-38.88,25.98-62.47s-9.25-45.9-25.98-62.63Zm-2.12,122.98c-16.17,16.18-37.61,25.1-60.35,25.1s-44.33-8.92-60.51-25.11c-16.18-16.02-25.1-37.45-25.1-60.34s8.92-44.33,25.11-60.51c16.08-16.08,37.57-24.94,60.5-24.94s44.27,8.86,60.35,24.94c16.19,16.19,25.1,37.67,25.1,60.51s-8.91,44.31-25.1,60.35Z"/><path class="cls-3" d="M99.57,199.05c0,.64-.32,.96-.64,1.43l-63.11,63.12c-.8,.79-2.07,.79-2.71,0l-26.14-26.14c-.79-.64-.79-1.91,0-2.55l9.81-9.8,18.72,18.72c.64,.64,1.43,.96,2.23,.96h.01c.95,0,1.75-.32,2.23-.96l39.2-39.05c1.28-1.27,1.28-3.34,0-4.62l-18.72-18.72,9.79-9.8c.32-.32,.8-.48,1.28-.48s.96,.16,1.27,.48l4.13,4.12s.01,.01,.01,.02c.01,0,.02,0,.03,.02l17.81,17.81s.01,.01,.01,.02c.01,.01,.02,.01,.02,.02l4.13,4.12c.32,.32,.64,.8,.64,1.28Z"/><polygon class="cls-3" points="72.48 202.39 37.73 237.14 21.24 220.64 23.47 218.41 37.27 232.23 67.3 202.2 53.49 188.4 55.98 185.9 72.48 202.39"/><path class="cls-2" d="M237.53,34.31c-16.08-16.08-37.51-24.94-60.35-24.94s-44.42,8.86-60.5,24.94c-16.19,16.18-25.11,37.66-25.11,60.51s8.92,44.32,25.1,60.34c16.18,16.19,37.67,25.11,60.51,25.11s44.18-8.92,60.35-25.1c16.19-16.04,25.1-37.47,25.1-60.35s-8.91-44.32-25.1-60.51Zm-5.15,115.86c-14.76,14.75-34.36,22.88-55.2,22.88s-40.6-8.13-55.35-22.88-22.87-34.4-22.87-55.35,8.12-40.6,22.87-55.34c14.75-14.76,34.4-22.88,55.35-22.88s40.45,8.12,55.2,22.88c14.74,14.74,22.86,34.4,22.86,55.34s-8.12,40.6-22.86,55.35Z"/><path class="cls-3" d="M232.38,39.48c-14.75-14.76-34.35-22.88-55.2-22.88s-40.6,8.12-55.35,22.88c-14.75,14.74-22.87,34.4-22.87,55.34s8.12,40.6,22.87,55.35,34.4,22.88,55.35,22.88,40.44-8.13,55.2-22.88c14.74-14.75,22.86-34.4,22.86-55.35s-8.12-40.6-22.86-55.34Zm-2.13,108.57c-14.19,14.19-32.99,22-53.07,22s-39.05-7.81-53.23-22c-29.33-29.32-29.33-77.13,0-106.45,14.18-14.19,33.15-22,53.23-22s38.89,7.81,53.07,22c29.32,29.32,29.32,77.13,0,106.45Z"/><path class="cls-4" d="M230.25,41.6c-14.18-14.19-32.99-22-53.07-22s-39.05,7.81-53.23,22c-29.33,29.32-29.33,77.13,0,106.45,14.18,14.19,33.15,22,53.23,22s38.88-7.81,53.07-22c29.32-29.32,29.32-77.13,0-106.45Zm-4.46,101.83c-13.07,13.07-30.28,20.24-48.61,20.24s-35.7-7.17-48.77-20.24c-26.77-26.77-26.77-70.44,0-97.37,13.07-12.91,30.28-20.08,48.77-20.08s35.54,7.17,48.61,20.08c26.93,26.94,26.93,70.6,0,97.37Z"/><path class="cls-4" d="M216.86,59.6c-.63,.48-1.43,.79-2.23,.79s-1.59-.31-2.22-.79c-19.45-19.45-51.16-19.45-70.61,0-1.27,1.11-3.19,1.11-4.46,0-1.28-1.28-1.28-3.35,0-4.62,10.68-10.52,24.7-16.42,39.84-16.42s29.16,5.9,39.68,16.42c1.28,1.27,1.28,3.34,0,4.62Z"/><path class="cls-1" d="M109.35,161.15l-19.06,19.06-6.66-6.66,19.45-19.45c.37,.46,.74,.91,1.12,1.36,.27,.32,.54,.64,.82,.96,.87,1.02,1.77,2.02,2.69,3.01,.54,.58,1.08,1.15,1.64,1.72Z"/><polygon class="cls-1" points="67.3 202.2 37.27 232.23 23.47 218.41 53.49 188.4 67.3 202.2"/></g></g></svg>