<?xml version="1.0" encoding="UTF-8"?><svg id="Layer_2" xmlns="http://www.w3.org/2000/svg" viewBox="0 0 244.77 244.91"><defs><style>.cls-1{fill:#f9f4eb;}.cls-2{fill:#c82021;}</style></defs><g id="Layer_1-2"><g><path d="M128.75,184.07h-12.32c-1.69,0-3.06,1.37-3.06,3.07,0,.87,.37,1.66,.96,2.21,.27,.26,.6,.47,.95,.62,.11,.04,.21,.08,.32,.11,.08,.02,.16,.04,.24,.06,.19,.04,.39,.06,.59,.06h12.32c.08,0,.17,0,.25-.01,.05,0,.11-.01,.16-.02,.52-.07,.99-.27,1.39-.56,.05-.03,.09-.07,.14-.11,.06-.05,.13-.11,.18-.17,.2-.19,.37-.4,.5-.64,.16-.24,.27-.51,.33-.8,.02-.1,.04-.19,.06-.29,.03-.09,.04-.19,.04-.29,.01-.05,.01-.11,.01-.17,0-1.7-1.37-3.07-3.06-3.07Zm69.07-78.44c-1.51-2.93-4.49-4.74-7.78-4.74h-16.04c-1.69,0-3.06,1.36-3.06,3.06v62.21c0,1.69,1.37,3.06,3.06,3.06h34.85c1.69,0,3.06-1.37,3.06-3.06,0-24.99-9.5-51.58-14.09-60.53Zm-20.76,57.47v-56.09h12.97c1,0,1.89,.54,2.34,1.42,.78,1.53,1.74,3.67,2.78,6.3,.44,1.11,.89,2.31,1.35,3.58,.22,.59,.43,1.2,.65,1.82,.25,.72,.5,1.46,.75,2.22,.18,.54,.36,1.09,.54,1.64,.13,.39,.25,.79,.38,1.2,.12,.4,.24,.81,.37,1.22,.11,.34,.21,.68,.31,1.03,.33,1.11,.66,2.25,.98,3.42,.12,.43,.24,.87,.36,1.32,.12,.44,.23,.88,.35,1.33,.23,.9,.46,1.81,.68,2.74,.29,1.23,.58,2.48,.85,3.75,.14,.63,.27,1.27,.4,1.91,.14,.68,.27,1.37,.4,2.06,.26,1.38,.51,2.78,.73,4.18,.23,1.41,.44,2.82,.61,4.25,.06,.47,.12,.94,.17,1.41,.06,.48,.12,.96,.16,1.45,.05,.47,.1,.94,.14,1.41,.07,.7,.13,1.4,.17,2.1,.03,.37,.06,.75,.08,1.12,.04,.54,.07,1.07,.09,1.6,.03,.54,.05,1.07,.07,1.61h-28.68Zm-105.96-62.21h-16.04c-3.3,0-6.28,1.81-7.78,4.74-4.6,8.96-14.09,35.54-14.09,60.53,0,1.7,1.37,3.07,3.06,3.07h0s34.85,0,34.85,0c1.69,0,3.06-1.37,3.06-3.06v-62.21c0-1.69-1.37-3.06-3.06-3.06Zm-3.06,62.21h-28.68c.73-22.77,9.34-46.84,13.36-54.68,.46-.87,1.35-1.41,2.34-1.41h12.98v56.09Zm129.78-57.47c-1.51-2.93-4.49-4.74-7.78-4.74h-16.04c-1.69,0-3.06,1.36-3.06,3.06v62.21c0,1.69,1.37,3.06,3.06,3.06h34.85c1.69,0,3.06-1.37,3.06-3.06,0-24.99-9.5-51.58-14.09-60.53Zm-20.76,57.47v-56.09h12.97c1,0,1.89,.54,2.34,1.42,.78,1.53,1.74,3.67,2.78,6.3,.44,1.11,.89,2.31,1.35,3.58,.22,.59,.43,1.2,.65,1.82,.25,.72,.5,1.46,.75,2.22,.18,.54,.36,1.09,.54,1.64,.13,.39,.25,.79,.38,1.2,.12,.4,.24,.81,.37,1.22,.11,.34,.21,.68,.31,1.03,.33,1.11,.66,2.25,.98,3.42,.12,.43,.24,.87,.36,1.32,.12,.44,.23,.88,.35,1.33,.23,.9,.46,1.81,.68,2.74,.29,1.23,.58,2.48,.85,3.75,.14,.63,.27,1.27,.4,1.91,.14,.68,.27,1.37,.4,2.06,.26,1.38,.51,2.78,.73,4.18,.23,1.41,.44,2.82,.61,4.25,.06,.47,.12,.94,.17,1.41,.06,.48,.12,.96,.16,1.45,.05,.47,.1,.94,.14,1.41,.07,.7,.13,1.4,.17,2.1,.03,.37,.06,.75,.08,1.12,.04,.54,.07,1.07,.09,1.6,.03,.54,.05,1.07,.07,1.61h-28.68Zm-105.96-62.21h-16.04c-3.3,0-6.28,1.81-7.78,4.74-4.6,8.96-14.09,35.54-14.09,60.53,0,1.7,1.37,3.07,3.06,3.07h0s34.85,0,34.85,0c1.69,0,3.06-1.37,3.06-3.06v-62.21c0-1.69-1.37-3.06-3.06-3.06Zm-3.06,62.21h-28.68c.73-22.77,9.34-46.84,13.36-54.68,.46-.87,1.35-1.41,2.34-1.41h12.98v56.09Zm60.71,20.97h-12.32c-1.69,0-3.06,1.37-3.06,3.07,0,.87,.37,1.66,.96,2.21,.27,.26,.6,.47,.95,.62,.11,.04,.21,.08,.32,.11,.08,.02,.16,.04,.24,.06,.19,.04,.39,.06,.59,.06h12.32c.08,0,.17,0,.25-.01,.05,0,.11-.01,.16-.02,.52-.07,.99-.27,1.39-.56,.05-.03,.09-.07,.14-.11,.06-.05,.13-.11,.18-.17,.2-.19,.37-.4,.5-.64,.16-.24,.27-.51,.33-.8,.02-.1,.04-.19,.06-.29,.03-.09,.04-.19,.04-.29,.01-.05,.01-.11,.01-.17,0-1.7-1.37-3.07-3.06-3.07Zm-57.65-83.18h-16.04c-3.3,0-6.28,1.81-7.78,4.74-4.6,8.96-14.09,35.54-14.09,60.53,0,1.7,1.37,3.07,3.06,3.07h0s34.85,0,34.85,0c1.69,0,3.06-1.37,3.06-3.06v-62.21c0-1.69-1.37-3.06-3.06-3.06Zm-3.06,62.21h-28.68c.73-22.77,9.34-46.84,13.36-54.68,.46-.87,1.35-1.41,2.34-1.41h12.98v56.09Zm60.71,20.97h-12.32c-1.69,0-3.06,1.37-3.06,3.07,0,.87,.37,1.66,.96,2.21,.27,.26,.6,.47,.95,.62,.11,.04,.21,.08,.32,.11,.08,.02,.16,.04,.24,.06,.19,.04,.39,.06,.59,.06h12.32c.08,0,.17,0,.25-.01,.05,0,.11-.01,.16-.02,.52-.07,.99-.27,1.39-.56,.05-.03,.09-.07,.14-.11,.06-.05,.13-.11,.18-.17,.2-.19,.37-.4,.5-.64,.16-.24,.27-.51,.33-.8,.02-.1,.04-.19,.06-.29,.03-.09,.04-.19,.04-.29,.01-.05,.01-.11,.01-.17,0-1.7-1.37-3.07-3.06-3.07Zm69.07-78.44c-1.51-2.93-4.49-4.74-7.78-4.74h-16.04c-1.69,0-3.06,1.36-3.06,3.06v62.21c0,1.69,1.37,3.06,3.06,3.06h34.85c1.69,0,3.06-1.37,3.06-3.06,0-24.99-9.5-51.58-14.09-60.53Zm-20.76,57.47v-56.09h12.97c1,0,1.89,.54,2.34,1.42,.78,1.53,1.74,3.67,2.78,6.3,.44,1.11,.89,2.31,1.35,3.58,.22,.59,.43,1.2,.65,1.82,.25,.72,.5,1.46,.75,2.22,.18,.54,.36,1.09,.54,1.64,.13,.39,.25,.79,.38,1.2,.12,.4,.24,.81,.37,1.22,.11,.34,.21,.68,.31,1.03,.33,1.11,.66,2.25,.98,3.42,.12,.43,.24,.87,.36,1.32,.12,.44,.23,.88,.35,1.33,.23,.9,.46,1.81,.68,2.74,.29,1.23,.58,2.48,.85,3.75,.14,.63,.27,1.27,.4,1.91,.14,.68,.27,1.37,.4,2.06,.26,1.38,.51,2.78,.73,4.18,.23,1.41,.44,2.82,.61,4.25,.06,.47,.12,.94,.17,1.41,.06,.48,.12,.96,.16,1.45,.05,.47,.1,.94,.14,1.41,.07,.7,.13,1.4,.17,2.1,.03,.37,.06,.75,.08,1.12,.04,.54,.07,1.07,.09,1.6,.03,.54,.05,1.07,.07,1.61h-28.68Zm20.76-57.47c-1.51-2.93-4.49-4.74-7.78-4.74h-16.04c-1.69,0-3.06,1.36-3.06,3.06v62.21c0,1.69,1.37,3.06,3.06,3.06h34.85c1.69,0,3.06-1.37,3.06-3.06,0-24.99-9.5-51.58-14.09-60.53Zm-20.76,57.47v-56.09h12.97c1,0,1.89,.54,2.34,1.42,.78,1.53,1.74,3.67,2.78,6.3,.44,1.11,.89,2.31,1.35,3.58,.22,.59,.43,1.2,.65,1.82,.25,.72,.5,1.46,.75,2.22,.18,.54,.36,1.09,.54,1.64,.13,.39,.25,.79,.38,1.2,.12,.4,.24,.81,.37,1.22,.11,.34,.21,.68,.31,1.03,.33,1.11,.66,2.25,.98,3.42,.12,.43,.24,.87,.36,1.32,.12,.44,.23,.88,.35,1.33,.23,.9,.46,1.81,.68,2.74,.29,1.23,.58,2.48,.85,3.75,.14,.63,.27,1.27,.4,1.91,.14,.68,.27,1.37,.4,2.06,.26,1.38,.51,2.78,.73,4.18,.23,1.41,.44,2.82,.61,4.25,.06,.47,.12,.94,.17,1.41,.06,.48,.12,.96,.16,1.45,.05,.47,.1,.94,.14,1.41,.07,.7,.13,1.4,.17,2.1,.03,.37,.06,.75,.08,1.12,.04,.54,.07,1.07,.09,1.6,.03,.54,.05,1.07,.07,1.61h-28.68Zm-105.96-62.21h-16.04c-3.3,0-6.28,1.81-7.78,4.74-4.6,8.96-14.09,35.54-14.09,60.53,0,1.7,1.37,3.07,3.06,3.07h0s34.85,0,34.85,0c1.69,0,3.06-1.37,3.06-3.06v-62.21c0-1.69-1.37-3.06-3.06-3.06Zm-3.06,62.21h-28.68c.73-22.77,9.34-46.84,13.36-54.68,.46-.87,1.35-1.41,2.34-1.41h12.98v56.09Zm60.71,20.97h-12.32c-1.69,0-3.06,1.37-3.06,3.07,0,.87,.37,1.66,.96,2.21,.27,.26,.6,.47,.95,.62,.11,.04,.21,.08,.32,.11,.08,.02,.16,.04,.24,.06,.19,.04,.39,.06,.59,.06h12.32c.08,0,.17,0,.25-.01,.05,0,.11-.01,.16-.02,.52-.07,.99-.27,1.39-.56,.05-.03,.09-.07,.14-.11,.06-.05,.13-.11,.18-.17,.2-.19,.37-.4,.5-.64,.16-.24,.27-.51,.33-.8,.02-.1,.04-.19,.06-.29,.03-.09,.04-.19,.04-.29,.01-.05,.01-.11,.01-.17,0-1.7-1.37-3.07-3.06-3.07Zm-57.65-83.18h-16.04c-3.3,0-6.28,1.81-7.78,4.74-4.6,8.96-14.09,35.54-14.09,60.53,0,1.7,1.37,3.07,3.06,3.07h0s34.85,0,34.85,0c1.69,0,3.06-1.37,3.06-3.06v-62.21c0-1.69-1.37-3.06-3.06-3.06Zm-3.06,62.21h-28.68c.73-22.77,9.34-46.84,13.36-54.68,.46-.87,1.35-1.41,2.34-1.41h12.98v56.09Zm60.71,20.97h-12.32c-1.69,0-3.06,1.37-3.06,3.07,0,.87,.37,1.66,.96,2.21,.27,.26,.6,.47,.95,.62,.11,.04,.21,.08,.32,.11,.08,.02,.16,.04,.24,.06,.19,.04,.39,.06,.59,.06h12.32c.08,0,.17,0,.25-.01,.05,0,.11-.01,.16-.02,.52-.07,.99-.27,1.39-.56,.05-.03,.09-.07,.14-.11,.06-.05,.13-.11,.18-.17,.2-.19,.37-.4,.5-.64,.16-.24,.27-.51,.33-.8,.02-.1,.04-.19,.06-.29,.03-.09,.04-.19,.04-.29,.01-.05,.01-.11,.01-.17,0-1.7-1.37-3.07-3.06-3.07Zm69.07-78.44c-1.51-2.93-4.49-4.74-7.78-4.74h-16.04c-1.69,0-3.06,1.36-3.06,3.06v62.21c0,1.69,1.37,3.06,3.06,3.06h34.85c1.69,0,3.06-1.37,3.06-3.06,0-24.99-9.5-51.58-14.09-60.53Zm-20.76,57.47v-56.09h12.97c1,0,1.89,.54,2.34,1.42,.78,1.53,1.74,3.67,2.78,6.3,.44,1.11,.89,2.31,1.35,3.58,.22,.59,.43,1.2,.65,1.82,.25,.72,.5,1.46,.75,2.22,.18,.54,.36,1.09,.54,1.64,.13,.39,.25,.79,.38,1.2,.12,.4,.24,.81,.37,1.22,.11,.34,.21,.68,.31,1.03,.33,1.11,.66,2.25,.98,3.42,.12,.43,.24,.87,.36,1.32,.12,.44,.23,.88,.35,1.33,.23,.9,.46,1.81,.68,2.74,.29,1.23,.58,2.48,.85,3.75,.14,.63,.27,1.27,.4,1.91,.14,.68,.27,1.37,.4,2.06,.26,1.38,.51,2.78,.73,4.18,.23,1.41,.44,2.82,.61,4.25,.06,.47,.12,.94,.17,1.41,.06,.48,.12,.96,.16,1.45,.05,.47,.1,.94,.14,1.41,.07,.7,.13,1.4,.17,2.1,.03,.37,.06,.75,.08,1.12,.04,.54,.07,1.07,.09,1.6,.03,.54,.05,1.07,.07,1.61h-28.68Zm20.76-57.47c-1.51-2.93-4.49-4.74-7.78-4.74h-16.04c-1.69,0-3.06,1.36-3.06,3.06v62.21c0,1.69,1.37,3.06,3.06,3.06h34.85c1.69,0,3.06-1.37,3.06-3.06,0-24.99-9.5-51.58-14.09-60.53Zm-20.76,57.47v-56.09h12.97c1,0,1.89,.54,2.34,1.42,.78,1.53,1.74,3.67,2.78,6.3,.44,1.11,.89,2.31,1.35,3.58,.22,.59,.43,1.2,.65,1.82,.25,.72,.5,1.46,.75,2.22,.18,.54,.36,1.09,.54,1.64,.13,.39,.25,.79,.38,1.2,.12,.4,.24,.81,.37,1.22,.11,.34,.21,.68,.31,1.03,.33,1.11,.66,2.25,.98,3.42,.12,.43,.24,.87,.36,1.32,.12,.44,.23,.88,.35,1.33,.23,.9,.46,1.81,.68,2.74,.29,1.23,.58,2.48,.85,3.75,.14,.63,.27,1.27,.4,1.91,.14,.68,.27,1.37,.4,2.06,.26,1.38,.51,2.78,.73,4.18,.23,1.41,.44,2.82,.61,4.25,.06,.47,.12,.94,.17,1.41,.06,.48,.12,.96,.16,1.45,.05,.47,.1,.94,.14,1.41,.07,.7,.13,1.4,.17,2.1,.03,.37,.06,.75,.08,1.12,.04,.54,.07,1.07,.09,1.6,.03,.54,.05,1.07,.07,1.61h-28.68Zm-105.96-62.21h-16.04c-3.3,0-6.28,1.81-7.78,4.74-4.6,8.96-14.09,35.54-14.09,60.53,0,1.7,1.37,3.07,3.06,3.07h0s34.85,0,34.85,0c1.69,0,3.06-1.37,3.06-3.06v-62.21c0-1.69-1.37-3.06-3.06-3.06Zm-3.06,62.21h-28.68c.73-22.77,9.34-46.84,13.36-54.68,.46-.87,1.35-1.41,2.34-1.41h12.98v56.09Zm60.71,20.97h-12.32c-1.69,0-3.06,1.37-3.06,3.07,0,.87,.37,1.66,.96,2.21,.27,.26,.6,.47,.95,.62,.11,.04,.21,.08,.32,.11,.08,.02,.16,.04,.24,.06,.19,.04,.39,.06,.59,.06h12.32c.08,0,.17,0,.25-.01,.05,0,.11-.01,.16-.02,.52-.07,.99-.27,1.39-.56,.05-.03,.09-.07,.14-.11,.06-.05,.13-.11,.18-.17,.2-.19,.37-.4,.5-.64,.16-.24,.27-.51,.33-.8,.02-.1,.04-.19,.06-.29,.03-.09,.04-.19,.04-.29,.01-.05,.01-.11,.01-.17,0-1.7-1.37-3.07-3.06-3.07Zm-57.65-83.18h-16.04c-3.3,0-6.28,1.81-7.78,4.74-4.6,8.96-14.09,35.54-14.09,60.53,0,1.7,1.37,3.07,3.06,3.07h0s34.85,0,34.85,0c1.69,0,3.06-1.37,3.06-3.06v-62.21c0-1.69-1.37-3.06-3.06-3.06Zm-3.06,62.21h-28.68c.73-22.77,9.34-46.84,13.36-54.68,.46-.87,1.35-1.41,2.34-1.41h12.98v56.09Zm60.71,20.97h-12.32c-1.69,0-3.06,1.37-3.06,3.07,0,.87,.37,1.66,.96,2.21,.27,.26,.6,.47,.95,.62,.11,.04,.21,.08,.32,.11,.08,.02,.16,.04,.24,.06,.19,.04,.39,.06,.59,.06h12.32c.08,0,.17,0,.25-.01,.05,0,.11-.01,.16-.02,.52-.07,.99-.27,1.39-.56,.05-.03,.09-.07,.14-.11,.06-.05,.13-.11,.18-.17,.2-.19,.37-.4,.5-.64,.16-.24,.27-.51,.33-.8,.02-.1,.04-.19,.06-.29,.03-.09,.04-.19,.04-.29,.01-.05,.01-.11,.01-.17,0-1.7-1.37-3.07-3.06-3.07Zm69.07-78.44c-1.51-2.93-4.49-4.74-7.78-4.74h-16.04c-1.69,0-3.06,1.36-3.06,3.06v62.21c0,1.69,1.37,3.06,3.06,3.06h34.85c1.69,0,3.06-1.37,3.06-3.06,0-24.99-9.5-51.58-14.09-60.53Zm-20.76,57.47v-56.09h12.97c1,0,1.89,.54,2.34,1.42,.78,1.53,1.74,3.67,2.78,6.3,.44,1.11,.89,2.31,1.35,3.58,.22,.59,.43,1.2,.65,1.82,.25,.72,.5,1.46,.75,2.22,.18,.54,.36,1.09,.54,1.64,.13,.39,.25,.79,.38,1.2,.12,.4,.24,.81,.37,1.22,.11,.34,.21,.68,.31,1.03,.33,1.11,.66,2.25,.98,3.42,.12,.43,.24,.87,.36,1.32,.12,.44,.23,.88,.35,1.33,.23,.9,.46,1.81,.68,2.74,.29,1.23,.58,2.48,.85,3.75,.14,.63,.27,1.27,.4,1.91,.14,.68,.27,1.37,.4,2.06,.26,1.38,.51,2.78,.73,4.18,.23,1.41,.44,2.82,.61,4.25,.06,.47,.12,.94,.17,1.41,.06,.48,.12,.96,.16,1.45,.05,.47,.1,.94,.14,1.41,.07,.7,.13,1.4,.17,2.1,.03,.37,.06,.75,.08,1.12,.04,.54,.07,1.07,.09,1.6,.03,.54,.05,1.07,.07,1.61h-28.68Zm20.76-57.47c-1.51-2.93-4.49-4.74-7.78-4.74h-16.04c-1.69,0-3.06,1.36-3.06,3.06v62.21c0,1.69,1.37,3.06,3.06,3.06h34.85c1.69,0,3.06-1.37,3.06-3.06,0-24.99-9.5-51.58-14.09-60.53Zm-20.76,57.47v-56.09h12.97c1,0,1.89,.54,2.34,1.42,.78,1.53,1.74,3.67,2.78,6.3,.44,1.11,.89,2.31,1.35,3.58,.22,.59,.43,1.2,.65,1.82,.25,.72,.5,1.46,.75,2.22,.18,.54,.36,1.09,.54,1.64,.13,.39,.25,.79,.38,1.2,.12,.4,.24,.81,.37,1.22,.11,.34,.21,.68,.31,1.03,.33,1.11,.66,2.25,.98,3.42,.12,.43,.24,.87,.36,1.32,.12,.44,.23,.88,.35,1.33,.23,.9,.46,1.81,.68,2.74,.29,1.23,.58,2.48,.85,3.75,.14,.63,.27,1.27,.4,1.91,.14,.68,.27,1.37,.4,2.06,.26,1.38,.51,2.78,.73,4.18,.23,1.41,.44,2.82,.61,4.25,.06,.47,.12,.94,.17,1.41,.06,.48,.12,.96,.16,1.45,.05,.47,.1,.94,.14,1.41,.07,.7,.13,1.4,.17,2.1,.03,.37,.06,.75,.08,1.12,.04,.54,.07,1.07,.09,1.6,.03,.54,.05,1.07,.07,1.61h-28.68Zm-105.96-62.21h-16.04c-3.3,0-6.28,1.81-7.78,4.74-4.6,8.96-14.09,35.54-14.09,60.53,0,1.7,1.37,3.07,3.06,3.07h0s34.85,0,34.85,0c1.69,0,3.06-1.37,3.06-3.06v-62.21c0-1.69-1.37-3.06-3.06-3.06Zm-3.06,62.21h-28.68c.73-22.77,9.34-46.84,13.36-54.68,.46-.87,1.35-1.41,2.34-1.41h12.98v56.09Zm60.71,20.97h-12.32c-1.69,0-3.06,1.37-3.06,3.07,0,.87,.37,1.66,.96,2.21,.27,.26,.6,.47,.95,.62,.11,.04,.21,.08,.32,.11,.08,.02,.16,.04,.24,.06,.19,.04,.39,.06,.59,.06h12.32c.08,0,.17,0,.25-.01,.05,0,.11-.01,.16-.02,.52-.07,.99-.27,1.39-.56,.05-.03,.09-.07,.14-.11,.06-.05,.13-.11,.18-.17,.2-.19,.37-.4,.5-.64,.16-.24,.27-.51,.33-.8,.02-.1,.04-.19,.06-.29,.03-.09,.04-.19,.04-.29,.01-.05,.01-.11,.01-.17,0-1.7-1.37-3.07-3.06-3.07ZM244.74,2.63c-.23-1.67-1.77-2.85-3.45-2.6L2.64,33.2c-1.68,.23-2.84,1.78-2.61,3.45,.21,1.53,1.52,2.64,3.02,2.64,.14,0,.29,0,.43-.03l106.39-14.79c-1.96,2.62-3.17,5.84-3.17,9.36,0,7.63,5.46,14,12.67,15.43v11.8h-44.15c-7.12,0-12.91,5.52-12.91,12.3v8.73h-19.77c-3.71,0-7.05,2.14-8.72,5.6-6.04,12.57-20.1,45.1-20.1,75.63s14.06,63.3,20.11,75.96c1.65,3.47,5,5.63,8.73,5.63H202.21c3.73,0,7.07-2.16,8.73-5.63,6.05-12.67,20.11-45.42,20.11-75.96s-14.06-63.06-20.11-75.63c-1.66-3.46-5-5.6-8.71-5.6h-19.77v-8.73c0-6.78-5.79-12.3-12.91-12.3h-44.05v-11.8c7.21-1.43,12.67-7.8,12.67-15.43,0-5.07-2.46-9.55-6.21-12.43L242.13,6.08c1.67-.23,2.84-1.77,2.61-3.45Zm-94,236.16h-56.74v-69.57h56.74v69.57Zm0-75.69h-56.74v-56.09h56.74v56.09Zm51.48-74.89c1.34,0,2.57,.82,3.2,2.14,4.58,9.5,19.5,42.87,19.5,72.98s-14.93,63.72-19.5,73.32c-.64,1.32-1.87,2.14-3.21,2.14h-45.35V103.95c0-1.69-1.37-3.06-3.06-3.06h-62.86c-1.69,0-3.06,1.37-3.06,3.07V238.79H42.55c-1.34,0-2.57-.82-3.2-2.14-4.58-9.59-19.51-43.2-19.51-73.32s14.92-63.47,19.5-72.98c.63-1.32,1.86-2.14,3.2-2.14H202.22Zm-32.68-21.02c3.75,0,6.79,2.77,6.79,6.17v8.73H68.43v-8.73c0-3.4,3.04-6.17,6.79-6.17h94.32Zm-37.57-34.49c.03,.19,.04,.38,.05,.57s.02,.38,.02,.57c0,5.29-4.31,9.61-9.6,9.61-.19,0-.38-.01-.57-.02-.23-.01-.46-.03-.69-.07-.18-.02-.37-.05-.55-.09-.2-.03-.39-.08-.58-.13-.18-.04-.37-.1-.55-.16-.2-.07-.4-.14-.6-.22h0c-3.55-1.41-6.06-4.88-6.06-8.92,0-5.3,4.31-9.61,9.61-9.61,2.65,0,5.05,1.08,6.79,2.82h.01c.21,.22,.42,.45,.61,.68h0c.2,.25,.38,.49,.55,.74h0c.18,.26,.33,.53,.48,.79h0c.13,.24,.24,.47,.34,.7,.01,.01,.01,.03,.01,.04,.06,.12,.11,.24,.15,.36,.06,.13,.11,.26,.15,.4,.05,.14,.09,.28,.13,.42s.08,.28,.11,.42c.01,.02,.02,.05,.02,.08,.04,.15,.07,.31,.1,.47,0,.03,0,.06,0,.09,.03,.15,.05,.3,.07,.46Zm42.03,136.52h34.85c1.69,0,3.06-1.37,3.06-3.06,0-24.99-9.5-51.58-14.09-60.53-1.51-2.93-4.49-4.74-7.78-4.74h-16.04c-1.69,0-3.06,1.36-3.06,3.06v62.21c0,1.69,1.37,3.06,3.06,3.06Zm3.06-62.21h12.97c1,0,1.89,.54,2.34,1.42,.78,1.53,1.74,3.67,2.78,6.3,.44,1.11,.89,2.31,1.35,3.58,.22,.59,.43,1.2,.65,1.82,.25,.72,.5,1.46,.75,2.22,.18,.54,.36,1.09,.54,1.64,.13,.39,.25,.79,.38,1.2,.12,.4,.24,.81,.37,1.22,.11,.34,.21,.68,.31,1.03,.33,1.11,.66,2.25,.98,3.42,.12,.43,.24,.87,.36,1.32,.12,.44,.23,.88,.35,1.33,.23,.9,.46,1.81,.68,2.74,.29,1.23,.58,2.48,.85,3.75,.14,.63,.27,1.27,.4,1.91,.14,.68,.27,1.37,.4,2.06,.26,1.38,.51,2.78,.73,4.18,.23,1.41,.44,2.82,.61,4.25,.06,.47,.12,.94,.17,1.41,.06,.48,.12,.96,.16,1.45,.05,.47,.1,.94,.14,1.41,.07,.7,.13,1.4,.17,2.1,.03,.37,.06,.75,.08,1.12,.04,.54,.07,1.07,.09,1.6,.03,.54,.05,1.07,.07,1.61h-28.68v-56.09Zm-61.78,82.96c.11,.04,.21,.08,.32,.11,.08,.02,.16,.04,.24,.06,.19,.04,.39,.06,.59,.06h12.32c.08,0,.17,0,.25-.01,.05,0,.11-.01,.16-.02,.52-.07,.99-.27,1.39-.56,.05-.03,.09-.07,.14-.11,.06-.05,.13-.11,.18-.17,.2-.19,.37-.4,.5-.64,.16-.24,.27-.51,.33-.8,.02-.1,.04-.19,.06-.29,.03-.09,.04-.19,.04-.29,.01-.05,.01-.11,.01-.17,0-1.7-1.37-3.07-3.06-3.07h-12.32c-1.69,0-3.06,1.37-3.06,3.07,0,.87,.37,1.66,.96,2.21,.27,.26,.6,.47,.95,.62Zm-79.03-20.74h0s34.85,0,34.85,0c1.69,0,3.06-1.37,3.06-3.06v-62.21c0-1.69-1.37-3.06-3.06-3.06h-16.04c-3.3,0-6.28,1.81-7.78,4.74-4.6,8.96-14.09,35.54-14.09,60.53,0,1.7,1.37,3.07,3.06,3.07Zm16.47-60.81c.46-.87,1.35-1.41,2.34-1.41h12.98v56.09h-28.68c.73-22.77,9.34-46.84,13.36-54.68Zm76.03,75.65h-12.32c-1.69,0-3.06,1.37-3.06,3.07,0,.87,.37,1.66,.96,2.21,.27,.26,.6,.47,.95,.62,.11,.04,.21,.08,.32,.11,.08,.02,.16,.04,.24,.06,.19,.04,.39,.06,.59,.06h12.32c.08,0,.17,0,.25-.01,.05,0,.11-.01,.16-.02,.52-.07,.99-.27,1.39-.56,.05-.03,.09-.07,.14-.11,.06-.05,.13-.11,.18-.17,.2-.19,.37-.4,.5-.64,.16-.24,.27-.51,.33-.8,.02-.1,.04-.19,.06-.29,.03-.09,.04-.19,.04-.29,.01-.05,.01-.11,.01-.17,0-1.7-1.37-3.07-3.06-3.07Zm-57.65-83.18h-16.04c-3.3,0-6.28,1.81-7.78,4.74-4.6,8.96-14.09,35.54-14.09,60.53,0,1.7,1.37,3.07,3.06,3.07h0s34.85,0,34.85,0c1.69,0,3.06-1.37,3.06-3.06v-62.21c0-1.69-1.37-3.06-3.06-3.06Zm-3.06,62.21h-28.68c.73-22.77,9.34-46.84,13.36-54.68,.46-.87,1.35-1.41,2.34-1.41h12.98v56.09Zm129.78-57.47c-1.51-2.93-4.49-4.74-7.78-4.74h-16.04c-1.69,0-3.06,1.36-3.06,3.06v62.21c0,1.69,1.37,3.06,3.06,3.06h34.85c1.69,0,3.06-1.37,3.06-3.06,0-24.99-9.5-51.58-14.09-60.53Zm-20.76,57.47v-56.09h12.97c1,0,1.89,.54,2.34,1.42,.78,1.53,1.74,3.67,2.78,6.3,.44,1.11,.89,2.31,1.35,3.58,.22,.59,.43,1.2,.65,1.82,.25,.72,.5,1.46,.75,2.22,.18,.54,.36,1.09,.54,1.64,.13,.39,.25,.79,.38,1.2,.12,.4,.24,.81,.37,1.22,.11,.34,.21,.68,.31,1.03,.33,1.11,.66,2.25,.98,3.42,.12,.43,.24,.87,.36,1.32,.12,.44,.23,.88,.35,1.33,.23,.9,.46,1.81,.68,2.74,.29,1.23,.58,2.48,.85,3.75,.14,.63,.27,1.27,.4,1.91,.14,.68,.27,1.37,.4,2.06,.26,1.38,.51,2.78,.73,4.18,.23,1.41,.44,2.82,.61,4.25,.06,.47,.12,.94,.17,1.41,.06,.48,.12,.96,.16,1.45,.05,.47,.1,.94,.14,1.41,.07,.7,.13,1.4,.17,2.1,.03,.37,.06,.75,.08,1.12,.04,.54,.07,1.07,.09,1.6,.03,.54,.05,1.07,.07,1.61h-28.68Zm20.76-57.47c-1.51-2.93-4.49-4.74-7.78-4.74h-16.04c-1.69,0-3.06,1.36-3.06,3.06v62.21c0,1.69,1.37,3.06,3.06,3.06h34.85c1.69,0,3.06-1.37,3.06-3.06,0-24.99-9.5-51.58-14.09-60.53Zm-20.76,57.47v-56.09h12.97c1,0,1.89,.54,2.34,1.42,.78,1.53,1.74,3.67,2.78,6.3,.44,1.11,.89,2.31,1.35,3.58,.22,.59,.43,1.2,.65,1.82,.25,.72,.5,1.46,.75,2.22,.18,.54,.36,1.09,.54,1.64,.13,.39,.25,.79,.38,1.2,.12,.4,.24,.81,.37,1.22,.11,.34,.21,.68,.31,1.03,.33,1.11,.66,2.25,.98,3.42,.12,.43,.24,.87,.36,1.32,.12,.44,.23,.88,.35,1.33,.23,.9,.46,1.81,.68,2.74,.29,1.23,.58,2.48,.85,3.75,.14,.63,.27,1.27,.4,1.91,.14,.68,.27,1.37,.4,2.06,.26,1.38,.51,2.78,.73,4.18,.23,1.41,.44,2.82,.61,4.25,.06,.47,.12,.94,.17,1.41,.06,.48,.12,.96,.16,1.45,.05,.47,.1,.94,.14,1.41,.07,.7,.13,1.4,.17,2.1,.03,.37,.06,.75,.08,1.12,.04,.54,.07,1.07,.09,1.6,.03,.54,.05,1.07,.07,1.61h-28.68Zm-48.31,20.97h-12.32c-1.69,0-3.06,1.37-3.06,3.07,0,.87,.37,1.66,.96,2.21,.27,.26,.6,.47,.95,.62,.11,.04,.21,.08,.32,.11,.08,.02,.16,.04,.24,.06,.19,.04,.39,.06,.59,.06h12.32c.08,0,.17,0,.25-.01,.05,0,.11-.01,.16-.02,.52-.07,.99-.27,1.39-.56,.05-.03,.09-.07,.14-.11,.06-.05,.13-.11,.18-.17,.2-.19,.37-.4,.5-.64,.16-.24,.27-.51,.33-.8,.02-.1,.04-.19,.06-.29,.03-.09,.04-.19,.04-.29,.01-.05,.01-.11,.01-.17,0-1.7-1.37-3.07-3.06-3.07Zm-57.65-83.18h-16.04c-3.3,0-6.28,1.81-7.78,4.74-4.6,8.96-14.09,35.54-14.09,60.53,0,1.7,1.37,3.07,3.06,3.07h0s34.85,0,34.85,0c1.69,0,3.06-1.37,3.06-3.06v-62.21c0-1.69-1.37-3.06-3.06-3.06Zm-3.06,62.21h-28.68c.73-22.77,9.34-46.84,13.36-54.68,.46-.87,1.35-1.41,2.34-1.41h12.98v56.09Zm60.71,20.97h-12.32c-1.69,0-3.06,1.37-3.06,3.07,0,.87,.37,1.66,.96,2.21,.27,.26,.6,.47,.95,.62,.11,.04,.21,.08,.32,.11,.08,.02,.16,.04,.24,.06,.19,.04,.39,.06,.59,.06h12.32c.08,0,.17,0,.25-.01,.05,0,.11-.01,.16-.02,.52-.07,.99-.27,1.39-.56,.05-.03,.09-.07,.14-.11,.06-.05,.13-.11,.18-.17,.2-.19,.37-.4,.5-.64,.16-.24,.27-.51,.33-.8,.02-.1,.04-.19,.06-.29,.03-.09,.04-.19,.04-.29,.01-.05,.01-.11,.01-.17,0-1.7-1.37-3.07-3.06-3.07Zm-57.65-83.18h-16.04c-3.3,0-6.28,1.81-7.78,4.74-4.6,8.96-14.09,35.54-14.09,60.53,0,1.7,1.37,3.07,3.06,3.07h0s34.85,0,34.85,0c1.69,0,3.06-1.37,3.06-3.06v-62.21c0-1.69-1.37-3.06-3.06-3.06Zm-3.06,62.21h-28.68c.73-22.77,9.34-46.84,13.36-54.68,.46-.87,1.35-1.41,2.34-1.41h12.98v56.09Zm129.78-57.47c-1.51-2.93-4.49-4.74-7.78-4.74h-16.04c-1.69,0-3.06,1.36-3.06,3.06v62.21c0,1.69,1.37,3.06,3.06,3.06h34.85c1.69,0,3.06-1.37,3.06-3.06,0-24.99-9.5-51.58-14.09-60.53Zm-20.76,57.47v-56.09h12.97c1,0,1.89,.54,2.34,1.42,.78,1.53,1.74,3.67,2.78,6.3,.44,1.11,.89,2.31,1.35,3.58,.22,.59,.43,1.2,.65,1.82,.25,.72,.5,1.46,.75,2.22,.18,.54,.36,1.09,.54,1.64,.13,.39,.25,.79,.38,1.2,.12,.4,.24,.81,.37,1.22,.11,.34,.21,.68,.31,1.03,.33,1.11,.66,2.25,.98,3.42,.12,.43,.24,.87,.36,1.32,.12,.44,.23,.88,.35,1.33,.23,.9,.46,1.81,.68,2.74,.29,1.23,.58,2.48,.85,3.75,.14,.63,.27,1.27,.4,1.91,.14,.68,.27,1.37,.4,2.06,.26,1.38,.51,2.78,.73,4.18,.23,1.41,.44,2.82,.61,4.25,.06,.47,.12,.94,.17,1.41,.06,.48,.12,.96,.16,1.45,.05,.47,.1,.94,.14,1.41,.07,.7,.13,1.4,.17,2.1,.03,.37,.06,.75,.08,1.12,.04,.54,.07,1.07,.09,1.6,.03,.54,.05,1.07,.07,1.61h-28.68Zm20.76-57.47c-1.51-2.93-4.49-4.74-7.78-4.74h-16.04c-1.69,0-3.06,1.36-3.06,3.06v62.21c0,1.69,1.37,3.06,3.06,3.06h34.85c1.69,0,3.06-1.37,3.06-3.06,0-24.99-9.5-51.58-14.09-60.53Zm-20.76,57.47v-56.09h12.97c1,0,1.89,.54,2.34,1.42,.78,1.53,1.74,3.67,2.78,6.3,.44,1.11,.89,2.31,1.35,3.58,.22,.59,.43,1.2,.65,1.82,.25,.72,.5,1.46,.75,2.22,.18,.54,.36,1.09,.54,1.64,.13,.39,.25,.79,.38,1.2,.12,.4,.24,.81,.37,1.22,.11,.34,.21,.68,.31,1.03,.33,1.11,.66,2.25,.98,3.42,.12,.43,.24,.87,.36,1.32,.12,.44,.23,.88,.35,1.33,.23,.9,.46,1.81,.68,2.74,.29,1.23,.58,2.48,.85,3.75,.14,.63,.27,1.27,.4,1.91,.14,.68,.27,1.37,.4,2.06,.26,1.38,.51,2.78,.73,4.18,.23,1.41,.44,2.82,.61,4.25,.06,.47,.12,.94,.17,1.41,.06,.48,.12,.96,.16,1.45,.05,.47,.1,.94,.14,1.41,.07,.7,.13,1.4,.17,2.1,.03,.37,.06,.75,.08,1.12,.04,.54,.07,1.07,.09,1.6,.03,.54,.05,1.07,.07,1.61h-28.68Zm-48.31,20.97h-12.32c-1.69,0-3.06,1.37-3.06,3.07,0,.87,.37,1.66,.96,2.21,.27,.26,.6,.47,.95,.62,.11,.04,.21,.08,.32,.11,.08,.02,.16,.04,.24,.06,.19,.04,.39,.06,.59,.06h12.32c.08,0,.17,0,.25-.01,.05,0,.11-.01,.16-.02,.52-.07,.99-.27,1.39-.56,.05-.03,.09-.07,.14-.11,.06-.05,.13-.11,.18-.17,.2-.19,.37-.4,.5-.64,.16-.24,.27-.51,.33-.8,.02-.1,.04-.19,.06-.29,.03-.09,.04-.19,.04-.29,.01-.05,.01-.11,.01-.17,0-1.7-1.37-3.07-3.06-3.07Zm-57.65-83.18h-16.04c-3.3,0-6.28,1.81-7.78,4.74-4.6,8.96-14.09,35.54-14.09,60.53,0,1.7,1.37,3.07,3.06,3.07h0s34.85,0,34.85,0c1.69,0,3.06-1.37,3.06-3.06v-62.21c0-1.69-1.37-3.06-3.06-3.06Zm-3.06,62.21h-28.68c.73-22.77,9.34-46.84,13.36-54.68,.46-.87,1.35-1.41,2.34-1.41h12.98v56.09Zm60.71,20.97h-12.32c-1.69,0-3.06,1.37-3.06,3.07,0,.87,.37,1.66,.96,2.21,.27,.26,.6,.47,.95,.62,.11,.04,.21,.08,.32,.11,.08,.02,.16,.04,.24,.06,.19,.04,.39,.06,.59,.06h12.32c.08,0,.17,0,.25-.01,.05,0,.11-.01,.16-.02,.52-.07,.99-.27,1.39-.56,.05-.03,.09-.07,.14-.11,.06-.05,.13-.11,.18-.17,.2-.19,.37-.4,.5-.64,.16-.24,.27-.51,.33-.8,.02-.1,.04-.19,.06-.29,.03-.09,.04-.19,.04-.29,.01-.05,.01-.11,.01-.17,0-1.7-1.37-3.07-3.06-3.07Zm-57.65-83.18h-16.04c-3.3,0-6.28,1.81-7.78,4.74-4.6,8.96-14.09,35.54-14.09,60.53,0,1.7,1.37,3.07,3.06,3.07h0s34.85,0,34.85,0c1.69,0,3.06-1.37,3.06-3.06v-62.21c0-1.69-1.37-3.06-3.06-3.06Zm-3.06,62.21h-28.68c.73-22.77,9.34-46.84,13.36-54.68,.46-.87,1.35-1.41,2.34-1.41h12.98v56.09Zm129.78-57.47c-1.51-2.93-4.49-4.74-7.78-4.74h-16.04c-1.69,0-3.06,1.36-3.06,3.06v62.21c0,1.69,1.37,3.06,3.06,3.06h34.85c1.69,0,3.06-1.37,3.06-3.06,0-24.99-9.5-51.58-14.09-60.53Zm-20.76,57.47v-56.09h12.97c1,0,1.89,.54,2.34,1.42,.78,1.53,1.74,3.67,2.78,6.3,.44,1.11,.89,2.31,1.35,3.58,.22,.59,.43,1.2,.65,1.82,.25,.72,.5,1.46,.75,2.22,.18,.54,.36,1.09,.54,1.64,.13,.39,.25,.79,.38,1.2,.12,.4,.24,.81,.37,1.22,.11,.34,.21,.68,.31,1.03,.33,1.11,.66,2.25,.98,3.42,.12,.43,.24,.87,.36,1.32,.12,.44,.23,.88,.35,1.33,.23,.9,.46,1.81,.68,2.74,.29,1.23,.58,2.48,.85,3.75,.14,.63,.27,1.27,.4,1.91,.14,.68,.27,1.37,.4,2.06,.26,1.38,.51,2.78,.73,4.18,.23,1.41,.44,2.82,.61,4.25,.06,.47,.12,.94,.17,1.41,.06,.48,.12,.96,.16,1.45,.05,.47,.1,.94,.14,1.41,.07,.7,.13,1.4,.17,2.1,.03,.37,.06,.75,.08,1.12,.04,.54,.07,1.07,.09,1.6,.03,.54,.05,1.07,.07,1.61h-28.68Zm20.76-57.47c-1.51-2.93-4.49-4.74-7.78-4.74h-16.04c-1.69,0-3.06,1.36-3.06,3.06v62.21c0,1.69,1.37,3.06,3.06,3.06h34.85c1.69,0,3.06-1.37,3.06-3.06,0-24.99-9.5-51.58-14.09-60.53Zm-20.76,57.47v-56.09h12.97c1,0,1.89,.54,2.34,1.42,.78,1.53,1.74,3.67,2.78,6.3,.44,1.11,.89,2.31,1.35,3.58,.22,.59,.43,1.2,.65,1.82,.25,.72,.5,1.46,.75,2.22,.18,.54,.36,1.09,.54,1.64,.13,.39,.25,.79,.38,1.2,.12,.4,.24,.81,.37,1.22,.11,.34,.21,.68,.31,1.03,.33,1.11,.66,2.25,.98,3.42,.12,.43,.24,.87,.36,1.32,.12,.44,.23,.88,.35,1.33,.23,.9,.46,1.81,.68,2.74,.29,1.23,.58,2.48,.85,3.75,.14,.63,.27,1.27,.4,1.91,.14,.68,.27,1.37,.4,2.06,.26,1.38,.51,2.78,.73,4.18,.23,1.41,.44,2.82,.61,4.25,.06,.47,.12,.94,.17,1.41,.06,.48,.12,.96,.16,1.45,.05,.47,.1,.94,.14,1.41,.07,.7,.13,1.4,.17,2.1,.03,.37,.06,.75,.08,1.12,.04,.54,.07,1.07,.09,1.6,.03,.54,.05,1.07,.07,1.61h-28.68Zm-48.31,20.97h-12.32c-1.69,0-3.06,1.37-3.06,3.07,0,.87,.37,1.66,.96,2.21,.27,.26,.6,.47,.95,.62,.11,.04,.21,.08,.32,.11,.08,.02,.16,.04,.24,.06,.19,.04,.39,.06,.59,.06h12.32c.08,0,.17,0,.25-.01,.05,0,.11-.01,.16-.02,.52-.07,.99-.27,1.39-.56,.05-.03,.09-.07,.14-.11,.06-.05,.13-.11,.18-.17,.2-.19,.37-.4,.5-.64,.16-.24,.27-.51,.33-.8,.02-.1,.04-.19,.06-.29,.03-.09,.04-.19,.04-.29,.01-.05,.01-.11,.01-.17,0-1.7-1.37-3.07-3.06-3.07Zm-57.65-83.18h-16.04c-3.3,0-6.28,1.81-7.78,4.74-4.6,8.96-14.09,35.54-14.09,60.53,0,1.7,1.37,3.07,3.06,3.07h0s34.85,0,34.85,0c1.69,0,3.06-1.37,3.06-3.06v-62.21c0-1.69-1.37-3.06-3.06-3.06Zm-3.06,62.21h-28.68c.73-22.77,9.34-46.84,13.36-54.68,.46-.87,1.35-1.41,2.34-1.41h12.98v56.09Z"/><path class="cls-1" d="M129.23,27.05c-1.09-.42-2.27-.67-3.52-.67-5.3,0-9.61,4.31-9.61,9.61,0,2.64,1.07,5.02,2.79,6.76-3.55-1.4-6.06-4.87-6.06-8.91,0-5.3,4.31-9.61,9.61-9.61,2.65,0,5.05,1.08,6.79,2.82Z"/><path class="cls-1" d="M176.33,73.36H68.43c0-3.4,3.04-6.17,6.79-6.17h94.32c3.75,0,6.79,2.77,6.79,6.17Z"/><path class="cls-1" d="M150.74,107.01v12.15c-9.53,1.49-22.77,11.37-26.77,19.78-4.03,8.45-4.81,16.16-4.9,24.16h-25.07v-56.09h56.74Z"/><path class="cls-1" d="M94,175.54v63.25h48.43v-63.25h-48.43Zm35.69,17.04h-12.31c-1.69,0-3.07-1.37-3.07-3.06,0-.06,.02-.11,.02-.17-.59-.55-.96-1.34-.96-2.21,0-1.7,1.37-3.07,3.06-3.07h12.32c1.69,0,3.06,1.37,3.06,3.07,0,.06,0,.12-.01,.17,.58,.56,.95,1.34,.95,2.21,0,1.7-1.37,3.06-3.06,3.06Z"/><path class="cls-1" d="M205.42,90.35c-.63-1.32-1.86-2.14-3.2-2.14H42.54c-1.34,0-2.57,.82-3.2,2.14-4.58,9.51-19.5,42.88-19.5,72.98s14.93,63.73,19.51,73.32c.63,1.32,1.86,2.14,3.2,2.14h45.33V103.96c0-1.7,1.37-3.07,3.06-3.07h62.86c1.69,0,3.06,1.37,3.06,3.06V238.79h45.35c1.34,0,2.57-.82,3.21-2.14,4.57-9.6,19.5-43.22,19.5-73.32s-14.92-63.48-19.5-72.98ZM71.39,228.71c0,1.36-1.1,2.46-2.46,2.46h-12.91c-2.66,0-5.06-1.46-6.27-3.81-3.7-7.22-11.34-28.62-11.34-48.74,0-1.36,1.1-2.47,2.46-2.47h0s28.06,.01,28.06,.01c1.36,0,2.46,1.1,2.46,2.46v50.09Zm2.77-62.55c0,1.69-1.37,3.06-3.06,3.06H36.25c-1.69,0-3.06-1.36-3.06-3.06,0-24.99,9.49-51.57,14.09-60.53,1.5-2.93,4.48-4.74,7.78-4.74h16.04c1.69,0,3.06,1.37,3.06,3.06v62.21Zm120.63,60.55c-1.21,2.35-3.61,3.81-6.26,3.81h-12.91c-1.36,0-2.47-1.1-2.47-2.46v-50.09c0-1.36,1.11-2.47,2.47-2.47h28.06c1.36,0,2.46,1.1,2.46,2.47,0,20.12-7.65,41.52-11.35,48.74Zm14.06-57.49h-34.85c-1.69,0-3.06-1.37-3.06-3.06v-62.21c0-1.7,1.37-3.06,3.06-3.06h16.04c3.29,0,6.27,1.81,7.78,4.74,4.59,8.95,14.09,35.54,14.09,60.53,0,1.69-1.37,3.06-3.06,3.06Z"/><path class="cls-1" d="M187.39,130.9l.59,32.2h-10.92v-56.09h12.97c1,0,1.89,.54,2.34,1.42,.78,1.53,1.74,3.67,2.78,6.3-8.94,1.36-7.76,16.17-7.76,16.17Z"/><path class="cls-1" d="M68.04,107.01v8.52c-3.13-.33-7.87,.46-10.97,8.21-3.6,8.99-7.19,25.16-7.74,39.36h-9.97c.73-22.77,9.34-46.84,13.36-54.68,.46-.87,1.35-1.41,2.34-1.41h12.98Z"/><g><path class="cls-2" d="M68.04,115.53v47.57h-18.71c.55-14.2,4.14-30.37,7.74-39.36,3.1-7.75,7.84-8.54,10.97-8.21Z"/><path class="cls-2" d="M71.39,178.62v50.09c0,1.36-1.1,2.46-2.46,2.46h-12.91c-2.66,0-5.06-1.46-6.27-3.81-3.7-7.22-11.34-28.62-11.34-48.74,0-1.36,1.1-2.47,2.46-2.47h0s28.06,.01,28.06,.01c1.36,0,2.46,1.1,2.46,2.46Z"/><rect class="cls-2" x="68.43" y="73.36" width="107.9" height="8.73"/><path class="cls-2" d="M205.74,163.1h-17.76l-.59-32.2s-1.18-14.81,7.76-16.17c.44,1.11,.89,2.31,1.35,3.58,.22,.59,.43,1.2,.65,1.82,.25,.72,.5,1.46,.75,2.22,.18,.54,.36,1.09,.54,1.64,.13,.39,.25,.79,.38,1.2,.12,.4,.24,.81,.37,1.22,.11,.34,.21,.68,.31,1.03,.33,1.11,.66,2.25,.98,3.42,.12,.43,.24,.87,.36,1.32,.12,.44,.23,.88,.35,1.33,.23,.9,.46,1.81,.68,2.74,.29,1.23,.58,2.48,.85,3.75,.14,.63,.27,1.27,.4,1.91,.14,.68,.27,1.37,.4,2.06,.26,1.38,.51,2.78,.73,4.18,.23,1.41,.44,2.82,.61,4.25,.06,.47,.12,.94,.17,1.41,.06,.48,.12,.96,.16,1.45,.05,.47,.1,.94,.14,1.41,.07,.7,.13,1.4,.17,2.1,.03,.37,.06,.75,.08,1.12,.04,.54,.07,1.07,.09,1.6,.03,.54,.05,1.07,.07,1.61Z"/><path class="cls-2" d="M132.04,33.84c0,5.29-4.31,9.61-9.6,9.61-.19,0-.38-.01-.57-.02-.23-.01-.46-.03-.69-.07-.18-.02-.37-.05-.55-.09-.2-.03-.39-.08-.58-.13-.19-.05-.37-.1-.55-.16-.2-.07-.4-.14-.6-.22h0c-1.72-1.75-2.79-4.13-2.79-6.77,0-5.3,4.31-9.61,9.61-9.61,1.25,0,2.43,.25,3.52,.67h.01c.21,.22,.41,.45,.61,.68h0c.2,.25,.38,.49,.55,.74h0c.17,.27,.33,.53,.48,.79h0c.13,.24,.24,.47,.34,.7,.01,.01,.01,.03,.01,.04,.06,.12,.11,.24,.15,.36,.06,.13,.11,.26,.15,.4,.05,.14,.09,.28,.13,.42s.08,.28,.11,.42c.01,.02,.02,.05,.02,.08,.04,.15,.07,.31,.1,.47,0,.03,0,.06,0,.09,.03,.15,.05,.3,.07,.46,.03,.19,.04,.38,.05,.57s.02,.38,.02,.57Z"/><polygon class="cls-2" points="150.74 169.22 150.74 238.79 142.43 238.79 142.43 175.54 94 175.54 94 169.22 150.74 169.22"/><path class="cls-2" d="M206.14,177.97c0,20.12-7.65,41.52-11.35,48.74-1.21,2.35-3.61,3.81-6.26,3.81h-12.91c-1.36,0-2.47-1.1-2.47-2.46v-50.09c0-1.36,1.11-2.47,2.47-2.47h28.06c1.36,0,2.46,1.1,2.46,2.47Z"/><path class="cls-2" d="M150.74,119.16v43.94h-31.67c.09-8,.87-15.71,4.9-24.16,4-8.41,17.24-18.29,26.77-19.78Z"/><path class="cls-2" d="M132.75,189.52c0,1.7-1.37,3.06-3.06,3.06h-12.31c-1.69,0-3.07-1.37-3.07-3.06,0-.06,.02-.11,.02-.17,.27,.26,.6,.47,.95,.62,.11,.04,.21,.08,.32,.11,.08,.02,.16,.04,.24,.06,.19,.04,.39,.06,.59,.06h12.32c.08,0,.17,0,.25-.01,.05,0,.11-.01,.16-.02,.52-.07,.99-.27,1.39-.56,.05-.03,.09-.07,.14-.11,.06-.05,.13-.11,.18-.17,.2-.19,.37-.4,.5-.64,.14-.25,.26-.52,.33-.8,.02-.1,.04-.19,.06-.29,.01-.1,.02-.2,.03-.3h0c.58,.57,.95,1.35,.95,2.22Z"/></g></g></g></svg>