<?xml version="1.0" encoding="UTF-8"?><svg id="Layer_2" xmlns="http://www.w3.org/2000/svg" viewBox="0 0 60 60"><defs><style>.cls-1{fill:#f8f3ea;}.cls-2{fill:#c72021;}</style></defs><g id="Layer_1-2"><g><path d="M29.89,0V7.11h1.46c5.75,0,11.15,2.25,15.22,6.32,4.07,4.07,6.31,9.47,6.31,15.22v1.46h7.11v-1.47c-.01-7.65-2.99-14.83-8.4-20.24C46.19,2.99,39.01,.01,31.36,0h-1.47Z"/><path d="M29.89,10.45v7.11h1.46c6.1,0,11.08,4.98,11.08,11.08v1.46h7.11v-1.47c-.01-10.02-8.17-18.17-18.19-18.19h-1.47Z"/><path d="M11.92,1.47C9.76,1.47,0,13.53,0,15.1c0,.13,.21,12.69,16.07,28.83,16.14,15.87,28.7,16.07,28.83,16.07,1.56,0,13.63-9.76,13.63-11.92,0-.74-.51-1.33-1.27-1.97-1.79-1.5-12.07-8.02-14.19-8.02-.05,0-.09,0-.13,.01-.84,.15-1.48,.86-3.19,2.9-.79,1.01-1.66,1.95-2.6,2.82-1.72-.42-3.39-1.03-4.96-1.84-6.18-3.01-11.17-8-14.18-14.19-.81-1.58-1.42-3.24-1.84-4.96,.87-.94,1.81-1.81,2.82-2.6,2.04-1.71,2.76-2.35,2.9-3.19,.31-1.79-6.48-12.5-8.01-14.32-.64-.76-1.22-1.26-1.97-1.26h0Z"/><path class="cls-1" d="M45.99,28.64h2.09c-.01-9.23-7.49-16.71-16.72-16.72v2.09c8.08,0,14.63,6.55,14.63,14.63Z"/><path class="cls-2" d="M43.9,28.64h2.09c0-8.08-6.55-14.63-14.63-14.63v2.09c6.92,0,12.54,5.62,12.54,12.54Z"/><path class="cls-1" d="M56.44,28.64h2.09c-.02-15-12.17-27.16-27.18-27.18V3.56c13.85,0,25.09,11.23,25.09,25.09Z"/><path class="cls-2" d="M54.35,28.64h2.09c0-13.85-11.23-25.09-25.09-25.09v2.09c12.69,.01,22.98,10.3,23,23Z"/><path class="cls-1" d="M35.26,52.98c4.38,1.75,7.28,2.01,7.93,2.05,.74-.3,3.31-2.04,6.56-4.78,2.23-1.88,3.74-3.36,4.66-4.38-1.27-.85-2.98-1.94-4.73-2.99-4.07-2.43-5.99-3.21-6.55-3.31-.4,.17-1.33,1.28-2.24,2.36-.83,1.06-1.76,2.05-2.74,2.97l-.58,.53-.76-.18c-.67-.16-1.33-.35-1.99-.57-.57-.11-1.14-.24-1.7-.39-6.7-1.69-12.71-5.63-16.94-11.09-1.14-1.41-2.11-2.96-2.88-4.6l-.72-1.37c-.85-1.67-1.51-3.45-1.95-5.27l-.18-.76,.53-.58c.83-.89,5.96-5.98,7.71-7.55-.43-.78-.94-1.69-1.58-2.75-1.79-3-3.69-5.86-4.36-6.65-.43-.51-.66-.67-.77-.72-.66,.33-2.67,2.06-5.74,5.71C3.51,11.91,1.77,14.48,1.47,15.22c.04,.65,.31,3.55,2.05,7.93,0,0,0,.02,0,.02,2.19,4.34,5.87,9.99,11.99,16.22,8.09,7.95,15.2,11.78,19.74,13.59Z"/><path class="cls-2" d="M10.98,20.62l-.53,.58,.18,.76c.44,1.83,1.1,3.6,1.95,5.27l.72,1.37c.78,1.64,1.75,3.18,2.88,4.6,4.23,5.46,10.24,9.4,16.94,11.09,.56,.15,1.13,.28,1.7,.39-1.13-.38-2.23-.84-3.28-1.38-6.43-3.14-11.7-8.41-14.84-14.84-.85-1.67-1.51-3.45-1.95-5.27l-.18-.76,.53-.58c.91-.99,1.91-1.91,2.97-2.74,1.13-.95,2.19-1.84,2.37-2.24-.07-.41-.52-1.58-1.74-3.8-1.75,1.57-6.89,6.66-7.71,7.55Z"/><path class="cls-2" d="M56.32,47.24c-.33-.27-1.01-.76-1.91-1.37-.92,1.02-2.43,2.5-4.66,4.38-3.25,2.74-5.82,4.48-6.56,4.78-.65-.04-3.55-.31-7.93-2.05-4.54-1.81-11.65-5.64-19.74-13.59-6.12-6.23-9.8-11.88-11.99-16.22,1.82,4.54,5.64,11.64,13.58,19.72,8.09,7.95,15.2,11.78,19.74,13.59,4.38,1.75,7.28,2.01,7.93,2.05,.74-.3,3.31-2.04,6.56-4.78,3.65-3.07,5.38-5.08,5.71-5.74-.05-.11-.21-.34-.73-.77Z"/></g></g></svg>