<?xml version="1.0" encoding="UTF-8"?><svg id="Layer_2" xmlns="http://www.w3.org/2000/svg" viewBox="0 0 257.47 309.34"><defs><style>.cls-1{fill:none;}.cls-2{fill:#f9f4eb;}.cls-3{fill:#c82021;}</style></defs><g id="Layer_1-2"><g><path d="M246.1,234.13h-116.82v-17.82c.28-.14,.53-.32,.76-.55,12.33-12.33,24.28-19.88,36.53-23.07,11.09-2.89,24.19-3.58,35.94-3.12,.21,.19,.44,.36,.71,.5,13.7,7,18.31,18.12,21.07,24.76,.47,1.12,1.56,1.85,2.77,1.85,7.19,0,19.07-9.32,19.07-19.94v-.08c-.46-19.25-13.74-54.38-30.23-79.96-14.6-22.64-32.61-37.53-43.59-43.4l-3.2-1.71c-8.81-4.67-17.93-9.51-25.67-15.78-8.13-6.58-13.2-14.87-14.16-22.81V3c0-1.66-1.34-3-3-3s-3,1.34-3,3v2.27c-.27,.45-.43,.98-.43,1.54,0,16.68-10.39,53.54-25.84,91.72-17.61,43.47-37.31,78.02-54.08,94.78-1.17,1.17-1.17,3.07,0,4.24,4.74,4.74,26.65,5.32,36.98,5.32,1.93,0,3.47-.02,4.4-.04,9.16-.16,29.1-1.02,38.97-5.24v36.54H35.48c-6.73,0-11.32,4.86-12.6,13.32-.28,1.92-.37,3.83-.45,5.68-.14,3.09-.27,6.01-1.34,8.51-.72,1.71-1.92,3.29-3.19,4.97-.86,1.14-1.75,2.32-2.55,3.62-3.5,5.67-4.52,11.7-3.04,17.92,.22,.94,.91,3.79,3.5,5.05,1.83,.89,3.44,.07,6.64-1.55,4.78-2.42,12.79-6.47,23.15-6.47s20.82,3.67,29.88,6.92c7.84,2.81,15.24,5.46,21.92,5.46,9.83,0,16.49-2.64,22.93-5.19,5.56-2.2,10.81-4.28,17.79-4.28,6.49,0,12.65,1.66,19.17,3.42,7.39,2,15.04,4.07,24.12,4.07,18.48,0,25.41-10.24,31.53-19.27,2.82-4.17,5.49-8.11,9.13-10.97,5.86-4.59,17.15-9.71,23.98-9.71,10.31,0,11.42-7.09,11.42-10.14,0-7.64-3.72-11.36-11.37-11.36Zm-6.23-35.17s-.02,.08-.03,.12c-.06,.24-.12,.47-.2,.7-.26,.8-.61,1.58-1.04,2.33-.07,.13-.14,.26-.23,.39-.26,.44-.55,.86-.86,1.28-.18,.24-.36,.47-.55,.69-.38,.46-.79,.91-1.22,1.33-.42,.42-.86,.82-1.3,1.2-.23,.18-.45,.37-.68,.54-.23,.19-.45,.35-.68,.51-.46,.34-.92,.64-1.37,.9-.99,.61-1.96,1.07-2.81,1.36-2.43-5.68-6.22-13.3-14.1-19.81,1.39,.16,2.73,.33,4.02,.52,.59,.08,1.2,.18,1.82,.3,.83,.15,1.67,.33,2.53,.53,.51,.11,1.02,.23,1.54,.36,.28,.07,.56,.14,.84,.22,.45,.11,.9,.24,1.35,.37h.02c.52,.15,1.03,.3,1.55,.46,.39,.12,.78,.24,1.17,.37,.57,.18,1.13,.36,1.68,.56,.24,.08,.47,.16,.71,.25,.19,.06,.38,.13,.56,.2,.93,.34,1.82,.7,2.67,1.06,.38,.16,.76,.32,1.12,.49,.54,.24,1.05,.49,1.54,.74,.16,.08,.32,.16,.47,.25,.61,.32,1.16,.64,1.64,.96-.04,.28-.1,.55-.16,.82ZM129.28,49.26c.12,.18,.25,.36,.37,.54,2.62,3.8,5.98,7.4,10.01,10.67,8.2,6.63,17.57,11.61,26.64,16.42l3.18,1.7c10.35,5.53,27.4,19.68,41.38,41.36,15.93,24.72,26.44,53.78,28.78,71.15-6.13-2.93-14.65-5.26-19.97-6.02-14.9-2.13-37.07-2.77-54.61,1.8-11.47,2.99-22.58,9.38-33.82,19.47,.31-3.45,.85-6.79,1.61-10.03,.01-.03,.02-.06,.02-.09,.18-.76,.37-1.52,.58-2.26,.18-.69,.38-1.38,.59-2.06,.06-.21,.13-.42,.19-.63,.18-.59,.38-1.17,.58-1.75,.23-.65,.46-1.29,.71-1.93,.14-.37,.29-.74,.44-1.11,.24-.6,.49-1.19,.75-1.78,.26-.59,.52-1.17,.8-1.75,1.44-3.03,3.04-6.09,4.57-9.05,3.55-6.81,7.21-13.85,9.59-21.4,5.79-18.36,3.39-39.21-6.43-55.78-1.76-2.98-3.77-5.85-5.7-8.62-4.25-6.09-8.26-11.84-9.86-18.51-.08-.33-.22-.63-.4-.9v-19.44Zm0,34.27c1.67,2.76,3.52,5.4,5.33,8.01,1.88,2.69,3.82,5.46,5.47,8.25,.67,1.14,1.31,2.3,1.9,3.48,.26,.5,.5,1,.73,1.5,.07,.14,.14,.28,.2,.43,.26,.52,.49,1.05,.71,1.59,.16,.34,.31,.71,.44,1.06,.31,.73,.59,1.47,.86,2.22,.1,.27,.19,.53,.28,.8,.14,.39,.27,.78,.4,1.17,.07,.2,.13,.4,.19,.6,.03,.08,.05,.16,.08,.24,.11,.32,.2,.64,.29,.97,.07,.23,.13,.46,.2,.69,.15,.51,.29,1.02,.41,1.53,.17,.63,.32,1.26,.46,1.9,0,.02,0,.03,.01,.04,.56,2.53,.97,5.11,1.23,7.69,.12,1.32,.21,2.64,.26,3.96,.07,1.62,.07,3.24,0,4.86-8.73-8.94-16.58-21.95-19.44-32.61,0,0,0-.01-.01-.01v-18.37Zm0,34.12c4.85,9.15,11.65,18.19,18.69,24.42-.47,2.92-1.13,5.81-2.02,8.64-2.23,7.05-5.61,13.55-9.19,20.43-1.56,3-3.18,6.11-4.67,9.23-1.06,2.22-1.98,4.51-2.81,6.84V117.65Zm-44.78,79.18c-16.7,.31-28.93-.96-34.39-2.36,16.63-18.21,35.57-51.98,52.46-93.69,8.87-21.92,16.1-43.49,20.71-61.26V190.71c-2.66,2.64-15.92,5.68-38.78,6.12Zm161.55,52.8c-8.44,0-20.94,5.7-27.68,10.99-.94,.74-1.81,1.52-2.64,2.34-.76,.76-1.48,1.54-2.15,2.35-.35,.4-.69,.81-1.02,1.23-.82,1.03-1.6,2.08-2.35,3.15-.38,.53-.75,1.07-1.12,1.61-.38,.55-.75,1.09-1.12,1.64-.6,.89-1.2,1.77-1.81,2.64-.3,.43-.61,.86-.91,1.29-.31,.43-.62,.85-.94,1.27-1.26,1.67-2.6,3.25-4.12,4.67-4.25,4.01-9.84,6.77-18.78,6.77-8.29,0-15.54-1.96-22.56-3.86-6.91-1.87-13.44-3.63-20.73-3.63-8.12,0-14.16,2.39-20,4.7-6.19,2.45-12.03,4.77-20.72,4.77-5.64,0-12.56-2.48-19.9-5.11-9.51-3.41-20.3-7.27-31.9-7.27s-20.94,4.63-25.86,7.12c-.49,.24-1.03,.52-1.52,.75-.02-.09-.05-.19-.07-.3-.78-3.23-.65-6.33,.39-9.36,.02-.04,.03-.07,.04-.11,.12-.33,.24-.66,.38-.99,.11-.26,.22-.53,.35-.79,.12-.26,.25-.53,.39-.79,.23-.45,.49-.89,.76-1.33,.39-.63,.82-1.25,1.28-1.88h.01c.3-.42,.61-.85,.94-1.28,1.43-1.89,2.91-3.85,3.92-6.22,1.49-3.5,1.65-7.11,1.81-10.6,.08-1.77,.15-3.45,.4-5.05,.82-5.45,3.06-8.22,6.66-8.22H246.1c4.03,0,5.37,.78,5.37,5.36,0,2.09-.42,4.14-5.42,4.14Z"/><path class="cls-2" d="M148.73,134.52c-8.73-8.94-16.58-21.95-19.44-32.61,0,0,0-.01-.01-.01v-5.52c3.75,11.02,11.04,23.39,19.45,33.28,.07,1.62,.07,3.24,0,4.86Z"/><path class="cls-2" d="M108.65,111.8c-11.93,33.97-25.31,61.47-37.05,76.3,3.85,1.14,12.49,2.17,24.29,1.92,16.15-.36,25.51-2.84,27.39-4.99v5.68c-2.66,2.64-15.92,5.68-38.78,6.12-16.7,.31-28.93-.96-34.39-2.36,16.63-18.21,35.57-51.98,52.46-93.69,8.87-21.92,16.1-43.49,20.71-61.26v22.39c-3.26,14.47-8.36,32.04-14.63,49.89Z"/><path class="cls-2" d="M231.71,208.95c-.99,.61-1.96,1.07-2.81,1.36-2.43-5.68-6.22-13.3-14.1-19.81,1.39,.16,2.73,.33,4.02,.52,.59,.08,1.2,.18,1.82,.3,5.47,6.07,8.76,12.4,11.07,17.63Z"/><path class="cls-2" d="M239.64,191.1c-6.13-2.93-14.65-5.26-19.97-6.02-14.9-2.13-37.07-2.77-54.61,1.8-11.47,2.99-22.58,9.38-33.82,19.47,.31-3.45,.85-6.79,1.61-10.03-.35,1.54-.66,3.11-.92,4.7,11.73-9.4,23.42-15.56,35.43-18.69,3.56-.93,7.27-1.66,11.07-2.26-.58-2.24-1.48-4.4-2.85-6.44-1.96-2.92-4.4-5.55-5.81-8.77-2.73-6.22-1.14-13.37,.15-20.04,2.56-13.25-.93-35.03-12.42-48.92-7.82-9.45-13.36-13.35-19.23-23.78-4.16-7.4-5.49-14.21-8.62-22.32,2.62,3.8,5.98,7.4,10.01,10.67,8.2,6.63,17.57,11.61,26.64,16.42l3.18,1.7c10.35,5.53,27.4,19.68,41.38,41.36,15.93,24.72,26.44,53.78,28.78,71.15Z"/><path class="cls-2" d="M200.19,282.81c-4.25,4.01-9.84,6.77-18.78,6.77-8.29,0-15.54-1.96-22.56-3.86-6.91-1.87-13.44-3.63-20.73-3.63-8.12,0-14.16,2.39-20,4.7-6.19,2.45-12.03,4.77-20.72,4.77-5.64,0-12.56-2.48-19.9-5.11-9.51-3.41-20.3-7.27-31.9-7.27s-20.94,4.63-25.86,7.12c-.49,.24-1.03,.52-1.52,.75-.02-.09-.05-.19-.07-.3-.78-3.23-.65-6.33,.39-9.36-.55,1.65-.84,3.32-.87,5.01,5.58-2.91,14.4-7.14,24.77-7.14,14.82,0,23.85,3.11,33.98,6.74,7.82,2.8,15.19,5.44,21.19,5.44,9.26,0,15.48-2.47,22.07-5.08,6.22-2.46,12.66-4,21.3-4,7.77,0,14.72,1.87,22.08,3.86,7.48,2.03,14.2,4.12,23.03,4.12,5.38,0,10.62-1.95,14.1-3.53Z"/><path class="cls-2" d="M246.1,240.13H35.48c-3.6,0-5.84,2.77-6.66,8.22-.25,1.6-.32,3.28-.4,5.05-.16,3.49-.32,7.1-1.81,10.6-1.01,2.37-2.49,4.33-3.92,6.22-.33,.43-.64,.86-.94,1.28,7.83-3.4,16.8-4.52,25.7-4.04h127.05s22.76,.46,41.23-4.5c.83-.82,1.7-1.6,2.64-2.34,6.74-5.29,19.24-10.99,27.68-10.99,5,0,5.42-2.05,5.42-4.14,0-4.58-1.34-5.36-5.37-5.36Zm-176.4,13.83c0,1.47-1.19,2.67-2.67,2.67h-14.66c-1.47,0-2.67-1.2-2.67-2.67v-2.66c0-1.48,1.2-2.67,2.67-2.67h14.66c1.48,0,2.67,1.19,2.67,2.67v2.66Zm30.79,0c0,1.47-1.19,2.67-2.67,2.67h-14.66c-1.47,0-2.67-1.2-2.67-2.67v-2.66c0-1.48,1.2-2.67,2.67-2.67h14.66c1.48,0,2.67,1.19,2.67,2.67v2.66Zm30.79,0c0,1.47-1.19,2.67-2.67,2.67h-14.66c-1.47,0-2.67-1.2-2.67-2.67v-2.66c0-1.48,1.2-2.67,2.67-2.67h14.66c1.48,0,2.67,1.19,2.67,2.67v2.66Zm30.79,0c0,1.47-1.19,2.67-2.67,2.67h-14.66c-1.47,0-2.67-1.2-2.67-2.67v-2.66c0-1.48,1.2-2.67,2.67-2.67h14.66c1.48,0,2.67,1.19,2.67,2.67v2.66Zm30.79,0c0,1.47-1.19,2.67-2.67,2.67h-14.66c-1.47,0-2.67-1.2-2.67-2.67v-2.66c0-1.48,1.2-2.67,2.67-2.67h14.66c1.48,0,2.67,1.19,2.67,2.67v2.66Z"/><path class="cls-3" d="M123.28,61.91v123.12c-1.88,2.15-11.24,4.63-27.39,4.99-11.8,.25-20.44-.78-24.29-1.92,11.74-14.83,25.12-42.33,37.05-76.3,6.27-17.85,11.37-35.42,14.63-49.89Z"/><path d="M235.45,287.96c-12.8,0-18.61,3.89-24.23,7.65-5.73,3.84-11.15,7.47-25.03,7.47-9.51,0-17.01-1.98-24.26-3.89-6.81-1.8-13.85-3.65-22.1-3.65-9.1,0-14.95,1.96-20.6,3.86-5.78,1.94-11.76,3.94-21.83,3.94s-16.93-2.56-23.87-5.27c-7.37-2.88-15-5.85-27.2-5.85-9.07,0-14.35,2.53-19.45,4.98-5.68,2.72-11.55,5.53-23.87,5.53-1.66,0-3,1.34-3,3s1.34,3,3,3c13.69,0,20.48-3.25,26.47-6.12,4.91-2.35,9.15-4.39,16.86-4.39,11.07,0,17.85,2.64,25.02,5.44,7.15,2.79,14.55,5.68,26.05,5.68s17.5-2.16,23.74-4.25c5.44-1.82,10.57-3.54,18.7-3.54,7.47,0,13.83,1.68,20.57,3.46,7.62,2.01,15.5,4.09,25.79,4.09,15.7,0,22.43-4.5,28.37-8.48,5.32-3.56,9.92-6.64,20.89-6.64,1.66,0,3-1.34,3-3s-1.34-3-3-3Z"/><path d="M192.86,251.3v2.66c0,1.47-1.19,2.67-2.67,2.67h-14.66c-1.47,0-2.67-1.2-2.67-2.67v-2.66c0-1.48,1.2-2.67,2.67-2.67h14.66c1.48,0,2.67,1.19,2.67,2.67Z"/><path d="M162.07,251.3v2.66c0,1.47-1.19,2.67-2.67,2.67h-14.66c-1.47,0-2.67-1.2-2.67-2.67v-2.66c0-1.48,1.2-2.67,2.67-2.67h14.66c1.48,0,2.67,1.19,2.67,2.67Z"/><path d="M69.7,251.3v2.66c0,1.47-1.19,2.67-2.67,2.67h-14.66c-1.47,0-2.67-1.2-2.67-2.67v-2.66c0-1.48,1.2-2.67,2.67-2.67h14.66c1.48,0,2.67,1.19,2.67,2.67Z"/><path d="M131.28,251.3v2.66c0,1.47-1.19,2.67-2.67,2.67h-14.66c-1.47,0-2.67-1.2-2.67-2.67v-2.66c0-1.48,1.2-2.67,2.67-2.67h14.66c1.48,0,2.67,1.19,2.67,2.67Z"/><path d="M100.49,251.3v2.66c0,1.47-1.19,2.67-2.67,2.67h-14.66c-1.47,0-2.67-1.2-2.67-2.67v-2.66c0-1.48,1.2-2.67,2.67-2.67h14.66c1.48,0,2.67,1.19,2.67,2.67Z"/><path class="cls-1" d="M131.28,251.3v2.66c0,1.47-1.19,2.67-2.67,2.67h-14.66c-1.47,0-2.67-1.2-2.67-2.67v-2.66c0-1.48,1.2-2.67,2.67-2.67h14.66c1.48,0,2.67,1.19,2.67,2.67Z"/><path class="cls-1" d="M69.7,251.3v2.66c0,1.47-1.19,2.67-2.67,2.67h-14.66c-1.47,0-2.67-1.2-2.67-2.67v-2.66c0-1.48,1.2-2.67,2.67-2.67h14.66c1.48,0,2.67,1.19,2.67,2.67Z"/><path class="cls-1" d="M100.49,251.3v2.66c0,1.47-1.19,2.67-2.67,2.67h-14.66c-1.47,0-2.67-1.2-2.67-2.67v-2.66c0-1.48,1.2-2.67,2.67-2.67h14.66c1.48,0,2.67,1.19,2.67,2.67Z"/><path class="cls-1" d="M162.07,251.3v2.66c0,1.47-1.19,2.67-2.67,2.67h-14.66c-1.47,0-2.67-1.2-2.67-2.67v-2.66c0-1.48,1.2-2.67,2.67-2.67h14.66c1.48,0,2.67,1.19,2.67,2.67Z"/><path class="cls-1" d="M192.86,251.3v2.66c0,1.47-1.19,2.67-2.67,2.67h-14.66c-1.47,0-2.67-1.2-2.67-2.67v-2.66c0-1.48,1.2-2.67,2.67-2.67h14.66c1.48,0,2.67,1.19,2.67,2.67Z"/><path class="cls-3" d="M215.75,262.96c-.76,.76-1.48,1.54-2.17,2.35-.35,.4-.69,.81-1.02,1.23-.82,1.03-1.6,2.08-2.35,3.15-.38,.53-.75,1.07-1.12,1.61-.38,.55-.75,1.09-1.12,1.64-.6,.89-1.2,1.77-1.81,2.64-.3,.43-.61,.86-.91,1.29-.31,.43-.62,.85-.94,1.27-1.27,1.66-2.61,3.24-4.12,4.67-3.48,1.58-8.72,3.53-14.1,3.53-8.83,0-15.55-2.09-23.03-4.12-7.36-1.99-14.31-3.86-22.08-3.86-8.64,0-15.08,1.54-21.3,4-6.59,2.61-12.81,5.08-22.07,5.08-6,0-13.37-2.64-21.19-5.44-10.13-3.63-19.16-6.74-33.98-6.74-10.37,0-19.19,4.23-24.77,7.14,.03-1.69,.32-3.36,.87-5.01,.02-.04,.03-.07,.04-.11,.12-.33,.24-.66,.38-.99,.11-.26,.22-.53,.35-.79,.12-.26,.25-.53,.39-.79,.23-.45,.49-.89,.76-1.33,.39-.63,.82-1.25,1.28-1.88h.01c7.83-3.4,16.8-4.52,25.7-4.04h127.05s22.76,.46,41.23-4.5h.02Z"/><path class="cls-3" d="M240.03,198.14c-.04,.28-.1,.55-.16,.82-.01,.04-.02,.08-.03,.12-.06,.24-.12,.47-.2,.7-.26,.8-.61,1.58-1.04,2.33-.07,.13-.14,.26-.23,.39-.26,.44-.55,.86-.86,1.28-.18,.24-.36,.47-.55,.69-.38,.46-.79,.91-1.22,1.33-.42,.42-.86,.82-1.3,1.2-.23,.18-.45,.37-.68,.54-.23,.18-.45,.35-.68,.51-.46,.33-.92,.63-1.37,.9-2.31-5.23-5.6-11.56-11.07-17.63,.83,.15,1.67,.33,2.53,.53,.51,.11,1.02,.23,1.54,.36,.28,.07,.56,.14,.84,.22,.45,.11,.9,.24,1.35,.37h.02c.52,.15,1.03,.3,1.55,.46,.39,.12,.78,.24,1.17,.37,.57,.18,1.13,.36,1.68,.56,.24,.08,.47,.16,.71,.25,.19,.06,.38,.13,.56,.2,.93,.34,1.82,.7,2.67,1.06,.38,.16,.76,.32,1.12,.49,.54,.24,1.05,.49,1.54,.74,.16,.08,.32,.16,.47,.25,.61,.32,1.16,.64,1.64,.96Z"/><path class="cls-3" d="M148.73,129.66c-8.41-9.89-15.7-22.26-19.45-33.28v-12.85c1.67,2.76,3.52,5.4,5.33,8.01,1.88,2.69,3.82,5.46,5.47,8.25,.67,1.14,1.31,2.3,1.9,3.48,.25,.5,.5,.99,.73,1.5,.07,.14,.14,.28,.2,.43,.25,.53,.49,1.05,.71,1.59,.15,.35,.3,.7,.44,1.06,.31,.73,.59,1.47,.86,2.22,.1,.27,.19,.53,.28,.8,.14,.39,.27,.78,.4,1.17,.07,.2,.13,.4,.19,.6,.03,.08,.05,.16,.08,.24,.1,.32,.2,.64,.29,.97,.07,.23,.13,.46,.2,.69,.14,.51,.28,1.02,.41,1.53,.16,.64,.31,1.27,.46,1.9,0,.02,0,.03,.01,.04,.56,2.54,.97,5.1,1.23,7.69,.12,1.32,.21,2.64,.26,3.96Z"/><path class="cls-3" d="M178.43,180.07c-3.8,.6-7.51,1.33-11.07,2.26-12.01,3.13-23.7,9.29-35.43,18.69,.26-1.59,.57-3.16,.92-4.7,.01-.03,.02-.06,.02-.09,.18-.76,.37-1.52,.58-2.26,.18-.69,.38-1.38,.59-2.06,.06-.21,.13-.42,.19-.63,.19-.59,.38-1.17,.58-1.75,.23-.65,.46-1.29,.71-1.93,.14-.37,.29-.74,.44-1.11,.24-.6,.49-1.19,.75-1.78,.26-.59,.52-1.17,.8-1.75,1.44-3.03,3.04-6.09,4.57-9.05,3.55-6.81,7.21-13.85,9.59-21.4,5.79-18.36,3.39-39.21-6.43-55.78-1.76-2.98-3.77-5.85-5.7-8.62-4.25-6.09-8.26-11.84-9.86-18.51-.08-.33-.22-.63-.4-.9v-19.44c.12,.18,.25,.36,.37,.54,3.13,8.11,4.46,14.92,8.62,22.32,5.87,10.43,11.41,14.33,19.23,23.78,11.49,13.89,14.98,35.67,12.42,48.92-1.29,6.67-2.88,13.82-.15,20.04,1.41,3.22,3.85,5.85,5.81,8.77,1.37,2.04,2.27,4.2,2.85,6.44Z"/></g></g></svg>