<?xml version="1.0" encoding="UTF-8"?><svg id="Layer_2" xmlns="http://www.w3.org/2000/svg" viewBox="0 0 306.96 313.07"><defs><style>.cls-1{fill:#f9f4eb;}.cls-2{fill:#c82021;}</style></defs><g id="Layer_1-2"><g><path d="M105.29,101.95c0,.77-.63,1.39-1.39,1.39h-10.23c-.77,0-1.39-.62-1.39-1.39v-9.09c0-3.56,2.75-6.69,6.32-6.78,3.66-.1,6.66,2.84,6.66,6.48l.03,9.39Z"/><rect x="47.96" y="270.48" width="10.42" height="10.42" rx="1.88" ry="1.88"/><rect x="84.88" y="270.48" width="10.43" height="10.42" rx="1.88" ry="1.88"/><path d="M76.85,272.36v6.66c0,1.04-.85,1.88-1.88,1.88h-6.67c-1.04,0-1.88-.84-1.88-1.88v-6.66c0-1.04,.84-1.88,1.88-1.88h6.67c1.03,0,1.88,.84,1.88,1.88Z"/><rect x="174.95" y="270.48" width="10.43" height="10.42" rx="1.88" ry="1.88"/><rect x="211.88" y="270.48" width="10.42" height="10.42" rx="1.88" ry="1.88"/><path d="M203.84,272.36v6.66c0,1.04-.84,1.88-1.88,1.88h-6.67c-1.03,0-1.87-.84-1.87-1.88v-6.66c0-1.04,.84-1.88,1.87-1.88h6.67c1.04,0,1.88,.84,1.88,1.88Z"/><g><path d="M303.96,286.04h-65.67v-24.62h7.75c1.02,0,1.97-.52,2.52-1.37,.56-.86,.64-1.93,.22-2.86l-5.87-13.03c-.48-1.08-1.55-1.77-2.73-1.77h-1.89v-34.47c0-1.66-1.34-3-3-3h-101.62v-23.77l17.22-29.38c.55-.92,.55-2.07,.02-3.01-.54-.93-1.53-1.5-2.6-1.5h-15.9v-34.8c0-.92-.42-1.73-1.07-2.28-.4-7.03-2.64-11.82-5.5-15.42,.03-.17,.05-.36,.05-.54v-9.12c0-1.66-1.34-3-3-3h-10.97c-.65-.93-1.13-1.91-1.4-3.05,.84-.11,1.47-.86,1.36-1.71-.72-5.48-4.8-9.88-10.09-11.11v-21.54c1.79-.06,3.67,1.55,4.64,3.26,1.04,1.82,1.58,4.01,2.15,6.32,.22,.91,.45,1.82,.7,2.72,1.42,5,3.66,8.31,6.85,10.13,.46,.27,.97,.4,1.49,.4s1.06-.15,1.54-.43c.93-.55,1.48-1.57,1.46-2.65-.09-3.09,1.19-6.22,3.42-8.37,.61-.59,2.24-2.16,1.8-4.45-.5-2.56-2.99-3.29-3.8-3.53-2.27-.67-4.16-1.9-5.31-3.46-1.26-1.68-1.87-3.94-2.53-6.34l-.14-.51c-.81-2.96-1.88-6.33-4.33-8.9-1.9-1.99-4.95-3.39-7.94-3.17v-.86c2.64-1.16,4.5-3.8,4.5-6.87s-1.86-5.72-4.5-6.87V3c0-1.66-1.35-3-3-3s-3,1.34-3,3V11.11c-2.65,1.15-4.5,3.79-4.5,6.87s1.85,5.71,4.5,6.87v41.38c-5.3,1.23-9.38,5.63-10.1,11.11-.1,.78,.43,1.48,1.16,1.68-.26,1.14-.74,2.14-1.4,3.08h-10.59c-1.65,0-3,1.34-3,3v9.12s.01,.07,.01,.11c-3.05,3.68-5.46,8.62-5.84,16.03-.54,.54-.87,1.28-.87,2.1v34.8h-15.89c-1.05,0-2.03,.54-2.57,1.44-.54,.9-.58,2.01-.09,2.94l15.27,29.28v61.47h-25.32c-1.02,0-1.96,.51-2.52,1.36l-8.47,13.03c-.6,.93-.64,2.1-.12,3.07,.53,.97,1.54,1.57,2.64,1.57h5.14v24.62H3c-1.65,0-3,1.35-3,3s1.35,3,3,3H303.96c1.65,0,3-1.34,3-3s-1.35-3-3-3ZM118.54,53.21c-1.11,1.36-2.01,2.9-2.67,4.53-.29-.71-.57-1.5-.82-2.38-.23-.83-.44-1.68-.65-2.52-.21-.87-.43-1.76-.68-2.64,1.36,1.24,3,2.26,4.82,3.01Zm-16.75-21.43c1.02-.34,2.57,.17,3.6,1.25,1.49,1.55,2.24,3.98,2.89,6.33l.14,.51c.14,.54,.3,1.11,.46,1.68-1.93-1.74-4.39-2.91-7.09-2.87v-6.9ZM232.29,210.92v12.9h-98.62v-12.9h98.62Zm0,18.9v12.57h-24.43l-21.15-8.62h-.01l-4.68-1.91c-.36-.15-.75-.22-1.13-.22h-47.22v-1.82h98.62ZM126.41,115.46v31.8h-8.85v-31.8h8.85Zm-43.25-23.2c4.37-3.3,8.86-6.7,9.78-13.18h11.49c.92,6.48,5.41,9.88,9.78,13.18,5.24,3.95,10.2,7.71,11.05,17.2h-53.16c.86-9.48,5.82-13.25,11.06-17.2Zm19.88,37.15h-8.52c-1.24,0-2.24,1-2.24,2.23v15.62h-6.16v-31.8h25.44v31.8h-6.4l.11-15.61c.01-1.23-.99-2.24-2.23-2.24Zm-31.88-13.95h8.96v31.8h-8.96v-31.8Zm-16.95,37.8h88.86l-1.7,2.9-7.7,13.13v-6.98c0-1-.5-1.94-1.34-2.5-.83-.55-1.89-.65-2.82-.27l-30.76,12.89-32.77-12.91c-.92-.36-1.97-.25-2.79,.31-.82,.56-1.31,1.49-1.31,2.48v5.64l-7.67-14.69Zm44.54,87.15h0s-5.09,1.98-5.09,1.98h-25.78v-12.57h59.79v1.82h-5.75c-.37,0-.74,.06-1.09,.2l-22.08,8.57Zm-30.87-16.59v-12.9h59.79v12.9h-59.79Zm0-18.9v-15.18h27.91v15.18h-27.91Zm33.91,0v-15.18h25.88v15.18h-25.88Zm-33.91-21.18v-3.16c.03-.22,.02-.44,0-.67v-13.19l29.81,11.74c.13,.05,.26,.09,.39,.12h.01c.61,.15,1.26,.11,1.86-.15l27.72-11.61v16.92h-59.79Zm-29.69,64.65h56.03c.38,0,.74-.07,1.09-.21l27.17-10.54h57.82l25.84,10.53c.36,.14,.75,.22,1.13,.22h30.97l3.16,7.03h-81.22l-22.11-12.64c-.96-.54-2.13-.53-3.06,.05l-20.46,12.59H33.62l4.57-7.03Zm194.1,37.65h-89.34l.12-21.69c.01-1.11-.9-2.02-2.01-2.02h-8.97c-1.11,0-2.01,.9-2.01,2.01v21.7H39.23v-24.62H115.4c.56,0,1.1-.16,1.57-.45l19.66-12.1,21.26,12.15c.46,.26,.97,.4,1.49,.4h72.91v24.62Z"/><path class="cls-1" d="M159.38,261.42c-.52,0-1.03-.14-1.49-.4l-21.26-12.15-19.66,12.1c-.47,.29-1.01,.45-1.57,.45H39.23v24.62h90.85v-21.7c0-1.11,.9-2.01,2.01-2.01h13.95c1.11,0,2.02,.91,2.01,2.02l-.12,21.69h84.36v-24.62h-72.91Zm-101,17.6c0,1.04-.84,1.88-1.88,1.88h-6.66c-1.04,0-1.88-.84-1.88-1.88v-6.66c0-1.04,.84-1.88,1.88-1.88h6.66c1.04,0,1.88,.84,1.88,1.88v6.66Zm18.47,0c0,1.04-.85,1.88-1.88,1.88h-6.67c-1.04,0-1.88-.84-1.88-1.88v-6.66c0-1.04,.84-1.88,1.88-1.88h6.67c1.03,0,1.88,.84,1.88,1.88v6.66Zm18.46,0c0,1.04-.84,1.88-1.88,1.88h-6.67c-1.04,0-1.88-.84-1.88-1.88v-6.66c0-1.04,.84-1.88,1.88-1.88h6.67c1.04,0,1.88,.84,1.88,1.88v6.66Zm90.07,0c0,1.04-.84,1.88-1.88,1.88h-6.67c-1.04,0-1.88-.84-1.88-1.88v-6.66c0-1.04,.84-1.88,1.88-1.88h6.67c1.04,0,1.88,.84,1.88,1.88v6.66Zm18.46,0c0,1.04-.84,1.88-1.88,1.88h-6.67c-1.03,0-1.87-.84-1.87-1.88v-6.66c0-1.04,.84-1.88,1.87-1.88h6.67c1.04,0,1.88,.84,1.88,1.88v6.66Zm18.46,0c0,1.04-.84,1.88-1.88,1.88h-6.66c-1.04,0-1.88-.84-1.88-1.88v-6.66c0-1.04,.84-1.88,1.88-1.88h6.66c1.04,0,1.88,.84,1.88,1.88v6.66Z"/><path class="cls-1" d="M232.29,229.82v6.77h-19.23l-6.51-2.82h-19.85l-4.68-1.91c-.36-.15-.75-.22-1.13-.22h-47.22v-1.82h98.62Z"/><polygon class="cls-1" points="232.29 210.92 232.29 223.82 133.67 223.82 133.67 217.35 178.05 217.35 193.55 210.92 232.29 210.92"/><polygon class="cls-1" points="98.75 229.82 98.75 240.42 93.66 242.39 67.88 242.39 67.88 229.82 98.75 229.82"/><polygon class="cls-1" points="127.67 210.92 127.67 216.61 98.75 216.61 98.75 223.82 67.88 223.82 67.88 210.92 127.67 210.92"/><polygon class="cls-1" points="127.67 189.74 127.67 194.04 106.8 194.04 106.8 204.92 101.79 204.92 101.79 189.74 127.67 189.74"/><rect class="cls-1" x="67.88" y="189.74" width="27.91" height="15.18"/><path class="cls-1" d="M101.75,118.98v10.43h-7.23c-1.24,0-2.24,1-2.24,2.23v15.62h-6.16v-28.28h15.63Z"/><path class="cls-1" d="M127.67,174.37v9.37h-59.79v-3.16c.03-.22,.02-.44,0-.67v-13.19l29.81,11.74c.13,.05,.26,.09,.39,.12h.01l6.8,2.68c.72,.29,1.47,.55,2.26,.49,1.62-.11,20.52-7.38,20.52-7.38Z"/><path class="cls-1" d="M143.07,153.26l-1.7,2.9h-42.62v16.27l-32.77-12.91c-.92-.36-1.97-.25-2.79,.31-.82,.56-1.31,1.49-1.31,2.48v5.64l-7.67-14.69h88.86Z"/><rect class="cls-1" x="71.16" y="118.98" width="8.96" height="28.28"/></g><path class="cls-2" d="M241.4,255.42h-81.22l-22.11-12.64c-.96-.54-2.13-.53-3.06,.05l-20.46,12.59H33.62l4.57-7.03h56.03c.38,0,.74-.07,1.09-.21l27.17-10.54h57.82l25.84,10.53c.36,.14,.75,.22,1.13,.22h30.97l3.16,7.03Z"/><rect class="cls-2" x="98.75" y="216.61" width="28.92" height="7.21"/><path class="cls-2" d="M127.67,166.82v7.55s-18.9,7.27-20.52,7.38c-.79,.06-1.54-.2-2.26-.49l-6.8-2.68c.61,.15,1.26,.11,1.86-.15l27.72-11.61Z"/><rect class="cls-2" x="117.56" y="115.46" width="8.85" height="31.8"/><path class="cls-2" d="M118.54,53.21c-1.11,1.36-2.01,2.9-2.67,4.53-.29-.71-.57-1.5-.82-2.38-.23-.83-.44-1.68-.65-2.52-.21-.87-.43-1.76-.68-2.64,1.36,1.24,3,2.26,4.82,3.01Z"/><path class="cls-2" d="M108.88,41.55c-1.93-1.74-4.39-2.91-7.09-2.87v-6.9c1.02-.34,2.57,.17,3.6,1.25,1.49,1.55,2.24,3.98,2.89,6.33l.14,.51c.14,.54,.3,1.11,.46,1.68Z"/><path class="cls-2" d="M114.21,92.26c-4.37-3.3-8.86-6.7-9.78-13.18h-11.24c1.6,2.8,3.86,5.03,6.31,7.04,2.45,.27,4.48,1.9,5.33,4.12,5.68,4.36,10.74,9.07,11.88,19.21h8.55c-.85-9.49-5.81-13.25-11.05-17.2Z"/><path class="cls-1" d="M108.26,93.07l.03,8.88c0,.77-.63,1.39-1.39,1.39h-13.23c-.77,0-1.39-.62-1.39-1.39v-9.09c0-3.56,2.75-6.69,6.32-6.78,.3,0,.6,.01,.9,.04-2.45-2.02-4.7-4.24-6.31-7.04h-.25c-.92,6.48-5.41,9.88-9.78,13.18-5.24,3.95-10.2,7.72-11.06,17.2h44.61c-.91-8.03-4.27-12.65-8.45-16.39Z"/><path class="cls-2" d="M108.26,93.07c-.38-.34-.78-.68-1.17-1.02-.74-.62-1.49-1.21-2.26-1.8,.28,.72,.43,1.5,.43,2.31v3.93s.03,5.46,.03,5.46c0,.77-.63,1.39-1.39,1.39h3c.76,0,1.39-.62,1.39-1.39l-.03-8.88Z"/><rect class="cls-2" x="71.16" y="115.46" width="8.96" height="3.52"/><path class="cls-2" d="M111.56,115.46v31.8h-6.4l.11-15.61c.01-1.23-.99-2.24-2.23-2.24h-1.29v-10.43h-15.63v-3.52h25.44Z"/><polygon class="cls-2" points="232.29 236.59 232.29 242.39 207.86 242.39 186.71 233.77 206.55 233.77 213.06 236.59 232.29 236.59"/><polygon class="cls-2" points="193.55 210.92 178.05 217.35 133.67 217.35 133.67 210.92 193.55 210.92"/><rect class="cls-2" x="106.8" y="194.04" width="20.87" height="10.88"/><path class="cls-2" d="M127.67,229.82v1.82h-5.75c-.37,0-.74,.06-1.09,.2l-22.08,8.58v-10.6h28.92Z"/><path class="cls-2" d="M148.05,264.35l-.12,21.69h-4.98l.12-21.69c.01-1.11-.9-2.02-2.01-2.02h4.98c1.11,0,2.02,.91,2.01,2.02Z"/><path d="M251.18,313.07c-10.11,0-18.65-2.79-26.91-5.49-7.9-2.58-15.36-5.02-23.91-5.02s-15.54,2.37-23.13,4.88c-8.37,2.77-17.03,5.63-28.02,5.63s-18.65-2.73-25.58-5.37c-6.94-2.64-13.5-5.14-24.59-5.14-7.84,0-13.34,2.08-19.71,4.49-7.47,2.82-15.93,6.02-29.49,6.02-7.29,0-14.63-2.48-22.4-5.1-7.88-2.66-16.04-5.41-24.18-5.41-1.66,0-3-1.34-3-3s1.34-3,3-3c9.13,0,17.76,2.91,26.1,5.73,7.29,2.46,14.18,4.78,20.49,4.78,12.46,0,20.04-2.86,27.36-5.63,6.63-2.51,12.89-4.88,21.83-4.88,12.19,0,19.58,2.81,26.72,5.53,6.72,2.56,13.07,4.98,23.45,4.98s18.21-2.71,26.14-5.33c7.71-2.55,15.67-5.18,25.01-5.18s17.78,2.7,25.78,5.32c8.17,2.67,15.89,5.19,25.04,5.19,9.66,0,16.09-2.32,22.91-4.78,7.81-2.82,15.89-5.73,29.22-5.73,1.66,0,3,1.34,3,3s-1.34,3-3,3c-12.28,0-19.86,2.73-27.19,5.38-7,2.52-14.23,5.13-24.94,5.13Z"/><path class="cls-2" d="M133.67,169.29v-6.98c0-1-.5-1.94-1.34-2.5-.83-.55-1.89-.65-2.82-.27l-30.76,12.89v-16.27h42.62l-7.7,13.13Z"/></g></g></svg>