<svg xmlns="http://www.w3.org/2000/svg" width="26.18" height="19.975" viewBox="0 0 26.18 19.975">
    <defs>
        <style>
            .cls-1{fill:none;stroke:#B93006;stroke-linecap:round;stroke-linejoin:round;stroke-miterlimit:10;stroke-width:.75px}
        </style>
    </defs>
    <g id="bath" transform="translate(.375 .375)">
        <path id="Path_374" d="M7.4 34.4v1.935c0 3.005 2.934 5.434 6.577 5.434h10.835c3.6 0 6.577-2.429 6.577-5.434V34.4" class="cls-1" data-name="Path 374" transform="translate(-6.659 -22.544)"/>
        <path id="Path_375" d="M26.2 32.235h4.082a.908.908 0 0 0 .845-.967.908.908 0 0 0-.845-.967H6.545a.908.908 0 0 0-.845.967.908.908 0 0 0 .845.967h20.034" class="cls-1" data-name="Path 375" transform="translate(-5.7 -20.379)"/>
        <path id="Line_8" d="M22.878 0H0" class="cls-1" data-name="Line 8" transform="translate(1.276 19.225)"/>
        <path id="Path_376" d="M45.7 15.521V8.152A2.565 2.565 0 0 1 48.252 5.6 2.565 2.565 0 0 1 50.8 8.152" class="cls-1" data-name="Path 376" transform="translate(-44.959 -5.6)"/>
        <path id="Path_377" d="M38.316 14.66a2.351 2.351 0 0 1 4.076-2.347z" class="cls-1" data-name="Path 377" transform="translate(-32.571 -8.855)"/>
    </g>
</svg>
