<svg xmlns="http://www.w3.org/2000/svg" width="23.561" height="19.043" viewBox="0 0 23.561 19.043">
    <defs>
        <style>
            .cls-1{fill:none;stroke:#B93006;stroke-linecap:round;stroke-linejoin:round;stroke-miterlimit:10;stroke-width:.75px}
        </style>
    </defs>
    <g id="bed" transform="translate(.375 .375)">
        <path id="Path_378" d="M5.2 31.187v-2.9c0-.833.965-1.491 2.15-1.491h18.512c1.184 0 2.149.658 2.149 1.491v2.9z" class="cls-1" data-name="Path 378" transform="translate(-5.2 -18.334)"/>
        <path id="Rectangle_1613" d="M0 0h22.811v1.755H0z" class="cls-1" data-name="Rectangle 1613" transform="translate(0 12.853)"/>
        <path id="Path_379" d="M10.1 15.966V9.255A1.633 1.633 0 0 1 11.548 7.5h15.616a1.633 1.633 0 0 1 1.448 1.755v6.712" class="cls-1" data-name="Path 379" transform="translate(-7.95 -7.5)"/>
        <g id="Group_614" data-name="Group 614" transform="translate(4.167 3.86)">
            <path id="Path_380" d="M14.7 20.906v-3.729a.8.8 0 0 1 .746-.877h4.782a.833.833 0 0 1 .746.877v3.729" class="cls-1" data-name="Path 380" transform="translate(-14.7 -16.3)"/>
            <path id="Path_381" d="M33.5 20.906v-3.729a.8.8 0 0 1 .746-.877h4.738a.833.833 0 0 1 .746.877v3.729" class="cls-1" data-name="Path 381" transform="translate(-25.253 -16.3)"/>
        </g>
        <path id="Rectangle_1614" d="M0 0h2.079v3.685H0z" class="cls-1" data-name="Rectangle 1614" transform="translate(0 14.608)"/>
        <path id="Rectangle_1615" d="M0 0h2.079v3.685H0z" class="cls-1" data-name="Rectangle 1615" transform="translate(20.732 14.608)"/>
    </g>
</svg>
