<svg xmlns="http://www.w3.org/2000/svg" width="47.797" height="47.797" viewBox="0 0 47.797 47.797">
  <path fill="#5e5a59" id="Path_392" data-name="Path 392" d="M48.168,35.874a30.385,30.385,0,0,1-9.373-1.487,2.6,2.6,0,0,0-2.682.637l-4.169,5.231a40.318,40.318,0,0,1-18.3-18.136l5.178-4.408A2.71,2.71,0,0,0,19.463,15a29.614,29.614,0,0,1-1.487-9.374A2.652,2.652,0,0,0,15.348,3H6.16C4.726,3,3,3.637,3,5.629A45.545,45.545,0,0,0,48.168,50.8c1.885,0,2.629-1.673,2.629-3.133V38.5a2.652,2.652,0,0,0-2.629-2.629Z" transform="translate(-3 -3)"/>
</svg>
