<svg xmlns="http://www.w3.org/2000/svg" width="57.719" height="57.719" viewBox="0 0 57.719 57.719">
  <path fill="#5e5a59" id="whatsapp-brands" d="M49.074,40.387A28.611,28.611,0,0,0,4.058,74.9L0,89.719l15.164-3.981a28.515,28.515,0,0,0,13.67,3.479h.013A28.42,28.42,0,0,0,49.074,40.387ZM28.847,84.4a23.731,23.731,0,0,1-12.111-3.311l-.863-.515L6.88,82.929l2.4-8.774-.567-.9A23.819,23.819,0,1,1,52.888,60.615,24.038,24.038,0,0,1,28.847,84.4ZM41.885,66.593c-.709-.361-4.226-2.087-4.883-2.319s-1.134-.361-1.61.361-1.842,2.319-2.268,2.809-.837.541-1.546.18c-4.2-2.1-6.957-3.749-9.727-8.5-.734-1.263.734-1.172,2.1-3.9a1.324,1.324,0,0,0-.064-1.25c-.18-.361-1.61-3.878-2.2-5.308-.58-1.391-1.172-1.2-1.61-1.224-.412-.026-.889-.026-1.366-.026A2.647,2.647,0,0,0,16.8,48.3a8.031,8.031,0,0,0-2.5,5.965c0,3.517,2.564,6.919,2.912,7.4s5.038,7.692,12.214,10.8c4.535,1.958,6.313,2.126,8.581,1.791,1.379-.206,4.226-1.726,4.819-3.4a5.977,5.977,0,0,0,.412-3.4C43.07,67.121,42.594,66.941,41.885,66.593Z" transform="translate(0 -32)"/>
</svg>
