<svg xmlns="http://www.w3.org/2000/svg" width="68.443" height="64.774" viewBox="0 0 68.443 64.774">
    <defs>
        <style>
            .cls-1{fill:#fff}
        </style>
    </defs>
    <g id="Group_53" data-name="Group 53">
        <path id="comment-solid" d="M22.572 32C10.1 32 0 40.209 0 50.34a16.278 16.278 0 0 0 5.026 11.524c-1.1 4.444-4.788 8.4-4.832 8.447a.7.7 0 0 0-.132.767.691.691 0 0 0 .644.423A20.165 20.165 0 0 0 13.1 66.97a26.891 26.891 0 0 0 9.47 1.711c12.468 0 22.572-8.209 22.572-18.34S35.04 32 22.572 32z" class="cls-1" transform="translate(23.298 -32)"/>
        <path id="phone-solid" d="M1.639 2.172L10.863.043A2.142 2.142 0 0 1 13.3 1.276l4.26 9.934a2.123 2.123 0 0 1-.612 2.483l-5.375 4.4a32.871 32.871 0 0 0 15.716 15.716l4.4-5.375a2.126 2.126 0 0 1 2.483-.612l9.934 4.257a2.154 2.154 0 0 1 1.242 2.448l-2.129 9.224a2.128 2.128 0 0 1-2.075 1.65A41.149 41.149 0 0 1-.01 4.247a2.126 2.126 0 0 1 1.649-2.075z" class="cls-1" transform="translate(.01 19.373)"/>
    </g>
</svg>
