<svg xmlns="http://www.w3.org/2000/svg" xmlns:xlink="http://www.w3.org/1999/xlink" width="133.305" height="48.848">
    <defs>
        <linearGradient id="linear-gradient" y1=".5" x2="1" y2=".5" gradientUnits="objectBoundingBox">
            <stop offset="0" stop-color="#c92021"/>
            <stop offset=".69" stop-color="#840f1a"/>
            <stop offset="1" stop-color="#c92021"/>
        </linearGradient>
        <linearGradient id="linear-gradient-2" x1=".01" y1=".443" x2="1.377" y2=".443" xlink:href="#linear-gradient"/>
        <linearGradient id="linear-gradient-3" x1="7.863" y1=".778" x2="-6.709" y2=".224" gradientUnits="objectBoundingBox">
            <stop offset="0" stop-color="#c92021"/>
            <stop offset="1" stop-color="#840f1a"/>
        </linearGradient>
        <linearGradient id="linear-gradient-4" x1="6.71" y1=".713" x2="-4.445" y2=".329" xlink:href="#linear-gradient-3"/>
        <linearGradient id="linear-gradient-5" x1="11.772" y1=".888" x2="-4.784" y2=".319" xlink:href="#linear-gradient-3"/>
        <linearGradient id="linear-gradient-6" x1="8.215" y1=".771" x2="-4.253" y2=".332" xlink:href="#linear-gradient-3"/>
        <linearGradient id="linear-gradient-7" x1="4.6" y1=".626" x2="-.128" y2=".478" xlink:href="#linear-gradient-3"/>
        <linearGradient id="linear-gradient-8" x1="1.079" y1=".52" x2="-3.59" y2=".37" xlink:href="#linear-gradient-3"/>
        <linearGradient id="linear-gradient-9" x1="1.27" y1=".543" x2="-.531" y2=".444" xlink:href="#linear-gradient-3"/>
        <linearGradient id="linear-gradient-10" x1="5.363" y1=".629" x2="-1.053" y2=".455" xlink:href="#linear-gradient-3"/>
        <linearGradient id="linear-gradient-11" x1="-1.717" y1="527.691" x2=".987" y2="527.691" xlink:href="#linear-gradient"/>
        <style>
            .cls-3{fill:#fff}
        </style>
    </defs>
    <g id="partner-button-01" transform="translate(-83.2 -356.1)">
        <path id="Path_1" data-name="Path 1" d="M192.176 356.2c-.058.029-1.591.058-2.189.1a21.583 21.583 0 0 1 2.189-.1H83.2v48.643h105.926a23.151 23.151 0 0 0 2.86.19 24.323 24.323 0 0 0 24.514-24.139v-.379a24.329 24.329 0 0 0-24.324-24.315zm-2.233.1c-.058 0-.117.015-.175.015a.987.987 0 0 1 .175-.015zm2.233 44.965a20.76 20.76 0 1 1 20.768-20.765 20.775 20.775 0 0 1-20.768 20.767z" transform="translate(0 -.085)" style="fill:url(#linear-gradient)"/>
        <path id="Path_2" data-name="Path 2" d="M817.089 356.2c-.058.029-1.591.058-2.189.1a21.583 21.583 0 0 1 2.189-.1z" transform="translate(-624.913 -.085)" style="fill:url(#linear-gradient-2)"/>
        <path id="Path_3" data-name="Path 3" class="cls-3" d="M830.3 540z" transform="translate(-638.066 -157.061)"/>
        <path id="Path_4" data-name="Path 4" d="M811.049 580.522a.871.871 0 0 0-.365-.394 1.094 1.094 0 0 0-.438-.131 1.407 1.407 0 0 0-1.211.73l-.219.423s-.511.978-.613 1.168a1.37 1.37 0 0 0-.219.73 1.16 1.16 0 0 0 .117.6.871.871 0 0 0 .365.394 1.1 1.1 0 0 0 .438.131 1.407 1.407 0 0 0 1.211-.73l.8-1.547.015-.029a1.584 1.584 0 0 0 .234-.73 1.185 1.185 0 0 0-.115-.615z" transform="translate(-619.004 -191.22)" style="fill:url(#linear-gradient-3)"/>
        <path id="Path_5" data-name="Path 5" d="M792.958 560.717a2.005 2.005 0 0 0 .19-.73 1.48 1.48 0 0 0-.175-.8 1.12 1.12 0 0 0-.511-.5.919.919 0 0 0-.438-.1 1.556 1.556 0 0 0-1.27.657c-.044.19-1.605 3.517-1.664 3.649a1.23 1.23 0 0 0 .058 1.109 1 1 0 0 0 .511.5.881.881 0 0 0 .438.1 1.535 1.535 0 0 0 1.27-.671l.569-1.08z" transform="translate(-602.781 -172.933)" style="fill:url(#linear-gradient-4)"/>
        <path id="Path_6" data-name="Path 6" d="M757.893 545.566a1.54 1.54 0 0 0-.248-.949 1.075 1.075 0 0 0-.876-.525 1.184 1.184 0 0 0-.832.306 1.745 1.745 0 0 0-.569.919v.015l-.219.978a3.607 3.607 0 0 0-.058.365 1.54 1.54 0 0 0 .248.949 1.076 1.076 0 0 0 .876.525 1.255 1.255 0 0 0 1.036-.5l.584-1.708a1.2 1.2 0 0 0 .058-.375z" transform="translate(-573.832 -160.555)" style="fill:url(#linear-gradient-5)"/>
        <path id="Path_7" data-name="Path 7" d="M774.911 552.162a1.533 1.533 0 0 0-.175-.788 1.086 1.086 0 0 0-.525-.5.963.963 0 0 0-.394-.088 1.572 1.572 0 0 0-1.43.992l-1.036 2.233a1.616 1.616 0 0 0-.16.671 1.533 1.533 0 0 0 .175.788 1.086 1.086 0 0 0 .525.5.964.964 0 0 0 .394.088 1.348 1.348 0 0 0 1.168-.657c.029-.073 1.109-2.364 1.168-2.452a3.05 3.05 0 0 0 .29-.787z" transform="translate(-587.58 -166.275)" style="fill:url(#linear-gradient-6)"/>
        <path id="Path_8" data-name="Path 8" d="M680.076 450.091c.555-7.691 4.743-10.6 4.743-10.6L680.6 437c-5.765 4.5-5.6 12.887-5.6 12.887l4.933 2.612c.817.525 2.16-.963 2.16-.963l-.671-.277c-1.273 1.474-1.287-.175-1.346-1.168z" transform="translate(-505.428 -69.093)" style="fill:url(#linear-gradient-7)"/>
        <path id="Path_9" data-name="Path 9" d="m915.93 434.4-4.13 2.656s4.174 2.5 4.729 10.187c-.058.992-.088 2.642-1.343 1.182l-.671.277s1.343 1.489 2.16.963l5.064-2.656c.015-.029.423-8.1-5.809-12.609z" transform="translate(-707.671 -66.873)" style="fill:url(#linear-gradient-8)"/>
        <path id="Path_10" data-name="Path 10" d="m781.879 465.83-.088-.073-.613-.438c.336-.131.628-.219.671-.234l2.262-1.095a12.376 12.376 0 0 0-3.561-8.757 6.057 6.057 0 0 1-2.685 1.022c-1.109.058-7.852-2.656-7.881-2.656 0 0-1.182.131-1.372.146s-4.875.7-5.809.832c-.263.029-.467.073-.569.088a1.749 1.749 0 0 0-.628.409 12.589 12.589 0 0 0-.919.978 21.056 21.056 0 0 1-2.233 2.335.281.281 0 0 0-.117.306c.219.876 2.335 2.539 4.8.438a15.385 15.385 0 0 0 1.255-1.211l.015-.015a.387.387 0 0 1 .321-.117l3.663.394 3.9 2.539 4.685 3.123 4.057 2.933a2.138 2.138 0 0 1 .38.5.957.957 0 0 1 .131.482 1.618 1.618 0 0 1-.029.248.763.763 0 0 1-.161.379 1.01 1.01 0 0 1-.365.292 1.322 1.322 0 0 1-.467.088.837.837 0 0 1-.365-.088l-1.3-.715-.686-.394a.521.521 0 0 0-.131-.058l-4.349-2.393a.6.6 0 0 0-.832.277.661.661 0 0 0 .263.876l5.283 2.9a1.292 1.292 0 0 1 .336.35 1.178 1.178 0 0 1 .234.686 1.237 1.237 0 0 1-.234.686.782.782 0 0 1-.394.292 1.193 1.193 0 0 1-.394.073 1.114 1.114 0 0 1-.452-.1c-.073-.044-.35-.19-.759-.409-.7-.379-1.766-.963-2.685-1.459-.453-.248-.876-.482-1.2-.657q-.241-.131-.394-.219a1.366 1.366 0 0 0-.19-.1.617.617 0 0 0-.847.248.67.67 0 0 0 .234.876c.058.029.161.088.321.175.569.306 1.781.963 2.846 1.547.015.015.029.029.044.029a2.1 2.1 0 0 1 .248.175 2.265 2.265 0 0 1 .438.525 1.257 1.257 0 0 1 .19.628 1.2 1.2 0 0 1-.219.671.787.787 0 0 1-.438.321 1.49 1.49 0 0 1-.482.058h-.008a1.209 1.209 0 0 1-.5-.1l-1.4-.73c-.088-.058-.175-.117-.277-.175a.556.556 0 0 0-.146-.044l-1.605-.832a.61.61 0 0 0-.832.292.658.658 0 0 0 .277.861l1.912.978a.014.014 0 0 1 .015.015 1.373 1.373 0 0 1 .307.423 1.165 1.165 0 0 1 .131.525.941.941 0 0 1-.175.54.644.644 0 0 1-.321.219 1.216 1.216 0 0 1-.219.058.547.547 0 0 1-.117.015.887.887 0 0 1-.365-.088h-.015l-2.291-1.036a9.713 9.713 0 0 0-.5 1.124l2.35 1.109a2.129 2.129 0 0 0 .876.2 1.638 1.638 0 0 0 .35-.044 2.385 2.385 0 0 0 .657-.234 1.708 1.708 0 0 0 .671-.6 2.218 2.218 0 0 0 .38-1.27c0-.044-.015-.073-.015-.1a2.4 2.4 0 0 0 .832.161h.029a2.659 2.659 0 0 0 .832-.117 2.049 2.049 0 0 0 1.095-.832 2.588 2.588 0 0 0 .438-1.4.829.829 0 0 0-.015-.19 2.248 2.248 0 0 0 .949.219 2.461 2.461 0 0 0 .8-.146 2.071 2.071 0 0 0 .978-.744 2.59 2.59 0 0 0 .482-1.445c0-.058-.015-.117-.015-.175a2.837 2.837 0 0 0 .35.029 2.241 2.241 0 0 0 1.24-.35 1.91 1.91 0 0 0 .584-.555 2.4 2.4 0 0 0 .365-.861 2.147 2.147 0 0 0 .058-.525 2.394 2.394 0 0 0-.292-1.138 3.47 3.47 0 0 0-.584-.773z" transform="translate(-576.597 -83.271)" style="fill:url(#linear-gradient-9)"/>
        <path id="Path_11" data-name="Path 11" d="M721.9 472.885q-.328-.285-.569-.482l-.2-.161a1.136 1.136 0 0 0-.2-.131c-.788-.379-1.474-.715-1.883-.919a11.756 11.756 0 0 1 1.678-5.721 13.046 13.046 0 0 1 1.153-1.62c.1-.117.19-.219.263-.292.16.044.379.117.628.175.394.1.861.219 1.357.307a9.3 9.3 0 0 0 .919-1.153.388.388 0 0 0-.175-.044 11.5 11.5 0 0 1-1.8-.365c-.263-.073-.5-.146-.657-.19-.088-.029-.146-.044-.19-.058l-.044-.015h-.015a.609.609 0 0 0-.6.131 11.483 11.483 0 0 0-1.9 2.437 13.086 13.086 0 0 0-1.868 6.743v.073a.664.664 0 0 0 .35.584s.248.117.657.321.963.467 1.576.773c.015 0 .044.029.088.058.161.131.482.394.876.73s1.547 1.416 1.562 1.416a11.973 11.973 0 0 1 .409-1.284c-.555-.482-.992-.949-1.416-1.313z" transform="translate(-541.984 -90.602)" style="fill:url(#linear-gradient-10)"/>
        <path id="Path_12" data-name="Path 12" d="M814.9 356.2c.584-.029 2.116-.058 2.189-.1a37.86 37.86 0 0 0-2.189.1z" transform="translate(-624.913)" style="fill:url(#linear-gradient-11)"/>
        <g id="Group_1" data-name="Group 1" transform="translate(95.547 365.397)">
            <path id="Path_13" data-name="Path 13" class="cls-3" d="M180.072 423.58a3.346 3.346 0 0 1-2.058 1.883 5.027 5.027 0 0 1 1.576.555 2.874 2.874 0 0 1 1.474 2.569 3.335 3.335 0 0 1-.642 1.956 4.524 4.524 0 0 1-3.926 1.708h-5.9v-.54h1.664V420.34h-1.66v-.54h5.823a5.272 5.272 0 0 1 2.35.482 2.5 2.5 0 0 1 1.489 2.35 2.248 2.248 0 0 1-.19.948zm-6.013-3.225v4.875h1.841a2.614 2.614 0 0 0 1.445-.394 2.266 2.266 0 0 0 1.051-2.029 3.415 3.415 0 0 0-.044-.555 2.124 2.124 0 0 0-2.423-1.883h-1.868zm0 5.429v5.925h2.35a2.39 2.39 0 0 0 1.635-.584 3.142 3.142 0 0 0 1.036-2.5 3.336 3.336 0 0 0-.248-1.27 2.457 2.457 0 0 0-2.525-1.591h-2.248z" transform="translate(-170.191 -419.8)"/>
            <path id="Path_14" data-name="Path 14" class="cls-3" d="M262.047 450.918a3.658 3.658 0 0 1-3.3 1.62 4.481 4.481 0 0 1-2.51-.73 4.3 4.3 0 0 1-1.839-3.824 5.323 5.323 0 0 1 .584-2.525 3.85 3.85 0 0 1 3.707-2.16 4.61 4.61 0 0 1 2.35.6 2.518 2.518 0 0 1 1.43 2.233 1.4 1.4 0 0 1-.555 1.182 6.238 6.238 0 0 1-3.255.482l-2.5-.044a7.544 7.544 0 0 0 .19 1.591c.379 1.722 1.284 2.6 2.744 2.6a3.558 3.558 0 0 0 .394-.015 2.872 2.872 0 0 0 2.35-1.781l.525.19c-.1.19-.2.394-.321.584zm-4.334-6.845c-.963.482-1.489 1.518-1.562 3.109l2.2.058a6.815 6.815 0 0 0 1.474-.088 1.169 1.169 0 0 0 .992-1.27 2.3 2.3 0 0 0-.161-.846 1.873 1.873 0 0 0-1.926-1.226 2.26 2.26 0 0 0-1.022.263z" transform="translate(-241.761 -439.87)"/>
            <path id="Path_15" data-name="Path 15" class="cls-3" d="M355.149 444.03a4.317 4.317 0 0 1 1.926 3.882 4.491 4.491 0 0 1-1.2 3.211 4.336 4.336 0 0 1-3.3 1.416 4.448 4.448 0 0 1-4.48-4.714 4.436 4.436 0 0 1 4.539-4.524 4.621 4.621 0 0 1 2.515.729zm-5.152 5.5q.547 2.5 2.627 2.5a2.746 2.746 0 0 0 .773-.1c1.27-.394 1.912-1.766 1.912-4.086a8.4 8.4 0 0 0-.058-1.095c-.248-1.941-1.138-2.9-2.671-2.9a2.875 2.875 0 0 0-.949.161c-1.182.467-1.766 1.781-1.766 3.926a7.948 7.948 0 0 0 .135 1.596z" transform="translate(-321.786 -439.87)"/>
            <path id="Path_16" data-name="Path 16" class="cls-3" d="M428.664 452.933c.2.029.306.19.306.5h-2.919l-.146-2.116a3.714 3.714 0 0 1-.6 1.051 3.1 3.1 0 0 1-2.554 1.27c-1.97-.015-2.948-1.2-2.963-3.561v-4.937H418.2v-.525h3.152v5.765a4.384 4.384 0 0 0 .044.628 1.8 1.8 0 0 0 1.97 1.737 2.092 2.092 0 0 0 1.2-.394 3.051 3.051 0 0 0 1.313-2.744v-4.48h-1.722v-.527h3.255v8.29h1.036a1.916 1.916 0 0 0 .216.043z" transform="translate(-381.656 -440.981)"/>
            <path id="Path_17" data-name="Path 17" class="cls-3" d="M505.216 452.25c.2.029.306.19.306.5H500.4v-.525a3.519 3.519 0 0 0 1.022-.1c.365-.131.54-.511.54-1.138v-6.538H500.4v-.525h3.006l.088 2.058a4.021 4.021 0 0 1 .73-1.124 2.964 2.964 0 0 1 2.218-1.051 1.811 1.811 0 0 1 .394.044 1.063 1.063 0 0 1 .949 1.138.741.741 0 0 1-.044.248.758.758 0 0 1-.788.6.741.741 0 0 1-.248-.044c-.19-.058-.394-.277-.628-.657-.19-.35-.409-.525-.642-.525a1.411 1.411 0 0 0-.773.452 4.046 4.046 0 0 0-1.168 3.021v4.13h1.518a1.293 1.293 0 0 0 .2.044z" transform="translate(-451.859 -440.297)"/>
            <path id="Path_18" data-name="Path 18" class="cls-3" d="M167.8 548.834v-.555h1.664v-11.324H167.8v-.555h6.932a5.337 5.337 0 0 1 2.364.482 2.889 2.889 0 0 1 1.737 2.8 3.727 3.727 0 0 1-.263 1.43c-.613 1.5-2.116 2.262-4.5 2.262h-1.708v4.918h1.518a.62.62 0 0 1 .555.555H167.8zm4.568-11.88v5.794h1.095c1.474-.015 2.233-.978 2.262-2.89-.015-1.912-.744-2.875-2.175-2.9z" transform="translate(-167.8 -519.383)"/>
            <path id="Path_19" data-name="Path 19" class="cls-3" d="M253.331 565.945a3.859 3.859 0 0 1-.263.555 2.83 2.83 0 0 1-2.6 1.328 3.327 3.327 0 0 1-1.051-.146 2.234 2.234 0 0 1-1.62-2.364c.015-1.81 1.8-2.758 5.356-2.817v-1.343a5.385 5.385 0 0 0-.088-1.036q-.2-1.182-1.182-1.182a1.251 1.251 0 0 0-.525.1 1.717 1.717 0 0 0-.584 1.036c-.058.19-.1.336-.131.409a1.184 1.184 0 0 1-1.2.876 1.23 1.23 0 0 1-.394-.058.96.96 0 0 1-.774-1.022 1.185 1.185 0 0 1 .19-.657q.722-1.226 3.546-1.226a5.569 5.569 0 0 1 1.343.146 2.945 2.945 0 0 1 2.408 3.2v4.335c0 .657.146 1.007.452 1.036.394-.015.642-.5.73-1.445l.54.015a5.261 5.261 0 0 1-.19 1.051 1.739 1.739 0 0 1-1.883 1.095 2.138 2.138 0 0 1-2.08-1.886zm-1.459.934a2.386 2.386 0 0 0 1.27-1.78v-2.014a5.841 5.841 0 0 0-1.532.234 1.71 1.71 0 0 0-1.124 1.781c.015 1.2.365 1.824 1.051 1.839a.712.712 0 0 0 .335-.06z" transform="translate(-236.125 -538.172)"/>
            <path id="Path_20" data-name="Path 20" class="cls-3" d="M323.3 567.967q.263.044.263.525H317.7v-.54a2.461 2.461 0 0 0 .482-.044c.482-.088.73-.423.73-1.036v-6.757h-1.2v-.54h3.634l.146 1.926a3.763 3.763 0 0 1 .657-1.08 3.079 3.079 0 0 1 2.262-1.022 2.147 2.147 0 0 1 .525.058 1.328 1.328 0 0 1 .89 1.868 1.209 1.209 0 0 1-1.182.788 1.476 1.476 0 0 1-.452-.058 1.77 1.77 0 0 1-.8-.832c-.175-.321-.35-.482-.5-.482a.572.572 0 0 0-.263.058c-.613.321-.963 1.2-1.051 2.656v4.495h1.532a.832.832 0 0 1 .19.015z" transform="translate(-295.823 -539.026)"/>
            <path id="Path_21" data-name="Path 21" class="cls-3" d="M377 547.108h1.43v-1.97l2.627-.438v2.408h2.743v.54h-2.744v6.29a3.191 3.191 0 0 0 .044.525c.117.715.423 1.08.934 1.08a1.422 1.422 0 0 0 .248-.015q.81-.175 1.226-1.839l.555.088a5.024 5.024 0 0 1-.452 1.372 2.333 2.333 0 0 1-2.2 1.036c-.161 0-.336 0-.5-.015-1.664-.19-2.5-1.3-2.5-3.3v-5.181H377v-.584z" transform="translate(-346.469 -526.472)"/>
            <path id="Path_22" data-name="Path 22" class="cls-3" d="M433.6 567.284q.263.044.263.525H429v-.54a1.968 1.968 0 0 0 .306-.015.928.928 0 0 0 .89-1.051v-6.757H429v-.54h3.692l.1 1.62a3.8 3.8 0 0 1 .5-.73 3.283 3.283 0 0 1 2.569-1.2 3.5 3.5 0 0 1 1.036.161c1.211.423 1.824 1.5 1.824 3.211v5.3h.686a1.411 1.411 0 0 1 .248.015q.263.044.263.525h-4.788v-.54a1.652 1.652 0 0 0 .5-.058c.306-.1.452-.438.452-1.022v-4.583a3.418 3.418 0 0 0-.044-.555c-.131-.919-.6-1.386-1.386-1.386a1.25 1.25 0 0 0-.6.146 2.412 2.412 0 0 0-1.2 2.16l-.015 5.312h.525a.624.624 0 0 1 .238.002z" transform="translate(-390.88 -538.343)"/>
            <path id="Path_23" data-name="Path 23" class="cls-3" d="M518.5 566.22a3.779 3.779 0 0 1-3.488 1.707 5.365 5.365 0 0 1-2.452-.555 4.325 4.325 0 0 1-2.262-4.189 4.852 4.852 0 0 1 .992-3.094 4.451 4.451 0 0 1 3.649-1.591 5.8 5.8 0 0 1 2.306.438 2.7 2.7 0 0 1 1.81 2.569 1.532 1.532 0 0 1-.131.642c-.365.773-1.649 1.124-3.882 1.051l-1.912-.058a11.7 11.7 0 0 0 .2 2.072c.321 1.416 1.036 2.116 2.131 2.116a2.755 2.755 0 0 0 1.022-.19 3.115 3.115 0 0 0 1.824-1.722l.5.16a2.352 2.352 0 0 1-.307.644zm-5.356-3.692 1.328.058a3.306 3.306 0 0 0 1.24-.1c.394-.146.584-.555.584-1.2-.015-1.474-.467-2.233-1.343-2.262-1.107.045-1.705 1.213-1.807 3.504z" transform="translate(-460.314 -538.258)"/>
            <path id="Path_24" data-name="Path 24" class="cls-3" d="M582.2 567.967q.263.044.263.525H576.6v-.54a2.463 2.463 0 0 0 .482-.044c.482-.088.73-.423.73-1.036v-6.757h-1.2v-.54h3.634l.146 1.926a3.761 3.761 0 0 1 .657-1.08 3.079 3.079 0 0 1 2.262-1.022 2.146 2.146 0 0 1 .525.058 1.328 1.328 0 0 1 .89 1.868 1.209 1.209 0 0 1-1.182.788 1.477 1.477 0 0 1-.452-.058 1.77 1.77 0 0 1-.8-.832c-.175-.321-.35-.482-.5-.482a.572.572 0 0 0-.263.058c-.613.321-.963 1.2-1.051 2.656v4.495h1.532a.97.97 0 0 1 .19.017z" transform="translate(-516.938 -539.026)"/>
        </g>
    </g>
</svg>
