<svg xmlns="http://www.w3.org/2000/svg" xmlns:xlink="http://www.w3.org/1999/xlink" viewBox="0 0 913.32 333.3"><defs><style>.cls-1{fill:url(#linear-gradient);}.cls-2{fill:#fff;}.cls-3{fill:url(#linear-gradient-3);}</style><linearGradient id="linear-gradient" x1="5.9" y1="166.65" x2="909.33" y2="166.65" gradientUnits="userSpaceOnUse"><stop offset="0" stop-color="#c92021"/><stop offset="0.69" stop-color="#840f1a"/><stop offset="1" stop-color="#c92021"/></linearGradient><linearGradient id="linear-gradient-3" x1="5.9" y1="166.65" x2="909.33" y2="166.65" xlink:href="#linear-gradient"/></defs><title>Virtual touring</title><g id="Layer_2" data-name="Layer 2"><g id="Layer_1-2" data-name="Layer 1"><path class="cls-1" d="M659.65,333.3H0V0H659.65a187.94,187.94,0,0,0,0,333.3Z"/><path class="cls-2" d="M96.25,146.22a9.2,9.2,0,0,1-5.09-1.16q-2-1.45-5.67-10.76L56.69,62.14H49.27V58.21H88.54v3.93H77.05l24.88,61.53,22-61.53H112.26V58.21H137v3.93h-7.27l-30.4,84.08Z"/><path class="cls-2" d="M174.52,141.85q1.89.29,1.89,3.64H140.62v-3.78a17.1,17.1,0,0,0,3.35-.29q5.09-.87,5.09-7.27V86.72h-8.44V82.94h26.91v58.77h5.38A8.29,8.29,0,0,1,174.52,141.85Zm-7.13-72.73a10.14,10.14,0,0,1-9.46,5.38,10.76,10.76,0,0,1-5.09-1.31,9.75,9.75,0,0,1-5.67-9.31,11,11,0,0,1,1.31-5.24,10.54,10.54,0,0,1,14.69-4.22,10.05,10.05,0,0,1,5.67,9.46A10.18,10.18,0,0,1,167.39,69.12Z"/><path class="cls-2" d="M221.5,141.85q1.89.29,1.89,3.64H182.23v-3.78a17.1,17.1,0,0,0,3.35-.29q5.09-.87,5.09-7.27V86.72h-8.44V82.94h25.46l1,13.53a25.73,25.73,0,0,1,4.66-7.56q6.84-7.12,15.86-7.13a14.94,14.94,0,0,1,3.64.44Q240,84.1,240,91.38a9.26,9.26,0,0,1-.87,3.93q-2.48,5.53-8.29,5.53a11.09,11.09,0,0,1-3.2-.44q-3.05-1.16-5.67-5.82-1.89-3.35-3.49-3.35a4.82,4.82,0,0,0-1.89.44q-6.4,3.35-7.42,18.62v31.42H219.9A8.28,8.28,0,0,1,221.5,141.85Z"/><path class="cls-2" d="M242.89,83.67h10V69.85l18.47-3.06V83.67h19.2v3.78H271.4v44.08a21.94,21.94,0,0,0,.29,3.64q1.16,7.57,6.55,7.56a10.53,10.53,0,0,0,1.75-.15q5.67-1.16,8.58-12.95l3.93.58a32.68,32.68,0,0,1-3.2,9.6q-4.22,7.27-15.42,7.27c-1.16,0-2.33-.05-3.49-.15q-17.46-2-17.46-23.13V87.45h-10Z"/><path class="cls-2" d="M370.31,141.85q1.75.44,1.75,3.64H346.17l-.73-11.93-.87,1.75q-6.84,11.64-19.93,11.64-20.51-.15-20.8-23.71V86.72H295.4V82.94h26.91v42.77a25.62,25.62,0,0,0,.29,3.93q1.45,9.75,9.75,9.75a10.23,10.23,0,0,0,4.36-1q7.27-3.63,8.29-15l.15-36.66H338V82.94h25.6v58.77h4.95A9.16,9.16,0,0,1,370.31,141.85Z"/><path class="cls-2" d="M416.72,133.71a21,21,0,0,1-1.89,3.93q-5.82,9.31-18.18,9.31a25.47,25.47,0,0,1-7.42-1q-11.35-3.63-11.35-16.58.14-19.06,37.53-19.78V100.1a39.62,39.62,0,0,0-.58-7.27q-1.46-8.29-8.29-8.29a8.7,8.7,0,0,0-3.64.73q-2.48,1.46-4.07,7.27-.58,2-.87,2.91-2.18,6.11-8.44,6.11a8.67,8.67,0,0,1-2.76-.44q-5.38-1.45-5.38-7.13a8.9,8.9,0,0,1,1.31-4.66q5.09-8.58,24.88-8.58a41.69,41.69,0,0,1,9.46,1q16.87,4.22,16.87,22.4v30.4q0,7,3.2,7.27,4.22-.14,5.09-10.18l3.78.15a39.76,39.76,0,0,1-1.31,7.42q-2.62,7.71-13.24,7.71Q419.77,146.22,416.72,133.71Zm-10.18,6.55q6.11-2.32,8.87-12.51V113.63a43.67,43.67,0,0,0-10.76,1.6q-7.86,2.91-7.86,12.51.14,12.66,7.42,12.95A7.48,7.48,0,0,0,406.54,140.25Z"/><path class="cls-2" d="M487.56,141.85q1.89.29,1.89,3.64H448.87v-3.78a29.6,29.6,0,0,0,6.55-.58q4.8-1.31,4.8-7.27V54.72H448.87V50.94h29.82v90.77H486A8.28,8.28,0,0,1,487.56,141.85Z"/><path class="cls-2" d="M76.71,256.89v-3H87.59V191.14H81.41q-8.82.69-12.49,11.91l-1.83,7.67H63.88l.57-22.57H121l.57,22.57h-3.21l-1.83-7.67a1.58,1.58,0,0,1-.11-.69q-3.09-11.23-12.37-11.23H97.45v62.77h7.79a5.93,5.93,0,0,1,1.15.12q1.83.34,1.83,2.86Z"/><path class="cls-2" d="M176.19,211.08q10.65,7,10.65,21.42,0,10.65-6.64,17.75A23.76,23.76,0,0,1,162,258a24.74,24.74,0,0,1-14.2-4.35q-10.54-7.22-10.54-21.65A24.05,24.05,0,0,1,144,214.63a24.48,24.48,0,0,1,18.33-7.56A25.3,25.3,0,0,1,176.19,211.08Zm-28.41,30.35q3,13.75,14.55,13.75a15.73,15.73,0,0,0,4.24-.57q10.54-3.32,10.54-22.57a49.22,49.22,0,0,0-.34-6.07q-2.06-16-14.78-16a15.31,15.31,0,0,0-5.27.92Q147,214.74,147,232.5A45.65,45.65,0,0,0,147.78,241.43Z"/><path class="cls-2" d="M258.6,254.15q1.72.23,1.72,2.75H244.17l-.8-11.68a23.18,23.18,0,0,1-3.32,5.84A17.15,17.15,0,0,1,226,258q-16.27-.12-16.38-19.7V211.08h-8.82v-2.86h17.41v31.84a24.15,24.15,0,0,0,.23,3.44q1.49,9.62,10.88,9.62a11.68,11.68,0,0,0,6.64-2.18q7.22-4.81,7.22-15.12V211.08h-9.39v-2.86h18V254h5.73A4.89,4.89,0,0,1,258.6,254.15Z"/><path class="cls-2" d="M300.69,254.15q1.72.23,1.72,2.75H274.11V254a19.5,19.5,0,0,0,5.61-.57q3-1,3-6.3V211.08h-8.59v-2.86h16.61l.46,11.34a22,22,0,0,1,4-6.19q5.38-5.84,12.26-5.84a11.14,11.14,0,0,1,2.18.23q5.27,1.15,5.27,6.3a4.33,4.33,0,0,1-.23,1.38,4.12,4.12,0,0,1-4.35,3.32,4.31,4.31,0,0,1-1.37-.23q-1.61-.46-3.44-3.67-1.61-2.86-3.55-2.86-1.72.12-4.24,2.52-6.42,6.3-6.41,16.72V254h8.25A4.89,4.89,0,0,1,300.69,254.15Z"/><path class="cls-2" d="M350.57,254.15q1.72.23,1.72,2.75H325.94V254a24.13,24.13,0,0,0,5.61-.46q3.55-1.14,3.55-6.41V211.08h-9.16v-2.86h17.75V254h5.73A5.92,5.92,0,0,1,350.57,254.15Zm-6.07-60a5.67,5.67,0,0,1-5.61,3.67,7.29,7.29,0,0,1-2.52-.46,5.83,5.83,0,0,1-3.78-5.84,6.29,6.29,0,0,1,.57-2.63,5.89,5.89,0,0,1,5.73-3.67,6.86,6.86,0,0,1,2.63.57,5.9,5.9,0,0,1,3.55,5.73A6.31,6.31,0,0,1,344.5,194.12Z"/><path class="cls-2" d="M389.68,254.15q1.72.23,1.72,2.75H366.2V254a19.5,19.5,0,0,0,5.61-.57q3-1,3-6.3V211.08H366.2v-2.86H382.8l.46,11.46a23.18,23.18,0,0,1,3.32-5.84,17.25,17.25,0,0,1,14-6.76,15.22,15.22,0,0,1,7.9,2.18q7.9,4.93,7.9,16.38V254h5.73a4.89,4.89,0,0,1,1.15.11q1.72.23,1.72,2.75H399.18V254a19.5,19.5,0,0,0,5.61-.57q3-1,3-6.3V224.48a16.26,16.26,0,0,0-1-6,9.4,9.4,0,0,0-9.51-6.53,11.7,11.7,0,0,0-6.3,1.95q-7.22,4.7-7.56,15.35V254h5.16A4.89,4.89,0,0,1,389.68,254.15Z"/><path class="cls-2" d="M472.43,209.7a15,15,0,0,1,1.95-4,10.14,10.14,0,0,1,8.71-4.81,7.38,7.38,0,0,1,2.52.46,4.74,4.74,0,0,1,3.32,4.81,4.1,4.1,0,0,1-3.32,3.67,3.6,3.6,0,0,1-2.29-1.15,5.25,5.25,0,0,0-3.44-1.72,3.81,3.81,0,0,0-.92.11q-2.87.69-3.89,4.35a17.68,17.68,0,0,1,2.29,25.43q-6.07,6.87-16.27,6.87L451,243.61a12.32,12.32,0,0,0-1.72.11q-3.78.8-3.78,3.78.11,4.24,5.38,4.58l20.85.46a20.51,20.51,0,0,1,3.09.23q11.34,1.49,11.34,11.34a11.09,11.09,0,0,1-1.83,6.07q-5.61,8.48-23,8.48a28.78,28.78,0,0,1-11.57-2.06q-7.45-3.09-7.45-9.39,0-4.12,3.78-8.13a10.17,10.17,0,0,1-4.93-9,13.25,13.25,0,0,1,.34-3q1.83-6.3,9.16-6.3a17.92,17.92,0,0,1-1.6-1q-8.48-5.73-8.48-14.43a16.91,16.91,0,0,1,4.35-11.57q6.07-6.64,16.38-6.64A24.08,24.08,0,0,1,472.43,209.7Zm-1.15,64.83q9.39-2.29,9.39-7.33a6.57,6.57,0,0,0-.34-2.29q-1.37-3.78-10-3.89l-17.64-.23a20.16,20.16,0,0,1-3.78-.46,10.17,10.17,0,0,0-2.75,6.19,7.11,7.11,0,0,0,.8,3.21q3,6,14.32,6A41.13,41.13,0,0,0,471.29,274.54Zm-10.08-33.68q11.11-.11,11.34-15.69-.11-15-11.34-15.23Q450,210,449.75,225.17,449.86,240.63,461.21,240.86Z"/><path class="cls-1" d="M746.65,0C654.61,0,580,74.59,580,166.63a166.68,166.68,0,1,0,333.35,0C913.32,74.59,838.68,0,746.65,0Zm0,308.86A142.21,142.21,0,1,1,888.88,166.63,142.24,142.24,0,0,1,746.65,308.86Z"/><polygon class="cls-3" points="816.66 166.65 716.66 108.91 716.66 224.38 816.66 166.65"/></g></g></svg>