<svg xmlns="http://www.w3.org/2000/svg" viewBox="0 0 292.14 333.85"><defs><style>.cls-1{fill:#c82021;}</style></defs><g id="Layer_2" data-name="Layer 2"><g id="Layer_1-2" data-name="Layer 1"><path class="cls-1" d="M156.8,194.75c-3.35.85-5.65-1.25-6.9-6.2-1.7-6.9-3.3-22.3,3.85-24.05,3.35-.85,5.65,1.15,6.9,6.2C162.25,177.25,164,193,156.8,194.75Z"/><path class="cls-1" d="M217.65,182.85c-1.7.45-3.25-.4-3.9-3.2-.95-3.7-.05-7.45,2.45-8.05,1.75-.45,3.25.4,4,3.2C221.1,178.5,220.15,182.25,217.65,182.85Z"/><path class="cls-1" d="M19.3,175.3v71.2L279.45,184V112.8Zm54.2,32.2-.5-6.4,16-4,.55,6.4Zm42.1,6.55c-11.2,2.8-17.3-.25-20.2-9.2l11.65-2.9c1.9,3.5,3.9,4.25,7,3.5,4.25-1.1,6.35-5.25,5.2-9.75-1-3.8-3.7-5.7-7.2-4.8a7,7,0,0,0-5.5,5.6l-11.15,2.75L96.5,170.7l30.25-7.55.65,9.4-20.5,5.1-1.1,10.95,1.9-3.8a12.8,12.8,0,0,1,6.25-3.4c9.9-2.5,15.5,3.3,17.3,10.55C133.85,202.25,126.9,211.25,115.6,214.05Zm43.3-10.8c-11.7,2.9-18.9-2.4-21.55-12.95-3.15-12.6-2-30.25,14.3-34.3,11.7-2.95,18.9,2.4,21.55,12.95C176.2,181.1,175.4,199.15,158.9,203.25Zm18.65-40.4c-1.6-6.45,1-13.55,8.7-15.5,5.55-1.4,10.1,1,11.55,6.9,1.6,6.45-1,13.55-8.7,15.5C183.55,171.15,179,168.75,177.55,162.85Zm7.45,33,25.5-53.55,9.2-2.3L194.2,193.5Zm33.35-7.4c-5.5,1.4-10-1-11.55-6.85-1.6-6.45,1-13.6,8.7-15.5,5.55-1.4,10.1.95,11.6,6.85C228.7,179.35,226.1,186.5,218.35,188.4Z"/><path class="cls-1" d="M188.4,164.2c-1.75.4-3.25-.45-4-3.2-.9-3.75,0-7.45,2.5-8.1,1.75-.4,3.25.45,4,3.2C191.85,159.85,190.9,163.55,188.4,164.2Z"/><path d="M275.25,31.25,72.55,0l-5.7,36.85L0,44.7,14.25,165.8,7.4,167.5v94.9l20.3,17.5,6.35,54,166.3-19.6s32.7,4.95,33.7,4.95a19.63,19.63,0,0,0,19.55-16.8l12-78.1,25.5-31.55V97.85l-6.25,1.55,7-45.55A19.66,19.66,0,0,0,275.25,31.25ZM6.15,49.55,66,42.5l-17.75,115L19.7,164.5ZM38.9,327.7l-4.6-39,145.55,22.4Zm214.15-58.1-3.25,21.1-.3,1.9-1.4,8.95a14.86,14.86,0,0,1-1.9,5.35,17.26,17.26,0,0,1-2.25,2.8c-.45.4-.9.8-1.35,1.15a12,12,0,0,1-1.45.95c-.05.05-.1.05-.1.1-.45.25-1,.45-1.4.65a.84.84,0,0,1-.25.1c-.55.2-1.05.4-1.6.55-.05,0-.1.05-.15.05l-1.45.3a1.38,1.38,0,0,0-.45.05c-.55,0-1.1.1-1.7.1a11.92,11.92,0,0,1-2.3-.2L34.5,283.1l4.4-28.45,225-55.2ZM285.6,104.9v83.5l-20.85,5.1L39.8,248.75l-5.8,1.4-4.1,1-17,4.15v-83.5l17.85-4.4,16.6-4,159.2-39.1,71.6-17.55Zm.85-51.9-7.4,47.8L54.1,156.05,72.55,36.15,77.15,6.3,185.05,23,205.7,26.1,211,27l11.15,1.7,52.3,8.05A14.23,14.23,0,0,1,286.45,53Z"/><path d="M182.85,285.17a24.1,24.1,0,0,0,21.9-7.85,19.31,19.31,0,1,1,4.1-25.5,24.14,24.14,0,1,0-26,33.35Z"/><polygon points="213.34 268.36 211.95 277.02 218.17 270.83 225.97 274.83 222.01 267.01 228.22 260.82 219.56 262.18 215.59 254.35 214.2 263.01 205.54 264.37 213.34 268.36"/><path d="M94.12,50.22a3.82,3.82,0,0,1-4.39,3c-2.35-.33-4.23-2.37-3.51-7.5.62-4.39,2.83-6.25,5.37-5.89a3.67,3.67,0,0,1,3.52,3.77l5.31.75c.27-4.05-2.42-7.59-8.23-8.4-5.51-.78-10.57,2.24-11.56,9.32-1,6.9,2.93,11.05,8.38,11.82,5.1.71,9-1.32,10.42-6.08Z"/><rect x="95.45" y="45.92" width="20.54" height="5.36" transform="translate(42.87 146.53) rotate(-82)"/><polygon points="115.55 60.36 120.86 61.1 123.14 44.89 129.74 45.81 130.32 41.69 111.81 39.09 111.23 43.21 117.83 44.14 115.55 60.36"/><rect x="123.34" y="49.84" width="20.54" height="5.36" transform="translate(63.01 177.53) rotate(-82)"/><polygon points="155.23 61.73 145.15 60.31 156.82 49.59 157.4 45.49 141.68 43.28 141.1 47.41 150.33 48.71 138.56 59.5 138 63.51 154.65 65.85 155.23 61.73"/><polygon points="174.08 64.37 163.79 62.93 164.35 58.92 173.76 60.24 174.34 56.11 164.93 54.79 165.49 50.84 175.48 52.24 176.06 48.12 160.76 45.97 157.9 66.31 173.5 68.5 174.08 64.37"/><path d="M193.76,50.6l-1.23,8.7c-.16,1.18-.43,3.28-.57,5.36l-5.75-15.12-6.6-.93L176.75,69l5.3.74,1.18-8.4c.17-1.18.42-3,.54-5.07l5.51,14.49,6.92,1,2.86-20.34Z"/><path d="M216.55,68.81c.44-3.13-1.08-5.57-5.42-7.26-3.24-1.26-4.19-2.24-4-3.54a2,2,0,0,1,2.43-1.64c1.74.24,2.47,1.49,2.47,3.2l5.3.75c.09-3.84-1.74-7.07-7.11-7.83-4.27-.6-8.14,1.24-8.69,5.16s2,5.94,6.52,7.74c2.42,1,3.07,1.9,2.92,3s-1.38,1.68-2.85,1.47A3.37,3.37,0,0,1,205,66.58l-5.31-.74c-.32,4.61,2.87,7.16,8,7.89C211.81,74.31,216,72.88,216.55,68.81Z"/><polygon points="225.04 67.69 233.18 68.83 232.07 76.73 237.37 77.48 240.23 57.13 234.93 56.39 233.76 64.7 225.62 63.56 226.79 55.24 221.48 54.5 218.62 74.84 223.93 75.59 225.04 67.69"/><rect x="235.14" y="65.56" width="20.54" height="5.36" transform="translate(143.68 301.76) rotate(-82)"/><path d="M264.54,60.7a25.49,25.49,0,0,0-3.16-.59L253.45,59l-2.86,20.35,5.31.74,1-7.13,2.62.37a30.22,30.22,0,0,0,3.21.3c3,.06,5.71-1.7,6.27-5.71S267.44,61.47,264.54,60.7Zm-1.08,6.43a2.2,2.2,0,0,1-2.5,2.15c-.38,0-.86-.09-1.42-.17l-2.06-.29.7-4.95,2.06.29c.56.07,1,.14,1.41.22A2.2,2.2,0,0,1,263.46,67.13Z"/><path d="M103.32,67.27,97.58,78.13l2.77.39,1.5-3.09,3.74.53.6,3.38,2.82.4-2.47-12Zm-.52,6.22,1.78-3.75.66,4.09Z"/><path d="M117.86,69.39a13.36,13.36,0,0,0-1.71-.32l-4.27-.6-1.61,11.44,2.61.37.59-4.18,1.66.23a12.23,12.23,0,0,0,1.73.16,3.64,3.64,0,0,0,1-7.1Zm-1.76,5a7.7,7.7,0,0,1-.92-.1l-1.43-.2.45-3.18,1.43.2a6.23,6.23,0,0,1,.9.16,1.6,1.6,0,0,1-.43,3.12Z"/><path d="M128.36,70.87a15.28,15.28,0,0,0-1.71-.33l-4.27-.6-1.6,11.45,2.6.37.59-4.18,1.66.23a13.91,13.91,0,0,0,1.73.16,3.64,3.64,0,0,0,1-7.1Zm-1.76,5a7.59,7.59,0,0,1-.92-.09l-1.43-.2.45-3.19,1.43.2a8.71,8.71,0,0,1,.91.16,1.6,1.6,0,0,1-.44,3.12Z"/><polygon points="135.49 71.79 132.88 71.42 131.28 82.87 139.77 84.06 140.08 81.87 134.19 81.04 135.49 71.79"/><rect x="137.8" y="77.45" width="11.56" height="2.63" transform="matrix(0.14, -0.99, 0.99, 0.14, 45.61, 209.98)"/><path d="M154.46,82.29A2.39,2.39,0,0,1,151.73,84c-1.56-.22-2.64-1.64-2.24-4.51.36-2.54,1.73-3.79,3.39-3.55a2.32,2.32,0,0,1,2.2,2.3l2.62.37c.06-2.22-1.38-4.15-4.51-4.59s-5.91,1.38-6.46,5.23,1.5,6.22,4.63,6.66c2.81.39,4.93-.77,5.72-3.28Z"/><path d="M162.51,75.58l-5.74,10.87,2.77.39,1.5-3.09,3.73.53.61,3.38,2.82.4-2.47-12ZM162,81.8l1.78-3.74.66,4.09Z"/><polygon points="179 77.9 168.78 76.47 168.5 78.49 172.31 79.03 170.99 88.45 173.57 88.81 174.9 79.39 178.72 79.93 179 77.9"/><rect x="175" y="82.67" width="11.56" height="2.63" transform="matrix(0.14, -0.99, 0.99, 0.14, 72.44, 251.31)"/><path d="M190.53,79.29c-3.55-.5-6.08,1.51-6.59,5.14s1.36,6.27,4.91,6.77,6.07-1.54,6.58-5.15S194.06,79.78,190.53,79.29Zm2.21,6.38c-.36,2.55-1.72,3.87-3.62,3.6s-2.86-1.91-2.5-4.46,1.73-3.87,3.64-3.6S193.1,83.1,192.74,85.67Z"/><path d="M205.29,86.79c-.12.85-.28,2.14-.39,3.35l-3.42-9.08-3.34-.47L196.53,92l2.61.36.7-5c.12-.83.26-2,.35-3.23L203.52,93l3.46.49,1.61-11.45L206,81.7Z"/><polygon points="212.48 94.28 215.08 94.64 215.75 89.92 221.09 90.67 221.37 88.64 216.03 87.89 216.4 85.22 222.13 86.03 222.41 84 214.08 82.83 212.48 94.28"/><polygon points="222.48 95.68 230.97 96.88 231.26 94.84 225.37 94.01 225.75 91.32 231.09 92.07 231.37 90.05 226.03 89.3 226.41 86.63 232.13 87.43 232.41 85.41 224.09 84.24 222.48 95.68"/><polygon points="232.86 97.14 241.36 98.34 241.64 96.3 235.75 95.47 236.13 92.78 241.47 93.53 241.76 91.51 236.42 90.76 236.79 88.09 242.51 88.89 242.8 86.87 234.47 85.7 232.86 97.14"/></g></g></svg>