<svg xmlns="http://www.w3.org/2000/svg" id="low-price" width="23" height="21.438" viewBox="0 0 23 21.438">
    <defs>
        <style>
            .cls-1{fill:#b93006}
        </style>
    </defs>
    <path id="Path_293" d="M18.1 26.163v-8.738H4.9v8.738H0l11.5 12.7 11.5-12.7zM3.031 27.508h3.214v-8.739h10.51v8.738h3.214L11.5 36.86z" class="cls-1" data-name="Path 293" transform="translate(0 -17.425)"/>
    <path id="Path_294" d="M210.567 144.751a4.615 4.615 0 0 0-.866-.519l-.488-.253c-.085-.047-.19-.119-.323-.21l-.013-.009a.615.615 0 0 1-.28-.554.557.557 0 0 1 .538-.574c.313 0 .546.093.811.566l.117.208 1.013-.657-.091-.18a1.94 1.94 0 0 0-1.191-1.054v-.827h-1.173v.821a1.813 1.813 0 0 0-1.27 1.761 1.6 1.6 0 0 0 .549 1.285 4.021 4.021 0 0 0 1.12.685c.8.381 1.069.641 1.069 1.031a.936.936 0 0 1-.191.607.84.84 0 0 1-.691.284c-.577 0-.9-.338-1.145-1.206l-.08-.282-1.076.651.032.155a2.3 2.3 0 0 0 1.682 1.823v.813h1.174v-.82a1.954 1.954 0 0 0 .992-.594 2.067 2.067 0 0 0 .549-1.449v-.01a1.786 1.786 0 0 0-.768-1.492z" class="cls-1" data-name="Path 294" transform="translate(-197.635 -135.164)"/>
</svg>
