<svg id="_24px" data-name="24px" xmlns="http://www.w3.org/2000/svg" width="60.787" height="60.788" viewBox="0 0 60.787 60.788">
  <path id="Path_450" data-name="Path 450" d="M0,0H60.788V60.788H0Z" fill="none"/>
  <path id="Path_451" data-name="Path 451" d="M51.162,26.264l-22.8-22.8A5.034,5.034,0,0,0,24.8,2H7.066A5.081,5.081,0,0,0,2,7.066V24.8a5.055,5.055,0,0,0,1.494,3.6l22.8,22.8a5.034,5.034,0,0,0,3.571,1.469,4.952,4.952,0,0,0,3.571-1.494l17.73-17.73a4.952,4.952,0,0,0,1.494-3.571A5.116,5.116,0,0,0,51.162,26.264Zm-40.3-11.6a3.8,3.8,0,1,1,3.8-3.8A3.794,3.794,0,0,1,10.865,14.664Z" transform="translate(3.066 3.066)" fill="#c5a153"/>
</svg>
